<svg width="107" height="87" viewBox="0 0 107 87" fill="none" xmlns="http://www.w3.org/2000/svg">
<g opacity="0.75">
<ellipse cx="47.014" cy="82.669" rx="32.702" ry="4.26548" fill="#FCEDD8"/>
<ellipse cx="47.014" cy="82.669" rx="32.702" ry="4.26548" fill="black" fill-opacity="0.2"/>
</g>
<path d="M73.9229 23.6466L70.3224 23.0705L74.9356 34.8582C75.1669 35.4493 75.7509 35.8242 76.3832 35.7684C77.8539 35.6386 80.6782 35.3241 83.7243 34.6384L80.3826 24.8468L80.3669 24.8006L79.1237 21.1579L73.9229 23.6466Z" fill="#B0183D"/>
<path d="M106.528 5.444L73.9229 20.4462V23.6466L79.1237 21.1579L94.4053 13.8452L105.691 8.44477C106.202 8.2001 106.528 7.68361 106.528 7.11678V5.444Z" fill="#D24545"/>
<path d="M73.9229 20.4462L53.92 17.8458V19.1908C53.92 19.9141 54.4455 20.5302 55.1597 20.6445L70.3224 23.0705L73.9229 23.6466V20.4462Z" fill="#B43737"/>
<path fill-rule="evenodd" clip-rule="evenodd" d="M53.92 17.8458L84.7365 3.03019C84.9899 2.90837 85.2729 2.86165 85.5519 2.89556L106.528 5.444C98.0597 9.04452 79.4437 16.3656 72.7227 16.8456C66.0018 17.3257 57.3872 17.7124 53.92 17.8458Z" fill="#E64B4B"/>
<path d="M53.92 17.8458L73.9229 20.4462L106.528 5.444C98.0597 9.04452 79.4437 16.3656 72.7227 16.8456C66.0018 17.3257 57.3872 17.7124 53.92 17.8458Z" fill="#E64B4B"/>
<path fill-rule="evenodd" clip-rule="evenodd" d="M80.3669 24.8006L80.3826 24.8468L83.7243 34.6384C86.9151 33.9202 90.3491 32.7947 92.7256 31.0477C94.5209 29.7279 96.6478 27.3661 97.609 26.2556C97.9354 25.8785 98.0359 25.3599 97.886 24.8843L94.4053 13.8452C93.0453 14.8454 89.2851 17.5657 85.1245 20.4462C81.167 23.186 80.3095 24.4539 80.3669 24.8006Z" fill="#E64B4B"/>
<path d="M94.4053 13.8452L79.1237 21.1579L80.3669 24.8006C80.3095 24.4539 81.167 23.186 85.1245 20.4462C89.2851 17.5657 93.0453 14.8454 94.4053 13.8452Z" fill="#B0183D"/>
<path d="M93.4265 22.7492L92.3256 22.8465L94.5436 29.0474C94.5436 29.0474 95.4827 29.5147 95.9261 29.0474C96.1665 28.794 96.3261 28.2473 96.3261 28.2473L94.3259 22.2464L93.4265 22.7492Z" fill="#FCEDD8"/>
<path d="M93.2324 22.2464L93.4265 22.7492L94.3259 22.2464C94.3259 22.2464 93.6412 22.123 93.2324 22.2464Z" fill="#B0183D"/>
<path d="M93.4265 22.7492L93.2324 22.2464C92.8258 22.3691 92.3256 22.8465 92.3256 22.8465L93.4265 22.7492Z" fill="#B0183D"/>
<path d="M78.9236 11.6449L89.5252 12.645L93.4265 22.7492M93.4265 22.7492L92.3256 22.8465M93.4265 22.7492L94.3259 22.2464M93.4265 22.7492L93.2324 22.2464M92.3256 22.8465L94.5436 29.0474C94.5436 29.0474 95.4827 29.5147 95.9261 29.0474C96.1665 28.794 96.3261 28.2473 96.3261 28.2473L94.3259 22.2464M92.3256 22.8465C92.3256 22.8465 92.8258 22.3691 93.2324 22.2464M94.3259 22.2464C94.3259 22.2464 93.6412 22.123 93.2324 22.2464" stroke="#B0183D" stroke-width="0.400058"/>
<path d="M10.2586 67.7285L11.4564 56.5614L12.6382 56.7705L11.6115 66.9667L10.2586 67.7285Z" fill="#E23C64"/>
<path d="M16.291 57.4166L15.42 69.189L14.1921 67.6969L15.1092 57.2076L16.291 57.4166Z" fill="#E23C64"/>
<path d="M25.1618 66.5718L16.291 57.4166L17.2799 56.4646L25.1826 64.712L25.1618 66.5718Z" fill="#E23C64"/>
<path d="M20.3365 53.5219L29.7113 63.1022L27.4574 62.9772L19.3476 54.474L20.3365 53.5219Z" fill="#E23C64"/>
<path d="M27.4574 62.9772L25.2034 62.8523L25.1826 64.712L17.2799 56.4646L19.3476 54.474L27.4574 62.9772Z" fill="#FCEDD8"/>
<path d="M14.1921 67.6969L12.9643 66.2048L11.6115 66.9667L12.6382 56.7705L15.1092 57.2076L14.1921 67.6969Z" fill="#FCEDD8"/>
<path d="M16.9695 44.54C16.0905 43.6956 14.6977 43.7091 13.8353 44.5704L13.3012 45.1038C12.8923 45.5122 12.3413 45.7467 11.7635 45.7583L11.0089 45.7734C9.79027 45.7979 8.81497 46.7923 8.81415 48.0112L8.81365 48.766C8.81326 49.3439 8.5895 49.8993 8.18915 50.3161L7.66622 50.8604C6.82186 51.7394 6.83538 53.1322 7.69664 53.9946L8.23004 54.5288C8.63841 54.9377 8.87291 55.4886 8.88451 56.0664L8.89967 56.8211C8.92415 58.0397 9.91858 59.015 11.1374 59.0158L11.8922 59.0163C12.4702 59.0167 13.0255 59.2404 13.4423 59.6408L13.9867 60.1637C14.8657 61.0081 16.2585 60.9946 17.1209 60.1333L17.655 59.5999C18.0639 59.1915 18.6149 58.957 19.1927 58.9454L19.9473 58.9303C21.1659 58.9058 22.1412 57.9114 22.142 56.6925L22.1425 55.9377C22.1429 55.3598 22.3667 54.8044 22.7671 54.3876L23.29 53.8433C24.1343 52.9643 24.1208 51.5715 23.2596 50.7091L22.7262 50.1749C22.3178 49.766 22.0833 49.2151 22.0717 48.6373L22.0565 47.8826C22.032 46.664 21.0376 45.6887 19.8188 45.6879L19.0639 45.6874C18.486 45.687 17.9306 45.4633 17.5139 45.0629L16.9695 44.54Z" fill="#E23C64"/>
<circle cx="5.42799" cy="5.42799" r="5.42799" transform="matrix(-0.946114 0.323835 0.323835 0.946114 18.8767 45.4159)" fill="#FCEDD8"/>
<path d="M14.1807 48.4575L14.2496 51.3245L11.6067 52.2291L14.2922 53.0964L14.3612 55.9634L15.952 53.6324L18.6375 54.4997L16.9351 52.1918L18.5259 49.8608L15.883 50.7654L14.1807 48.4575Z" fill="#E23C64"/>
<path d="M70.6098 42.4559C63.5313 45.2358 62.1013 51.3586 62.271 54.0725C62.1027 54.6874 61.8077 55.8912 61.4595 57.5357C61.812 57.649 62.484 57.7507 63.3748 57.698C64.3349 57.6412 65.5492 57.4051 66.8915 56.8112C69.4792 55.6662 70.7448 54.1454 71.0541 53.5281L71.715 61.5007L77.0387 54.7448L77.3965 63.0557C77.5404 62.9085 77.7804 62.7234 78.0636 62.5049C78.7398 61.9833 79.6629 61.2712 80.1156 60.4304C80.7567 59.2398 81.6312 56.9143 81.7606 55.7212C81.2241 53.9086 80.6876 52.1957 80.3827 50.6059C79.411 45.5385 82.2937 41.828 83.8566 40.6061C82.3903 40.0644 77.6882 39.676 70.6098 42.4559Z" fill="#FCEDD8"/>
<path fill-rule="evenodd" clip-rule="evenodd" d="M63.3748 57.698C65.169 62.5112 68.8387 73.0865 69.1636 76.8814C69.4886 80.6763 66.8616 81.9962 65.5075 82.1818C70.9299 81.9445 76.3121 79.8836 80.4064 73.9876C84.9623 67.4268 83.3615 61.1303 81.7606 55.7212C81.6312 56.9143 80.7567 59.2398 80.1156 60.4304C79.6629 61.2712 78.7398 61.9833 78.0636 62.5049C77.7804 62.7234 77.5404 62.9085 77.3965 63.0557L77.0387 54.7448L71.715 61.5007L71.0541 53.5281C70.7448 54.1454 69.4792 55.6662 66.8915 56.8112C65.5492 57.4051 64.3349 57.6412 63.3748 57.698Z" fill="#FF5E5E"/>
<path d="M60.249 64.1538C59.2725 70.4147 50.0449 79.8928 57.7216 81.4673C60.2311 81.982 62.8741 82.297 65.5075 82.1818C66.8616 81.9962 69.4886 80.6763 69.1636 76.8814C68.8387 73.0865 65.169 62.5112 63.3748 57.698C62.484 57.7507 61.812 57.649 61.4595 57.5357C61.0867 59.2969 60.653 61.5636 60.249 64.1538Z" fill="#E64B4B"/>
<path fill-rule="evenodd" clip-rule="evenodd" d="M62.4607 82.975C68.9066 79.6388 62.288 64.1865 62.288 64.1865C62.166 64.523 62.0393 64.8591 61.9146 65.1901C61.7556 65.6119 61.5998 66.0255 61.4607 66.4209C58.4709 74.9191 55.8168 80.4054 54.7422 82.2641C54.947 82.5918 55.2386 83.2144 55.347 83.889C55.347 83.889 59.9732 84.2624 62.4607 82.975ZM33.7241 83.889C33.7241 83.889 29.3789 84.1618 27.0166 82.975C20.531 79.7164 26.8729 64.3897 26.8729 64.3897C27.0015 64.7579 27.1198 65.0771 27.2404 65.4028C27.3575 65.7191 27.4769 66.0415 27.6104 66.4209C30.6002 74.9191 33.2543 80.4054 34.3288 82.2641C34.124 82.5918 33.8325 83.2144 33.7241 83.889Z" fill="#FF5E5E"/>
<path d="M52.4064 86.3264C53.3204 86.428 54.7422 86.5295 55.25 85.2093C55.4105 84.7921 55.4178 84.3295 55.347 83.889C55.2386 83.2144 54.947 82.5918 54.7422 82.2641C55.8168 80.4054 58.4709 74.9191 61.4607 66.4209C61.4607 66.4209 57.4843 69.6708 54.7422 70.991C52.629 72.0084 49.2063 73.5305 49.2063 73.5305C49.191 72.1256 49.2264 74.6589 49.2063 73.5305C49.2438 76.9593 49.2864 80.8559 49.427 83.4828C49.5209 85.237 49.6584 86.4251 49.8674 86.5295C50.5173 86.8545 51.0184 86.2587 51.1876 85.9202C51.2892 86.0217 51.6751 86.2452 52.4064 86.3264Z" fill="#B0183D"/>
<path d="M33.821 85.2093C34.3288 86.5295 35.7507 86.428 36.6647 86.3264C37.3959 86.2452 37.7819 86.0217 37.8834 85.9202C38.0527 86.2587 38.5537 86.8545 39.2037 86.5295C39.4126 86.4251 39.5502 85.237 39.6441 83.4828C39.7846 80.8559 39.8272 76.9593 39.8647 73.5305C39.8647 73.5305 36.4421 72.0084 34.3288 70.991C31.5867 69.6708 27.6104 66.4209 27.6104 66.4209C30.6002 74.9191 33.2543 80.4054 34.3288 82.2641C34.124 82.5918 33.8325 83.2144 33.7241 83.889C33.6533 84.3295 33.6606 84.7921 33.821 85.2093Z" fill="#B0183D"/>
<path fill-rule="evenodd" clip-rule="evenodd" d="M26.3057 51.0578C26.5763 50.2436 26.8936 49.4894 27.2404 48.8088C30.5172 50.4817 38.7772 53.4416 45.6019 51.8979C52.4267 50.3542 56.3672 46.5153 57.4843 44.7888C57.4843 43.138 60.2968 45.844 62.0389 50.5776C61.8341 51.0989 61.5848 51.7962 61.2987 52.5965C60.0239 56.1624 58.0179 61.7735 55.9609 62.9679C53.4423 64.4303 52.2032 64.5251 51.8986 64.3897C51.6954 64.9652 50.8626 66.2584 49.1565 66.8271C47.4503 67.3958 46.5498 67.4026 46.3128 67.3349L44.9926 69.0614L42.9614 67.3349C42.7244 67.4026 41.8239 67.3958 40.1177 66.8271C38.4115 66.2584 37.5787 64.9652 37.3756 64.3897C37.0709 64.5251 35.8319 64.4303 33.3133 62.9679C30.7946 61.5054 27.4229 53.9014 26.3057 51.0578Z" fill="#FCEDD8"/>
<path d="M57.4843 44.7888L32.3993 45.6012C31.2625 43.9612 28.9092 45.5333 27.2404 48.8088C30.5172 50.4817 38.7772 53.4416 45.6019 51.8979C52.4267 50.3542 56.3672 46.5153 57.4843 44.7888Z" fill="#E6CEAC"/>
<path fill-rule="evenodd" clip-rule="evenodd" d="M26.3057 51.0578C25.2979 54.09 24.9365 57.9545 26.1026 61.9523C26.4247 63.0565 26.6627 63.7885 26.8729 64.3897C27.0015 64.7579 27.1198 65.0771 27.2404 65.4028C27.3575 65.7191 27.4769 66.0415 27.6104 66.4209C27.6104 66.4209 31.5867 69.6708 34.3288 70.991C36.4421 72.0084 39.8647 73.5305 39.8647 73.5305L42.6567 84.3648C43.3177 84.5042 43.9959 84.6026 44.5864 84.5999C45.3302 84.5966 46.2152 84.4316 47.0238 84.2294L49.2063 73.5305C49.2063 73.5305 52.629 72.0084 54.7422 70.991C57.4843 69.6708 61.4607 66.4209 61.4607 66.4209C61.5998 66.0255 61.7556 65.6119 61.9146 65.1901C62.0393 64.8591 62.166 64.523 62.288 64.1865C62.5642 63.4248 62.8165 62.6615 62.9685 61.9523C63.8746 57.7232 63.1907 53.7072 62.0389 50.5776C61.8341 51.0989 61.5848 51.7962 61.2987 52.5965C60.0239 56.1624 58.0179 61.7735 55.9609 62.9679C53.4423 64.4303 52.2032 64.5251 51.8986 64.3897C51.6954 64.9652 50.8626 66.2584 49.1565 66.8271C47.4503 67.3958 46.5498 67.4026 46.3128 67.3349L44.9926 69.0614L42.9614 67.3349C42.7244 67.4026 41.8239 67.3958 40.1177 66.8271C38.4115 66.2584 37.5787 64.9652 37.3756 64.3897C37.0709 64.5251 35.8319 64.4303 33.3133 62.9679C30.7946 61.5054 27.4229 53.9014 26.3057 51.0578Z" fill="#FF5E5E"/>
<path d="M39.8647 73.5305C39.8272 76.9593 39.7846 80.8559 39.6441 83.4828C39.6441 83.4828 41.1028 84.0371 42.6567 84.3648L39.8647 73.5305Z" fill="#D74646"/>
<path d="M49.427 83.4828C49.2864 80.8559 49.2438 76.9593 49.2063 73.5305L47.0238 84.2294C48.3242 83.9042 49.427 83.4828 49.427 83.4828Z" fill="#D74646"/>
<path fill-rule="evenodd" clip-rule="evenodd" d="M21.3294 35.6485C20.5982 36.6235 18.655 36.0547 17.7748 35.6485C20.9909 41.4374 30.8827 52.102 44.8911 51.6948C61.9085 51.2001 67.9379 40.9705 70.9608 35.8419C71.0409 35.7061 71.1188 35.5738 71.1948 35.4454C70.5855 35.8178 69.1028 36.3391 68.0466 35.4454C67.535 35.0125 67.3437 34.3662 66.9999 33.2052C66.8441 32.679 66.657 32.0471 66.3946 31.2815C64.3775 29.2503 59.4344 25.3504 53.4221 26.0004C47.4098 26.6504 45.2297 36.4271 44.8911 41.2342C44.5526 36.4271 42.3724 26.6504 36.3601 26.0004C30.3478 25.3504 24.8106 29.2503 22.7936 31.2815C22.5869 31.9379 22.406 32.5452 22.2445 33.0874C21.8577 34.386 21.5819 35.3118 21.3294 35.6485Z" fill="#FCEDD8"/>
<path d="M41.8443 10.4619C40.1178 11.579 34.8368 12.6962 29.1495 19.0944C25.6894 22.9869 23.8833 27.8192 22.7936 31.2815C24.8106 29.2503 30.3478 25.3504 36.3601 26.0004C42.3724 26.6504 44.5526 36.4271 44.8911 41.2342C45.2297 36.4271 47.4098 26.6504 53.4221 26.0004C59.4344 25.3504 64.3775 29.2503 66.3946 31.2815C66.0137 30.1701 65.4741 28.7768 64.6414 27.016C64.0466 25.7583 63.3023 24.313 62.3593 22.6489C58.2157 15.3367 52.2372 12.3576 49.766 11.7821V8.93848C49.6983 9.07389 49.38 9.46658 48.6488 9.95407C47.9176 10.4416 45.839 11.3759 44.8911 11.7821V7.31353C44.451 7.99059 43.2255 9.56814 41.8443 10.4619Z" fill="#FF5E5E"/>
<path d="M61.3437 10.4619C62.9686 7.9432 66.0831 5.62089 67.4372 4.77456C67.7419 5.68859 68.27 8.97911 67.945 10.7665C67.62 12.554 66.5909 15.3028 66.117 16.9616C65.9477 16.7924 65.4873 16.3726 64.9998 16.0476C64.5123 15.7226 63.5103 15.9122 63.0702 16.0476L64.1873 14.118C63.9504 14.0164 63.2124 13.8133 62.1562 13.8133C61.0999 13.8133 59.7526 14.0164 59.211 14.118C59.2448 13.9487 59.7188 12.9805 61.3437 10.4619Z" fill="#FCEDD8"/>
<path fill-rule="evenodd" clip-rule="evenodd" d="M53.0159 13.1224C55.8541 14.6906 59.5334 17.6621 62.3593 22.6489C63.3023 24.313 64.0466 25.7583 64.6414 27.016L67.945 23.6645C68.6559 22.7505 70.5652 20.699 71.7026 14.5242C72.8401 8.34944 70.6193 2.26944 69.3668 0.00128441C68.385 -0.0325686 65.5685 0.590327 62.1562 3.35273C58.7438 6.11514 54.5054 11.1928 53.0159 13.1224ZM61.3437 10.4619C62.9686 7.9432 66.0831 5.62089 67.4372 4.77456C67.7419 5.68859 68.27 8.97911 67.945 10.7665C67.62 12.554 66.5909 15.3028 66.117 16.9616C65.9477 16.7924 65.4873 16.3726 64.9998 16.0476C64.5123 15.7226 63.5103 15.9122 63.0702 16.0476L64.1873 14.118C63.9504 14.0164 63.2124 13.8133 62.1562 13.8133C61.0999 13.8133 59.7526 14.0164 59.211 14.118C59.2448 13.9487 59.7188 12.9805 61.3437 10.4619Z" fill="#FF5E5E"/>
<path d="M27.0167 11.0712C25.3917 8.55256 22.2773 6.23024 20.9231 5.38391C20.6185 6.29795 20.0903 9.58846 20.4153 11.3759C20.7403 13.1633 21.7695 15.9122 22.2434 17.571C22.4127 17.4017 22.8731 16.982 23.3605 16.657C23.848 16.332 24.8501 16.5216 25.2902 16.657L24.173 14.7273C24.41 14.6258 25.148 14.4227 26.2042 14.4227C27.2604 14.4227 28.6078 14.6258 29.1494 14.7273C29.1156 14.5581 28.6416 13.5899 27.0167 11.0712Z" fill="#FCEDD8"/>
<path fill-rule="evenodd" clip-rule="evenodd" d="M35.243 13.8248C32.1962 16.3523 28.9486 18.373 26.1227 23.3599C25.1797 25.0239 24.5596 26.6723 23.9648 27.93L20.4153 24.2739C19.7044 23.3599 17.7951 21.3084 16.6577 15.1336C15.5202 8.95879 17.7409 2.87879 18.9935 0.610637C19.9752 0.576784 22.7918 1.19968 26.2042 3.96208C29.6166 6.72449 33.7534 11.8952 35.243 13.8248ZM27.0167 11.0712C25.3917 8.55256 22.2773 6.23024 20.9231 5.38391C20.6185 6.29795 20.0903 9.58846 20.4153 11.3759C20.7403 13.1633 21.7695 15.9122 22.2434 17.571C22.4127 17.4017 22.8731 16.982 23.3605 16.657C23.848 16.332 24.8501 16.5216 25.2902 16.657L24.173 14.7273C24.41 14.6258 25.148 14.4227 26.2042 14.4227C27.2604 14.4227 28.6078 14.6258 29.1494 14.7273C29.1156 14.5581 28.6416 13.5899 27.0167 11.0712Z" fill="#FF5E5E"/>
<path fill-rule="evenodd" clip-rule="evenodd" d="M34.2631 33.6358C34.5439 33.4144 34.8826 33.3126 35.2429 33.3126C35.593 33.3126 35.9392 33.4095 36.2215 33.6521C36.4923 33.8848 36.6213 34.1812 36.6863 34.4247C36.7883 34.8072 36.7758 35.2669 36.7679 35.5549V35.5549V35.5549C36.7668 35.5966 36.7658 35.6348 36.7652 35.6685C36.7585 36.057 36.5829 36.4076 36.3758 36.6512C36.1744 36.8879 35.8134 37.1706 35.3282 37.1706H34.8946C34.4234 37.1706 34.0673 36.906 33.8626 36.6539C33.6564 36.3998 33.4989 36.0344 33.5301 35.6333L33.5365 35.5475C33.5586 35.2442 33.5935 34.7651 33.7476 34.3623C33.8396 34.1218 33.9937 33.8481 34.2631 33.6358ZM53.7624 33.6358C54.0432 33.4144 54.3819 33.3126 54.7423 33.3126C55.0923 33.3126 55.4386 33.4095 55.7208 33.6521C55.9916 33.8848 56.1206 34.1812 56.1856 34.4247C56.2876 34.8072 56.2751 35.2669 56.2673 35.5549C56.2661 35.5966 56.2651 35.6347 56.2645 35.6685C56.2579 36.057 56.0823 36.4076 55.8751 36.6512C55.6737 36.8879 55.3128 37.1706 54.8275 37.1706H54.394C53.9227 37.1706 53.5666 36.906 53.362 36.6539C53.1557 36.3998 52.9982 36.0344 53.0294 35.6333L53.0358 35.5475C53.0579 35.2442 53.0929 34.7651 53.2469 34.3623C53.3389 34.1218 53.4931 33.8481 53.7624 33.6358ZM43.4845 41.1265C43.5353 41.1825 43.5892 41.2342 43.6454 41.2814C43.5371 41.6816 43.375 42.1038 43.1543 42.4658C42.8057 43.0377 42.3924 43.3423 41.9031 43.3681C41.1872 43.4058 40.8532 43.1611 40.6663 42.9363C40.4436 42.6686 40.3491 42.3248 40.307 42.1001C40.2243 41.659 39.7997 41.3686 39.3587 41.4513C38.9176 41.5339 38.6272 41.9585 38.7099 42.3995C38.7693 42.7165 38.9287 43.3883 39.4169 43.9753C39.9409 44.6053 40.7749 45.0547 41.9885 44.9908C43.2204 44.9259 44.0427 44.1303 44.5418 43.3115C44.6122 43.1961 44.6777 43.0778 44.7387 42.9579C44.7997 43.0778 44.8652 43.1961 44.9356 43.3115C45.4347 44.1303 46.257 44.9259 47.4889 44.9908C48.7025 45.0547 49.5365 44.6053 50.0605 43.9753C50.5487 43.3883 50.7081 42.7165 50.7675 42.3995C50.8502 41.9585 50.5597 41.5339 50.1187 41.4513C49.6777 41.3686 49.2531 41.659 49.1704 42.1001C49.1283 42.3248 49.0338 42.6686 48.8111 42.9363C48.6242 43.1611 48.2902 43.4058 47.5743 43.3681C47.085 43.3423 46.6717 43.0377 46.3231 42.4658C46.0888 42.0814 45.9205 41.6293 45.8125 41.2076C45.8395 41.1817 45.8658 41.1546 45.8914 41.1265L47.0605 39.8379C48.0078 38.7937 47.2669 37.1211 45.857 37.1211H43.5188C42.1089 37.1211 41.368 38.7937 42.3154 39.8379L43.4845 41.1265Z" fill="#B0183D"/>
<ellipse opacity="0.5" cx="74.435" cy="76.1693" rx="12.3902" ry="8.53096" fill="#D74646"/>
<path d="M84.9331 81.7752C84.8184 80.2424 86.8491 78.9898 87.4085 78.6749C87.5014 78.6226 87.6044 78.596 87.7109 78.5912L100.069 78.0379V83.8308V84.0177L86.9886 84.952C86.9886 84.952 85.0388 83.1882 84.9331 81.7752Z" fill="#FCEDD8"/>
<path d="M86.9886 84.952L100.069 84.0177L100.63 84.2045C100.719 84.3822 100.598 84.5931 100.4 84.6064L86.9886 85.5126V84.952Z" fill="#FF5E5E"/>
<path d="M100.63 84.2045L100.069 84.0177V83.8308L100.63 84.2045Z" fill="#FF5E5E"/>
<path d="M80.4482 76.1692L100.051 77.476C100.391 77.4987 100.407 77.9928 100.069 78.0379L73.2162 77.6075L68.9508 77.5391C69.5852 77.0234 70.3084 76.7076 70.8434 76.5624C70.893 76.5489 70.9438 76.5419 70.9951 76.5399L80.4482 76.1692Z" fill="#C73030"/>
<path fill-rule="evenodd" clip-rule="evenodd" d="M87.7109 78.5912C87.6044 78.596 87.5014 78.6226 87.4085 78.6749C86.8491 78.9898 84.8184 80.2424 84.9331 81.7752C85.0388 83.1882 86.9886 84.952 86.9886 84.952V85.5126L71.2917 84.2045C70.6806 83.3948 69.5601 81.4056 69.9663 79.9269C70.3726 78.4482 72.3022 77.7645 73.2162 77.6075L100.069 78.0379L87.7109 78.5912Z" fill="#FF5E5E"/>
<path d="M71.2917 84.2045C70.1705 84.2045 67.8533 83.5318 67.5543 80.8409C67.3852 79.3185 68.0852 78.2428 68.9508 77.5391L73.2162 77.6075C72.3022 77.7645 70.3726 78.4482 69.9663 79.9269C69.5601 81.4056 70.6806 83.3948 71.2917 84.2045Z" fill="#C73030"/>
<path d="M76.1908 71.6852C76.2973 71.69 76.4002 71.7166 76.4931 71.7689C77.0526 72.0838 79.0833 73.3364 78.9686 74.8692C78.8628 76.2822 76.913 78.046 76.913 78.046V78.6066L92.61 77.2985C93.7312 77.2985 96.0483 76.6258 96.3473 73.9349C96.6405 71.2962 94.3223 69.9992 93.0575 69.6562C93.008 69.6427 92.9579 69.6359 92.9066 69.6339L83.4534 69.2632L63.8507 70.57C63.5106 70.5927 63.4943 71.0868 63.8322 71.1319L76.1908 71.6852Z" fill="#B0183D"/>
<path d="M78.9686 74.8692C79.0833 73.3364 77.0526 72.0838 76.4931 71.7689C76.4002 71.7166 76.2973 71.69 76.1908 71.6852L63.8322 71.1319V76.9248V77.1117L76.913 78.046C76.913 78.046 78.8628 76.2822 78.9686 74.8692Z" fill="#FCEDD8"/>
<path d="M76.913 78.046L63.8322 77.1117L63.2716 77.2985C63.1828 77.4762 63.3034 77.687 63.5016 77.7004L76.913 78.6066V78.046Z" fill="#B0183D"/>
<path d="M63.2716 77.2985L63.8322 77.1117V76.9248L63.2716 77.2985Z" fill="#B0183D"/>
<path d="M5.37485 33.8192C5.37485 36.231 7.33004 38.1862 9.74188 38.1862C11.3597 38.1862 12.7721 37.3065 13.5267 35.9993C12.6532 36.4371 10.3824 37.1381 8.28621 36.4394C6.19003 35.7407 5.47189 34.4015 5.37485 33.8192Z" fill="#DDB64E"/>
<path d="M9.74188 29.4521C7.33004 29.4521 5.37485 31.4073 5.37485 33.8192C5.47189 34.4015 6.19003 35.7407 8.28621 36.4394C10.3824 37.1381 12.6532 36.4371 13.5267 35.9993C13.897 35.3577 14.1089 34.6132 14.1089 33.8192C14.1089 31.4073 12.1537 29.4521 9.74188 29.4521Z" fill="#FFD464"/>
<path d="M90.8049 47.0423C89.47 49.051 90.0164 51.7616 92.0251 53.0964C93.3726 53.9918 95.0358 54.0408 96.3877 53.3697C95.418 53.2509 93.1387 52.578 91.7795 50.8359C90.4203 49.0938 90.5634 47.5809 90.8049 47.0423Z" fill="#B0183D"/>
<path d="M96.859 45.822C94.8502 44.4871 92.1397 45.0335 90.8049 47.0423C90.5634 47.5809 90.4203 49.0938 91.7795 50.8359C93.1387 52.578 95.418 53.2509 96.3877 53.3697C97.0513 53.0403 97.6398 52.5375 98.0793 51.8761C99.4141 49.8674 98.8678 47.1568 96.859 45.822Z" fill="#FF5E5E"/>
<circle cx="93.2234" cy="35.6472" r="7.21069" fill="#FFD464"/>
<circle cx="93.2234" cy="35.6473" r="5.78886" fill="#DDB64E"/>
<circle cx="93.3249" cy="35.7487" r="4.87483" fill="#FFD464"/>
<path d="M95.9486 37.0169C95.9665 37.3605 95.8895 37.6818 95.7177 37.9808C95.5517 38.2735 95.2954 38.5165 94.9488 38.7098C94.6084 38.9028 94.1915 39.0212 93.6982 39.0651L93.7358 39.7883L93.1662 39.818L93.1276 39.0766C92.4615 39.0509 91.9085 38.8772 91.4687 38.5556C91.035 38.2337 90.7906 37.778 90.7358 37.1886L92.6253 37.0902C92.6655 37.3964 92.8086 37.5914 93.0547 37.6753L92.9944 36.518C92.4809 36.4057 92.0765 36.2999 91.7813 36.2004C91.4857 36.0949 91.2165 35.9155 90.9736 35.6623C90.7368 35.4087 90.6065 35.0528 90.5826 34.5948C90.5628 34.215 90.6452 33.8814 90.8297 33.5938C91.0198 33.2998 91.2858 33.0684 91.6275 32.8995C91.969 32.7246 92.356 32.6138 92.7888 32.5671L92.7506 31.8348L93.3202 31.8051L93.3583 32.5374C94.0299 32.5508 94.5703 32.7161 94.9797 33.0332C95.3951 33.35 95.6392 33.8027 95.7122 34.3912L93.8045 34.4905C93.766 34.2145 93.6419 34.0366 93.4322 33.9569L93.492 35.1051L93.7218 35.1656C94.162 35.2636 94.5273 35.3715 94.8175 35.4894C95.1134 35.6009 95.3705 35.7809 95.5889 36.0294C95.807 36.2719 95.9269 36.6011 95.9486 37.0169ZM92.4679 34.415C92.4792 34.632 92.6271 34.8026 92.9116 34.9268L92.8598 33.9323C92.5851 33.9949 92.4545 34.1558 92.4679 34.415ZM93.6266 37.6908C93.7697 37.6531 93.8813 37.5899 93.9612 37.5012C94.0409 37.4063 94.0773 37.2926 94.0704 37.16C94.0594 36.9491 93.8938 36.7855 93.5734 36.6692L93.6266 37.6908Z" fill="#DDB64E"/>
<circle cx="10.187" cy="78.0182" r="4.8938" transform="rotate(-21.6368 10.187 78.0182)" fill="#FFD464"/>
<circle cx="10.187" cy="78.0182" r="3.92882" transform="rotate(-21.6368 10.187 78.0182)" fill="#DDB64E"/>
<circle cx="10.2764" cy="78.0569" r="3.30848" transform="rotate(-21.6368 10.2764 78.0569)" fill="#FFD464"/>
<path d="M12.3377 78.3941C12.435 78.6063 12.4669 78.8283 12.4333 79.0599C12.4018 79.2861 12.3009 79.5036 12.1307 79.7122C11.9642 79.9192 11.7308 80.0982 11.4306 80.2493L11.6353 80.6962L11.2834 80.8574L11.0735 80.3994C10.6468 80.5498 10.2545 80.5786 9.8966 80.4858C9.54239 80.3913 9.27423 80.165 9.09212 79.8068L10.2596 79.2719C10.3615 79.455 10.5006 79.5422 10.6768 79.5336L10.3492 78.8186C9.99717 78.8763 9.71556 78.9107 9.5044 78.9218C9.29152 78.9292 9.07679 78.8834 8.86021 78.7844C8.64735 78.6837 8.47608 78.4918 8.3464 78.2088C8.2389 77.9742 8.20736 77.7431 8.25176 77.5155C8.29818 77.2825 8.40805 77.0699 8.58138 76.8778C8.75301 76.6821 8.96947 76.5153 9.23077 76.3775L9.02345 75.9251L9.37536 75.7638L9.58268 76.2163C10.0097 76.0567 10.392 76.0257 10.7296 76.1233C11.0709 76.2193 11.3382 76.4437 11.5315 76.7967L10.3529 77.3368C10.2595 77.1723 10.1367 77.0911 9.9845 77.0933L10.3095 77.8027L10.4697 77.7834C10.7719 77.735 11.0293 77.7117 11.2419 77.7134C11.4565 77.7097 11.6638 77.7589 11.8637 77.8611C12.062 77.9594 12.22 78.1371 12.3377 78.3941ZM9.49082 77.6236C9.55224 77.7577 9.68823 77.8283 9.89877 77.8355L9.61724 77.221C9.45959 77.3293 9.41745 77.4635 9.49082 77.6236ZM11.0415 79.4003C11.1224 79.3407 11.1769 79.2729 11.2052 79.1969C11.2317 79.1171 11.2262 79.0363 11.1887 78.9544C11.129 78.824 10.9835 78.7622 10.7523 78.769L11.0415 79.4003Z" fill="#DDB64E"/>
<circle cx="14.8226" cy="14.3226" r="8.84179" transform="rotate(-21.6368 14.8226 14.3226)" fill="#FFD464"/>
<circle cx="14.8227" cy="14.3226" r="7.09834" transform="rotate(-21.6368 14.8227 14.3226)" fill="#DDB64E"/>
<circle cx="14.9843" cy="14.3924" r="5.97755" transform="rotate(-21.6368 14.9843 14.3924)" fill="#FFD464"/>
<path d="M18.439 14.4134C18.6147 14.7969 18.6722 15.1979 18.6116 15.6164C18.5547 16.0251 18.3724 16.418 18.0649 16.795C17.764 17.1689 17.3424 17.4923 16.7999 17.7653L17.1699 18.5727L16.5341 18.864L16.1549 18.0364C15.384 18.3083 14.6752 18.3603 14.0285 18.1926C13.3885 18.0218 12.904 17.6129 12.575 16.9659L14.6843 15.9994C14.8684 16.3302 15.1197 16.4878 15.4381 16.4721L14.8462 15.1803C14.2102 15.2846 13.7014 15.3467 13.3199 15.3669C12.9352 15.3803 12.5473 15.2975 12.156 15.1186C11.7714 14.9367 11.462 14.59 11.2277 14.0787C11.0334 13.6548 10.9764 13.2372 11.0567 12.826C11.1405 12.405 11.339 12.021 11.6522 11.674C11.9623 11.3202 12.3534 11.0189 12.8255 10.77L12.4509 9.95257L13.0867 9.66125L13.4613 10.4787C14.2328 10.1904 14.9235 10.1344 15.5335 10.3108C16.1502 10.4841 16.6331 10.8896 16.9823 11.5274L14.8529 12.5031C14.6841 12.2059 14.4623 12.0593 14.1873 12.0632L14.7746 13.3449L15.0639 13.31C15.6099 13.2226 16.075 13.1805 16.459 13.1836C16.8467 13.177 17.2212 13.2659 17.5825 13.4504C17.9408 13.6281 18.2263 13.9491 18.439 14.4134ZM13.2953 13.0214C13.4063 13.2636 13.652 13.3912 14.0324 13.4041L13.5237 12.294C13.2389 12.4896 13.1628 12.7321 13.2953 13.0214ZM16.0971 16.2313C16.2431 16.1237 16.3417 16.0012 16.3927 15.8638C16.4407 15.7197 16.4307 15.5737 16.3629 15.4257C16.255 15.1902 15.9922 15.0786 15.5745 15.0909L16.0971 16.2313Z" fill="#DDB64E"/>
</svg>
