<svg width="83" height="82" viewBox="0 0 83 82" fill="none" xmlns="http://www.w3.org/2000/svg">
<g opacity="0.75">
<ellipse cx="27.2752" cy="3.55763" rx="27.2752" ry="3.55763" transform="matrix(-1 0 0 1 66.3477 74.3947)" fill="#B0183D"/>
<ellipse cx="27.2752" cy="3.55763" rx="27.2752" ry="3.55763" transform="matrix(-1 0 0 1 66.3477 74.3947)" fill="black" fill-opacity="0.2"/>
</g>
<ellipse cx="7.09721" cy="7.07611" rx="7.09721" ry="7.07611" transform="matrix(-0.976633 -0.21492 -0.218632 0.975809 78.364 54.0145)" fill="#FFD464"/>
<ellipse cx="5.69776" cy="5.68082" rx="5.69776" ry="5.68082" transform="matrix(-0.976633 -0.21492 -0.218632 0.975809 76.6923 55.0752)" fill="#DDB64E"/>
<ellipse cx="4.79812" cy="4.78385" rx="4.79812" ry="4.78385" transform="matrix(-0.976633 -0.21492 -0.218632 0.975809 75.498 55.8327)" fill="#FFD464"/>
<path d="M66.9408 60.3196C66.85 60.6444 66.8548 60.9678 66.9551 61.2899C67.0514 61.6047 67.2446 61.891 67.5349 62.1488C67.8194 62.405 68.1931 62.606 68.6559 62.7517L68.4648 63.4354L69.0037 63.5837L69.1995 62.8829C69.8427 62.9985 70.4093 62.9488 70.8992 62.7339C71.3835 62.5174 71.715 62.1331 71.8939 61.5811L70.1062 61.0893C70.0022 61.3735 69.8234 61.5299 69.5698 61.5583L69.8756 60.4644C70.3912 60.4652 70.801 60.449 71.105 60.4161C71.4105 60.3775 71.7067 60.2626 71.9935 60.0715C72.2745 59.8789 72.4756 59.5661 72.5966 59.1331C72.6969 58.7742 72.6896 58.4378 72.5747 58.1239C72.4557 57.8028 72.2507 57.5256 71.9598 57.2921C71.6705 57.053 71.3237 56.8656 70.9195 56.7299L71.113 56.0376L70.5741 55.8894L70.3806 56.5816C69.7349 56.453 69.1822 56.4973 68.7223 56.7144C68.2568 56.9299 67.926 57.3113 67.7301 57.8587L69.5348 58.3552C69.6309 58.0994 69.7878 57.9554 70.0056 57.9233L69.7022 59.0086L69.4693 59.0182C69.0268 59.0192 68.6541 59.0455 68.3511 59.0971C68.0439 59.1414 67.7592 59.2594 67.4968 59.451C67.236 59.637 67.0507 59.9265 66.9408 60.3196ZM70.8304 58.5644C70.7731 58.7695 70.595 58.9015 70.296 58.9603L70.5588 58.0203C70.8084 58.138 70.8989 58.3194 70.8304 58.5644ZM69.019 61.4528C68.8901 61.3866 68.7969 61.3027 68.7394 61.201C68.6834 61.0935 68.673 60.9772 68.708 60.8518C68.7637 60.6524 68.9574 60.5308 69.2889 60.4871L69.019 61.4528Z" fill="#DDB64E"/>
<ellipse opacity="0.2" cx="7.05535" cy="7.06247" rx="7.05535" ry="7.06247" transform="matrix(-1.00051 0.00109889 -0.00108561 0.999489 77.4445 52.3274)" fill="black"/>
<ellipse cx="5.4906" cy="5.47304" rx="5.4906" ry="5.47304" transform="matrix(-0.980384 0.197105 0.20061 0.979673 80.7307 45.2125)" fill="#FFD464"/>
<ellipse cx="4.40794" cy="4.39385" rx="4.40794" ry="4.39385" transform="matrix(-0.980384 0.197105 0.20061 0.979673 79.8858 46.4832)" fill="#DDB64E"/>
<ellipse cx="3.71195" cy="3.70009" rx="3.71195" ry="3.70009" transform="matrix(-0.980384 0.197105 0.20061 0.979673 79.2822 47.3907)" fill="#FFD464"/>
<path d="M74.5504 52.5021C74.5893 52.76 74.6953 52.9871 74.8684 53.1835C75.0363 53.3761 75.2637 53.5182 75.5506 53.61C75.8329 53.7024 76.1607 53.728 76.534 53.6867L76.6159 54.2296L77.0436 54.1664L76.9597 53.61C77.4508 53.4912 77.8354 53.2795 78.1134 52.9749C78.3868 52.6709 78.4992 52.2959 78.4504 51.8499L77.0312 52.0595C77.0479 52.2928 76.9712 52.4591 76.801 52.5582L76.67 51.6897C77.0345 51.5295 77.319 51.3903 77.5233 51.2723C77.727 51.1497 77.8998 50.9762 78.0418 50.7518C78.1792 50.528 78.222 50.2442 78.1702 49.9004C78.1272 49.6154 78.0153 49.3799 77.8345 49.1939C77.6485 49.004 77.4157 48.8719 77.1361 48.7976C76.8558 48.7187 76.5513 48.6943 76.2226 48.7244L76.1397 48.1747L75.7119 48.2379L75.7948 48.7875C75.2978 48.8979 74.9213 49.1015 74.6653 49.3983C74.4047 49.6958 74.292 50.0685 74.3272 50.5165L75.76 50.3049C75.7467 50.0941 75.8119 49.9435 75.9556 49.8529L76.0856 50.7146L75.924 50.794C75.6117 50.9326 75.3567 51.0674 75.159 51.1983C74.956 51.3254 74.7922 51.4976 74.6677 51.7148C74.5424 51.9276 74.5033 52.19 74.5504 52.5021ZM76.7418 50.0489C76.7663 50.2118 76.6824 50.3606 76.4898 50.4954L76.3772 49.749C76.5909 49.7544 76.7124 49.8544 76.7418 50.0489ZM76.3784 52.6553C76.2663 52.6487 76.1738 52.6185 76.1009 52.5645C76.0273 52.506 75.9829 52.427 75.9679 52.3275C75.944 52.1691 76.0423 52.0228 76.2627 51.8886L76.3784 52.6553Z" fill="#DDB64E"/>
<path d="M15.5132 42.7815C21.1182 44.9827 22.2506 49.831 22.1162 51.98C22.2494 52.4669 22.4831 53.4201 22.7588 54.7223C22.4796 54.8121 21.9475 54.8926 21.2422 54.8508C20.4819 54.8059 19.5204 54.6189 18.4575 54.1486C16.4084 53.242 15.4063 52.0377 15.1613 51.5489L14.638 57.862L10.4224 52.5124L10.1391 59.0933C10.0252 58.9768 9.83516 58.8302 9.61085 58.6572C9.07542 58.2441 8.3445 57.6803 7.98601 57.0145C7.47836 56.0718 6.78588 54.2303 6.68346 53.2856C7.10827 51.8503 7.5331 50.4939 7.77451 49.235C8.54396 45.2225 6.26127 42.2842 5.02374 41.3167C6.18478 40.8878 9.90813 40.5802 15.5132 42.7815Z" fill="#FCEDD8"/>
<path fill-rule="evenodd" clip-rule="evenodd" d="M21.2422 54.8508C19.8214 58.6622 16.9156 67.0362 16.6583 70.0412C16.4009 73.0461 18.4811 74.0913 19.5534 74.2382C15.2596 74.0504 10.9978 72.4184 7.75578 67.7497C4.14819 62.5546 5.41575 57.5687 6.68346 53.2856C6.78588 54.2303 7.47836 56.0718 7.98601 57.0145C8.3445 57.6803 9.07542 58.2441 9.61085 58.6572C9.83516 58.8302 10.0252 58.9768 10.1391 59.0933L10.4224 52.5124L14.638 57.862L15.1613 51.5489C15.4063 52.0377 16.4084 53.242 18.4575 54.1486C19.5204 54.6189 20.4819 54.8059 21.2422 54.8508Z" fill="#FF5E5E"/>
<path d="M23.7173 59.9628C24.4906 64.9205 31.7973 72.4257 25.7186 73.6725C23.7314 74.0801 21.6386 74.3295 19.5534 74.2382C18.4811 74.0913 16.4009 73.0461 16.6583 70.0412C16.9156 67.0362 19.8214 58.6622 21.2422 54.8508C21.9475 54.8926 22.4796 54.8121 22.7588 54.7223C23.054 56.1169 23.3974 57.9118 23.7173 59.9628Z" fill="#E64B4B"/>
<path d="M53.5689 50.1456C53.6109 49.8052 53.6569 49.391 53.6978 48.9532C53.7001 48.9285 53.7024 48.9036 53.7046 48.8787C53.5428 48.6833 52.1886 47.8097 48.6099 46.8657C45.0311 45.9216 40.7068 44.5338 38.992 43.9579C41.12 44.7651 45.9493 46.7135 48.4895 48.1396C48.5302 48.1624 48.5703 48.1851 48.6098 48.2077C49.0967 48.4859 49.5187 48.7425 49.8968 48.9724C51.3725 49.8697 52.1801 50.3607 53.5689 50.1456Z" fill="#E6CEAC"/>
<path d="M61.6485 47.0967C61.1557 47.2087 60.038 47.1467 58.4513 46.1947C56.7535 45.176 54.1535 42.9974 52.4123 41.7132C52.7851 42.7597 53.5754 45.0763 53.7543 45.971C53.8698 46.5485 53.8051 47.7785 53.7046 48.8787C53.7024 48.9036 53.7001 48.9285 53.6978 48.9532C53.6569 49.391 53.6109 49.8052 53.5689 50.1456C54.1129 50.0613 54.7461 49.8687 55.5436 49.5497C56.2951 49.2491 57.0242 48.9373 57.7384 48.6318C58.2054 48.4321 58.666 48.2351 59.1223 48.0457C59.9747 47.692 60.8121 47.365 61.6485 47.0967Z" fill="#FF5E5E"/>
<path d="M69.4112 48.2077C70.0822 49.1024 70.3059 50.4444 69.6348 50.6681C69.098 50.847 68.8147 50.7426 68.7402 50.6681C68.8893 50.8172 69.0533 51.1601 68.5165 51.3391C67.8455 51.5627 67.1745 49.326 65.8324 49.326C64.974 49.326 62.7428 51.2479 60.017 53.2183C60.8371 53.7549 63.0589 54.667 65.3851 54.0231C66.6122 53.6835 68.3573 52.3955 70.0822 51.037L71.1089 47.1811C70.6858 47.3969 70.3374 47.5367 70.0822 47.5367C69.1875 47.5367 68.6656 47.2996 68.5165 47.1811C68.9035 47.4988 69.1573 47.8692 69.4112 48.2077Z" fill="#FF5E5E"/>
<path d="M69.6348 50.6681C70.3059 50.4444 70.0822 49.1024 69.4112 48.2077C69.1573 47.8692 68.9035 47.4988 68.5165 47.1811C67.8804 46.6589 66.8846 46.2793 64.9378 46.4183C63.877 46.4941 62.8419 46.7239 61.8064 47.0468C61.7641 47.0653 61.7114 47.0824 61.6485 47.0967C60.8121 47.365 59.9747 47.692 59.1223 48.0457L56.8856 55.2993C57.9667 54.6595 59.0246 53.9357 60.017 53.2183C62.7428 51.2479 64.974 49.326 65.8324 49.326C67.1745 49.326 67.8455 51.5627 68.5165 51.3391C69.0533 51.1601 68.8893 50.8172 68.7402 50.6681C68.8147 50.7426 69.098 50.847 69.6348 50.6681Z" fill="#B0183D"/>
<path d="M75.6739 47.313C77.2396 47.5367 77.016 50.6681 78.358 50.2207C79.4316 49.8629 79.5509 49.1769 79.4763 48.8787C79.7 49.1024 80.1921 49.4155 80.371 48.8787C80.5947 48.2077 80.371 44.8526 77.2396 44.8526C74.8229 44.8526 72.5394 46.4514 71.1089 47.1811L70.0822 51.037C72.4445 49.1766 74.769 47.1837 75.6739 47.313Z" fill="#B0183D"/>
<path d="M55.0962 56.2598C51.3386 58.0492 43.3908 57.1545 39.8866 56.4835C41.9564 57.08 46.856 58.3176 49.8968 58.4965C52.9376 58.6755 56.339 58.1968 57.6596 57.9351C57.414 56.8392 57.1099 55.8855 56.8856 55.2993C56.2938 55.6496 55.695 55.9747 55.0962 56.2598Z" fill="#CC4B4B"/>
<path fill-rule="evenodd" clip-rule="evenodd" d="M52.4123 41.7132C51.8596 41.3057 51.3935 40.9882 51.0702 40.8266C50.6228 41.1248 49.0572 41.9002 46.3732 42.6159C43.6891 43.3317 33.7731 42.0195 29.1505 41.2739C30.0452 41.6318 29.9706 43.2124 29.8215 43.9579C29.8215 44.3269 29.762 44.6982 29.6527 45.0763C30.6782 45.6393 33.6239 47.0214 37.2027 48.0457C40.7814 49.07 46.2184 48.5351 48.4895 48.1396C45.9493 46.7135 41.12 44.7651 38.992 43.9579C40.7068 44.5338 45.0311 45.9216 48.6099 46.8657C52.1886 47.8097 53.5428 48.6833 53.7046 48.8787C53.8051 47.7785 53.8698 46.5485 53.7543 45.971C53.5754 45.0763 52.7851 42.7597 52.4123 41.7132Z" fill="#FFF4D8"/>
<path d="M51.0702 40.8266C49.9965 40.2897 49.4299 40.1555 49.2808 40.1555L47.9389 39.2609C41.3033 39.7828 28.2559 40.916 29.1505 41.2739C33.7731 42.0195 43.6891 43.3317 46.3732 42.6159C49.0572 41.9002 50.6228 41.1248 51.0702 40.8266Z" fill="#E6CEAC"/>
<path fill-rule="evenodd" clip-rule="evenodd" d="M53.5689 50.1456C54.1129 50.0613 54.7461 49.8687 55.5436 49.5497C56.2951 49.2491 57.0242 48.9373 57.7384 48.6318C58.2054 48.4321 58.666 48.2351 59.1223 48.0457L56.8856 55.2993C56.2938 55.6496 55.695 55.9747 55.0962 56.2598C51.3386 58.0492 43.3908 57.1545 39.8866 56.4835C41.9564 57.08 46.856 58.3176 49.8968 58.4965C52.9376 58.6755 56.339 58.1968 57.6596 57.9351C57.9854 59.3894 58.208 61.094 58.0039 62.5226C57.7888 64.0286 58.1322 64.8017 58.3572 65.3084C58.5065 65.6446 58.6843 65.8635 58.5319 66.1013C58.8183 66.5108 60.017 68.3686 60.017 69.0091C60.017 71.4694 58.2276 74.8245 54.2015 76.1665C51.2216 77.1598 46.7357 76.1875 45.6678 75.446C45.6223 75.3741 45.5553 75.3158 45.4784 75.2718C45.5174 75.3276 45.5814 75.3861 45.6678 75.446C45.9309 75.8619 45.4793 76.7355 42.1233 77.9559C39.1983 79.0195 34.5348 78.7396 30.7162 78.0088C29.5979 73.7414 27.4059 64.312 27.5848 60.7332C27.7638 57.1545 29.038 48.8041 29.6527 45.0763C30.6782 45.6393 33.6239 47.0214 37.2027 48.0457C40.7814 49.07 46.2184 48.5351 48.4895 48.1396C48.5302 48.1624 48.5703 48.1851 48.6098 48.2077C49.0967 48.4859 49.5187 48.7425 49.8968 48.9724C51.3725 49.8697 52.1801 50.3607 53.5689 50.1456Z" fill="#FF5E5E"/>
<path d="M21.7693 59.3912C21.3489 60.7672 21.0917 62.117 20.9666 63.4173C20.8375 64.7587 20.849 66.0473 20.9666 67.2574C21.4023 71.739 23.2945 75.1444 24.9007 76.1665C25.8986 76.8015 28.1107 77.5102 30.7162 78.0088C29.5979 73.7414 27.4059 64.312 27.5848 60.7332C27.7638 57.1545 29.038 48.8041 29.6527 45.0763C29.265 46.4176 28.2497 47.8443 27.0334 49.5533C25.2668 52.0358 23.0763 55.1139 21.7693 59.3912Z" fill="#F45151"/>
<path fill-rule="evenodd" clip-rule="evenodd" d="M32.2819 12.644C31.5662 13.7176 27.8085 15.9245 26.0191 16.8937C24.9753 16.5209 23.3884 15.1534 19.98 14.657C16.9087 14.2097 8.57287 14.2097 6.78351 16.2227C10.5859 19.5778 11.2626 23.9219 15.283 27.4062C18.6381 30.314 19.7564 30.0903 19.98 30.985C20.1428 31.636 20.651 31.4323 20.651 34.1164C23.857 32.2524 33.1319 26.7352 39.2158 25.8406C45.2996 24.9459 48.1626 27.9281 49.5046 28.7483C48.3862 27.4062 46.239 24.0512 46.5969 21.3671C46.9548 18.6831 48.9869 17.863 49.9582 17.7884C49.5595 17.1217 49.0543 16.4434 48.3862 15.7754C47.0925 14.4816 45.7987 13.6842 44.5838 13.1623C43.3582 12.6358 42.2129 12.3897 41.2288 12.1972C41.1377 12.1793 41.0479 12.162 40.9597 12.1449C40.6589 12.0867 40.375 12.0318 40.1104 11.973C39.4408 11.8242 38.6448 11.5671 37.8737 11.2853C36.7903 10.8895 35.7559 10.4449 35.1896 10.1836C35.2642 10.2582 35.3238 10.5415 34.966 11.0783C34.6081 11.6151 33.7731 11.8984 33.4003 11.973V10.1836C33.3257 10.5564 32.9977 11.5704 32.2819 12.644ZM19.0854 17.7884C17.8329 17.2516 13.1209 16.4464 11.4806 16.6701C11.6297 17.6393 13.27 20.9198 14.1646 21.8145C15.0593 22.7092 17.2215 24.8713 18.1907 25.6169C17.8179 24.7222 17.1618 22.3513 17.5197 21.8145C17.967 21.1435 20.2037 21.1435 19.98 20.6961C19.8011 20.3383 18.2652 20.547 17.5197 20.6961C17.6688 20.2488 18.3696 19.3541 19.98 19.3541H22.2168C21.6949 19.0559 20.3379 18.3252 19.0854 17.7884Z" fill="#FF5E5E"/>
<path d="M11.4806 16.6701C13.1209 16.4464 17.8329 17.2516 19.0854 17.7884C20.3379 18.3252 21.6949 19.0559 22.2168 19.3541H19.98C18.3696 19.3541 17.6688 20.2488 17.5197 20.6961C18.2652 20.547 19.8011 20.3383 19.98 20.6961C20.2037 21.1435 17.967 21.1435 17.5197 21.8145C17.1618 22.3513 17.8179 24.7222 18.1907 25.6169C17.2215 24.8713 15.0593 22.7092 14.1646 21.8145C13.27 20.9198 11.6297 17.6393 11.4806 16.6701Z" fill="#FFF4D8"/>
<path d="M54.4254 19.3541C54.2017 20.0251 54.4254 21.3671 52.8597 21.3671C51.1001 21.3671 51.4285 20.2467 49.9582 17.7884C48.9869 17.863 46.9548 18.6831 46.5969 21.3671C46.239 24.0512 48.3862 27.4062 49.5046 28.7483C48.1626 27.9281 45.2996 24.9459 39.2158 25.8406C33.1319 26.7352 23.857 32.2524 20.651 34.1164C20.651 36.0866 18.1907 36.5767 16.1777 36.5767C17.5197 37.0241 18.8988 37.87 20.651 38.8135C23.5588 40.3791 24.0061 40.1555 27.1375 41.4975C30.2689 42.8395 40.5391 43.6928 45.4785 41.4975C51.5176 38.8135 53.7543 36.1294 55.5437 32.7743C57.333 29.4193 56.8857 26.5116 56.2147 24.7222C55.6779 23.2907 54.649 20.2488 54.4254 19.3541Z" fill="#FFF4D8"/>
<path fill-rule="evenodd" clip-rule="evenodd" d="M36.7554 7.9469C36.7554 9.55733 37.5009 10.8435 37.8737 11.2853C38.4626 11.1719 39.74 10.9969 40.9562 11.0165C40.7571 10.0218 40.5578 8.69413 40.5578 7.49956C40.5578 5.7102 40.856 4.51729 41.0051 4.1445C41.3779 4.51729 42.2577 5.57599 42.7945 6.82855C43.3313 8.08111 43.3164 9.13981 43.2418 9.5126C43.1673 9.43804 42.9287 9.28893 42.5708 9.28893C42.2129 9.28893 41.9744 9.73627 41.8998 9.95994C42.0489 9.43804 42.3919 8.39425 42.5708 8.39425C42.7945 8.39425 41.8998 7.72323 41.6761 9.06526C41.4972 10.1389 41.6016 10.7055 41.6761 10.8546L41.6116 11.0482C41.7092 11.0565 41.8054 11.0665 41.8998 11.0783C43.3313 11.2572 44.2661 11.7816 44.5546 12.0214C44.4611 10.0186 44.1221 6.94656 43.2418 5.03919C42.1682 2.71301 40.1104 0.938557 39.2158 0.342102C38.3956 2.20602 36.7554 6.33648 36.7554 7.9469Z" fill="#FF5E5E"/>
<path d="M37.8737 11.2853C38.6448 11.5671 39.4408 11.8242 40.1104 11.973C40.375 12.0318 40.6589 12.0867 40.9597 12.1449C41.0479 12.162 41.1377 12.1793 41.2288 12.1972C41.1544 11.9245 41.0554 11.5118 40.9562 11.0165C39.74 10.9969 38.4626 11.1719 37.8737 11.2853Z" fill="#FF5E5E"/>
<path d="M37.8737 11.2853C38.6448 11.5671 39.4408 11.8242 40.1104 11.973C40.375 12.0318 40.6589 12.0867 40.9597 12.1449C41.0479 12.162 41.1377 12.1793 41.2288 12.1972C41.1544 11.9245 41.0554 11.5118 40.9562 11.0165C39.74 10.9969 38.4626 11.1719 37.8737 11.2853Z" fill="black" fill-opacity="0.2"/>
<path d="M41.2288 12.1972C42.2129 12.3897 43.3582 12.6358 44.5838 13.1623C44.5838 12.8493 44.5751 12.4611 44.5546 12.0214C44.2661 11.7816 43.3313 11.2572 41.8998 11.0783C41.8054 11.0665 41.7092 11.0565 41.6116 11.0482L41.2288 12.1972Z" fill="#FF5E5E"/>
<path d="M41.2288 12.1972C42.2129 12.3897 43.3582 12.6358 44.5838 13.1623C44.5838 12.8493 44.5751 12.4611 44.5546 12.0214C44.2661 11.7816 43.3313 11.2572 41.8998 11.0783C41.8054 11.0665 41.7092 11.0565 41.6116 11.0482L41.2288 12.1972Z" fill="black" fill-opacity="0.2"/>
<path fill-rule="evenodd" clip-rule="evenodd" d="M40.9562 11.0165C40.7571 10.0218 40.5578 8.69413 40.5578 7.49956C40.5578 5.7102 40.856 4.51729 41.0051 4.1445C41.3779 4.51729 42.2577 5.57599 42.7945 6.82855C43.3313 8.08111 43.3164 9.13981 43.2418 9.5126C43.1673 9.43804 42.9287 9.28893 42.5708 9.28893C42.2129 9.28893 41.9744 9.73627 41.8998 9.95994C42.0489 9.43804 42.3919 8.39425 42.5708 8.39425C42.7945 8.39425 41.8998 7.72323 41.6761 9.06526C41.4972 10.1389 41.6016 10.7055 41.6761 10.8546L41.6116 11.0482C41.3982 11.0301 41.1783 11.0201 40.9562 11.0165Z" fill="#FFF4D8"/>
<path d="M41.2288 12.1972L41.6116 11.0482C41.3982 11.0301 41.1783 11.0201 40.9562 11.0165C41.0554 11.5118 41.1544 11.9245 41.2288 12.1972Z" fill="#FCEDD8"/>
<path d="M41.2288 12.1972L41.6116 11.0482C41.3982 11.0301 41.1783 11.0201 40.9562 11.0165C41.0554 11.5118 41.1544 11.9245 41.2288 12.1972Z" fill="black" fill-opacity="0.2"/>
<path d="M42.6543 30.9316C42.0588 31.1776 41.7659 30.5423 41.5186 30.0546C41.4088 29.838 41.5 29.4953 41.7244 29.4026L42.0417 29.2716C42.2728 29.1761 42.6121 29.3682 42.7115 29.5976C42.9262 30.0931 43.2378 30.6906 42.6543 30.9316Z" stroke="#B0183D" stroke-width="1.2867"/>
<path d="M50.6052 24.9139C50.0907 25.1264 49.8066 24.6677 49.5805 24.2285C49.459 23.9926 49.6615 23.5732 49.9257 23.5483C50.1182 23.5302 50.3186 23.7037 50.4282 23.863C50.6916 24.2457 51.2242 24.6582 50.6052 24.9139Z" stroke="#B0183D" stroke-width="1.26115"/>
<path fill-rule="evenodd" clip-rule="evenodd" d="M49.4555 30.0187C49.5143 30.0302 49.5729 30.0375 49.631 30.0408C49.8453 30.064 50.3437 30.0655 50.6227 29.8865C50.9018 29.7076 50.9715 29.1996 50.9715 28.968C50.9764 28.9387 50.9802 28.9091 50.9831 28.8791L50.9715 27.9446C51.0784 26.8333 49.8162 26.1225 48.9214 26.79L47.5808 27.4602C46.686 28.1278 47.0076 29.5402 48.1033 29.7544L49.4555 30.0187Z" fill="#B0183D"/>
<path d="M46.5969 32.6334C47.4916 33.0062 49.4599 33.5728 50.1756 32.8571C50.8914 32.1413 50.3247 30.3221 49.952 29.502C50.5484 30.0985 51.8755 31.1124 52.4123 30.3967C52.9491 29.6809 52.7851 28.6073 52.636 28.16" stroke="#B0183D" stroke-width="1.28834" stroke-linecap="round" stroke-linejoin="round"/>
<path d="M53.5689 50.1456C53.6109 49.8052 53.6569 49.391 53.6978 48.9532C53.7001 48.9285 53.7024 48.9036 53.7046 48.8787C53.5428 48.6833 52.1886 47.8097 48.6099 46.8657C45.0311 45.9216 40.7068 44.5338 38.9919 43.9579C41.12 44.7651 45.9493 46.7135 48.4895 48.1396C48.5302 48.1624 48.5703 48.1851 48.6098 48.2077C49.0967 48.4859 49.5187 48.7425 49.8968 48.9724C51.3725 49.8697 52.1801 50.3607 53.5689 50.1456Z" fill="#E6CEAC"/>
<path d="M61.6485 47.0967C61.1557 47.2087 60.038 47.1467 58.4513 46.1947C56.7535 45.176 54.1535 42.9974 52.4123 41.7133C52.7851 42.7597 53.5754 45.0763 53.7543 45.971C53.8698 46.5485 53.8051 47.7785 53.7046 48.8787C53.7024 48.9036 53.7001 48.9285 53.6978 48.9532C53.6569 49.391 53.6109 49.8052 53.5689 50.1456C54.1129 50.0613 54.7461 49.8687 55.5436 49.5497C56.2951 49.2491 57.0242 48.9373 57.7384 48.6318C58.2054 48.4321 58.666 48.2351 59.1223 48.0457C59.9747 47.692 60.8121 47.365 61.6485 47.0967Z" fill="#FF5E5E"/>
<path d="M69.4112 48.2077C70.0822 49.1024 70.3059 50.4444 69.6348 50.6681C69.098 50.847 68.8147 50.7426 68.7402 50.6681C68.8893 50.8172 69.0533 51.1601 68.5165 51.3391C67.8455 51.5627 67.1745 49.326 65.8324 49.326C64.974 49.326 62.7428 51.2479 60.017 53.2183C60.8371 53.7549 63.0589 54.667 65.3851 54.0231C66.6122 53.6835 68.3573 52.3955 70.0822 51.037L71.1089 47.1811C70.6858 47.3969 70.3374 47.5367 70.0822 47.5367C69.1875 47.5367 68.6656 47.2996 68.5165 47.1811C68.9035 47.4988 69.1573 47.8692 69.4112 48.2077Z" fill="#FF5E5E"/>
<path d="M69.6348 50.6681C70.3059 50.4444 70.0822 49.1024 69.4112 48.2077C69.1573 47.8692 68.9035 47.4988 68.5165 47.1811C67.8804 46.6589 66.8846 46.2793 64.9378 46.4183C63.877 46.4941 62.8419 46.7239 61.8064 47.0468C61.7641 47.0653 61.7114 47.0824 61.6485 47.0967C60.8121 47.365 59.9747 47.692 59.1223 48.0457L56.8856 55.2993C57.9667 54.6595 59.0246 53.9357 60.017 53.2183C62.7428 51.2479 64.974 49.326 65.8324 49.326C67.1745 49.326 67.8455 51.5627 68.5165 51.3391C69.0533 51.1601 68.8893 50.8172 68.7402 50.6681C68.8147 50.7426 69.098 50.847 69.6348 50.6681Z" fill="#B0183D"/>
<path d="M69.6348 50.6681C70.3059 50.4444 70.0822 49.1024 69.4112 48.2077C69.1573 47.8692 68.9035 47.4988 68.5165 47.1811C67.8804 46.6589 66.8846 46.2793 64.9378 46.4183C63.877 46.4941 62.8419 46.7239 61.8064 47.0468C61.7641 47.0653 61.7114 47.0824 61.6485 47.0967C60.8121 47.365 59.9747 47.692 59.1223 48.0457L56.8856 55.2993C57.9667 54.6595 59.0246 53.9357 60.017 53.2183C62.7428 51.2479 64.974 49.326 65.8324 49.326C67.1745 49.326 67.8455 51.5627 68.5165 51.3391C69.0533 51.1601 68.8893 50.8172 68.7402 50.6681C68.8147 50.7426 69.098 50.847 69.6348 50.6681Z" fill="black" fill-opacity="0.2"/>
<path d="M75.674 47.313C77.2396 47.5367 77.016 50.6681 78.358 50.2207C79.4316 49.8629 79.5509 49.1769 79.4764 48.8787C79.7 49.1024 80.1921 49.4155 80.371 48.8787C80.5947 48.2077 80.371 44.8526 77.2396 44.8526C74.8229 44.8526 72.5394 46.4514 71.1089 47.1811L70.0822 51.037C72.4445 49.1766 74.769 47.1837 75.674 47.313Z" fill="#B0183D"/>
<path d="M75.674 47.313C77.2396 47.5367 77.016 50.6681 78.358 50.2207C79.4316 49.8629 79.5509 49.1769 79.4764 48.8787C79.7 49.1024 80.1921 49.4155 80.371 48.8787C80.5947 48.2077 80.371 44.8526 77.2396 44.8526C74.8229 44.8526 72.5394 46.4514 71.1089 47.1811L70.0822 51.037C72.4445 49.1766 74.769 47.1837 75.674 47.313Z" fill="black" fill-opacity="0.2"/>
<path d="M55.0962 56.2598C51.3386 58.0492 43.3908 57.1545 39.8866 56.4835C41.9564 57.08 46.856 58.3176 49.8968 58.4965C52.9376 58.6755 56.339 58.1968 57.6596 57.9351C57.414 56.8392 57.1099 55.8855 56.8856 55.2993C56.2938 55.6496 55.695 55.9747 55.0962 56.2598Z" fill="#CC4B4B"/>
<path d="M59.7039 17.8096C57.4962 19.6917 57.7426 22.6694 60.0206 25.3414C62.1513 27.8409 68.3316 31.1344 69.1213 31.5495C67.6994 30.1531 64.496 26.9339 62.0391 24.2204C59.5042 21.4209 59.4261 18.7801 59.7039 17.8096Z" fill="#B0183D"/>
<path d="M59.7039 17.8096C57.4962 19.6917 57.7426 22.6694 60.0206 25.3414C62.1513 27.8409 68.3316 31.1344 69.1213 31.5495C67.6994 30.1531 64.496 26.9339 62.0391 24.2204C59.5042 21.4209 59.4261 18.7801 59.7039 17.8096Z" fill="black" fill-opacity="0.2"/>
<path d="M69.4329 31.5255L69.5382 31.4943L69.6274 31.4679C69.6274 31.4679 73.4685 24.7037 73.923 21.222C74.3775 17.7402 72.962 15.109 70.0852 14.7335C68.1713 14.4836 66.3353 15.5147 65.1869 17.2582C63.2741 16.4218 61.1728 16.5574 59.7039 17.8096C59.4261 18.7801 59.5042 21.4209 62.0391 24.2204C64.496 26.9339 67.6994 30.1531 69.1213 31.5495C69.1758 31.5782 69.2047 31.5931 69.2047 31.5931L69.3331 31.5551L69.4329 31.5255Z" fill="#E23C64"/>
</svg>
