<svg width="390" height="407" viewBox="0 0 390 407" fill="none" xmlns="http://www.w3.org/2000/svg">
<mask id="mask0_32_5848" style="mask-type:alpha" maskUnits="userSpaceOnUse" x="0" y="0" width="390" height="407">
<rect width="390" height="407" fill="#D9D9D9"/>
</mask>
<g mask="url(#mask0_32_5848)">
<mask id="mask1_32_5848" style="mask-type:alpha" maskUnits="userSpaceOnUse" x="0" y="0" width="390" height="407">
<rect width="390" height="407" fill="#D9D9D9"/>
</mask>
<g mask="url(#mask1_32_5848)">
<path fill-rule="evenodd" clip-rule="evenodd" d="M464.633 -188C519.705 -136.864 553 -70.2928 553 2.5C553 163.767 389.584 294.5 188 294.5C-13.5839 294.5 -177 163.767 -177 2.5C-177 -73.6619 -140.552 -143.013 -80.848 -195C-32.5653 -175.333 94.2 -136.9 215 -140.5C335.8 -144.1 431.756 -173.667 464.633 -188Z" fill="#E23C64"/>
<path fill-rule="evenodd" clip-rule="evenodd" d="M464.633 -188C519.705 -136.864 553 -70.2928 553 2.5C553 163.767 389.584 294.5 188 294.5C-13.5839 294.5 -177 163.767 -177 2.5C-177 -73.6619 -140.552 -143.013 -80.848 -195C-32.5653 -175.333 94.2 -136.9 215 -140.5C335.8 -144.1 431.756 -173.667 464.633 -188Z" fill="black" fill-opacity="0.2"/>
<path d="M-80.848 -195C-14.1335 -253.091 -10 -315 188 -315C426.333 -315 397.698 -250.152 464.633 -188C431.756 -173.667 335.8 -144.1 215 -140.5C94.2 -136.9 -32.5653 -175.333 -80.848 -195Z" fill="#E23C64"/>
<path d="M-80.848 -195C-14.1335 -253.091 -10 -315 188 -315C426.333 -315 397.698 -250.152 464.633 -188C431.756 -173.667 335.8 -144.1 215 -140.5C94.2 -136.9 -32.5653 -175.333 -80.848 -195Z" fill="black" fill-opacity="0.2"/>
<ellipse cx="126" cy="221.5" rx="54" ry="5.5" fill="#B0183D"/>
<ellipse cx="126" cy="221.5" rx="54" ry="5.5" fill="black" fill-opacity="0.2"/>
<ellipse cx="254" cy="171.5" rx="54" ry="5.5" fill="#B0183D"/>
<ellipse cx="254" cy="171.5" rx="54" ry="5.5" fill="black" fill-opacity="0.2"/>
<ellipse cx="12.5174" cy="12.4801" rx="12.5174" ry="12.4801" transform="matrix(0.976633 -0.21492 0.218632 0.975809 195.919 127.662)" fill="#FFD464"/>
<ellipse cx="10.0491" cy="10.0193" rx="10.0491" ry="10.0193" transform="matrix(0.976633 -0.21492 0.218632 0.975809 198.867 129.533)" fill="#DDB64E"/>
<ellipse cx="8.46244" cy="8.43728" rx="8.46244" ry="8.43728" transform="matrix(0.976633 -0.21492 0.218632 0.975809 200.973 130.869)" fill="#FFD464"/>
<path d="M215.894 138.169C216.054 138.742 216.046 139.312 215.869 139.88C215.699 140.435 215.358 140.94 214.846 141.395C214.345 141.847 213.686 142.201 212.869 142.458L213.206 143.664L212.256 143.926L211.91 142.69C210.776 142.894 209.777 142.806 208.913 142.427C208.059 142.045 207.474 141.367 207.158 140.394L210.311 139.526C210.495 140.028 210.81 140.303 211.257 140.353L210.718 138.424C209.809 138.425 209.086 138.397 208.55 138.339C208.011 138.271 207.489 138.068 206.983 137.731C206.487 137.392 206.133 136.84 205.919 136.076C205.742 135.443 205.755 134.85 205.958 134.296C206.168 133.73 206.529 133.241 207.042 132.829C207.552 132.407 208.164 132.077 208.877 131.838L208.536 130.617L209.486 130.355L209.827 131.576C210.966 131.349 211.941 131.427 212.752 131.81C213.573 132.19 214.157 132.863 214.502 133.828L211.319 134.704C211.15 134.253 210.873 133.999 210.489 133.942L211.024 135.857L211.435 135.873C212.215 135.875 212.872 135.922 213.407 136.013C213.949 136.091 214.451 136.299 214.914 136.637C215.373 136.965 215.7 137.475 215.894 138.169ZM209.034 135.073C209.135 135.435 209.449 135.668 209.977 135.771L209.513 134.113C209.073 134.321 208.913 134.641 209.034 135.073ZM212.229 140.167C212.456 140.051 212.621 139.903 212.722 139.723C212.821 139.534 212.839 139.329 212.777 139.107C212.679 138.756 212.338 138.541 211.753 138.464L212.229 140.167Z" fill="#DDB64E"/>
<ellipse opacity="0.2" cx="12.4435" cy="12.4561" rx="12.4435" ry="12.4561" transform="matrix(1.00051 0.00109889 0.00108561 0.999489 197.54 124.687)" fill="black"/>
<ellipse cx="9.68377" cy="9.65281" rx="9.68377" ry="9.65281" transform="matrix(0.980384 0.197105 -0.20061 0.979673 191.745 112.138)" fill="#FFD464"/>
<ellipse cx="7.7743" cy="7.74944" rx="7.7743" ry="7.74944" transform="matrix(0.980384 0.197105 -0.20061 0.979673 193.235 114.379)" fill="#DDB64E"/>
<ellipse cx="6.54678" cy="6.52584" rx="6.54678" ry="6.52584" transform="matrix(0.980384 0.197105 -0.20061 0.979673 194.299 115.98)" fill="#FFD464"/>
<path d="M202.547 125.641C202.479 126.096 202.292 126.497 201.986 126.843C201.69 127.183 201.289 127.433 200.783 127.595C200.285 127.758 199.707 127.803 199.049 127.731L198.905 128.688L198.15 128.577L198.298 127.595C197.432 127.386 196.754 127.012 196.263 126.475C195.781 125.939 195.583 125.278 195.669 124.491L198.172 124.861C198.142 125.272 198.278 125.565 198.578 125.74L198.809 124.208C198.166 123.926 197.664 123.681 197.304 123.472C196.945 123.256 196.64 122.95 196.39 122.554C196.147 122.16 196.072 121.659 196.163 121.053C196.239 120.55 196.436 120.135 196.755 119.807C197.083 119.472 197.494 119.239 197.987 119.108C198.481 118.969 199.018 118.926 199.598 118.979L199.744 118.009L200.499 118.121L200.353 119.09C201.229 119.285 201.893 119.644 202.345 120.167C202.804 120.692 203.003 121.349 202.941 122.139L200.414 121.766C200.437 121.394 200.322 121.129 200.069 120.969L199.84 122.489L200.125 122.629C200.675 122.873 201.125 123.111 201.474 123.342C201.832 123.566 202.121 123.87 202.341 124.253C202.561 124.628 202.63 125.091 202.547 125.641ZM198.682 121.315C198.639 121.602 198.787 121.864 199.127 122.102L199.325 120.786C198.949 120.795 198.734 120.972 198.682 121.315ZM199.323 125.912C199.521 125.9 199.684 125.847 199.813 125.751C199.943 125.648 200.021 125.509 200.047 125.333C200.089 125.054 199.916 124.796 199.527 124.559L199.323 125.912Z" fill="#DDB64E"/>
<ellipse cx="9.68377" cy="9.65281" rx="9.68377" ry="9.65281" transform="matrix(0.980384 0.197105 -0.20061 0.979673 181.488 150.234)" fill="#FFD464"/>
<ellipse cx="7.7743" cy="7.74944" rx="7.7743" ry="7.74944" transform="matrix(0.980384 0.197105 -0.20061 0.979673 182.978 152.475)" fill="#DDB64E"/>
<ellipse cx="6.54678" cy="6.52584" rx="6.54678" ry="6.52584" transform="matrix(0.980384 0.197105 -0.20061 0.979673 184.043 154.076)" fill="#FFD464"/>
<path d="M192.29 163.738C192.222 164.192 192.035 164.593 191.73 164.939C191.434 165.279 191.033 165.53 190.527 165.692C190.029 165.855 189.45 165.9 188.792 165.827L188.648 166.784L187.893 166.673L188.041 165.692C187.175 165.482 186.497 165.109 186.007 164.571C185.524 164.035 185.326 163.374 185.412 162.587L187.915 162.957C187.886 163.369 188.021 163.662 188.321 163.837L188.552 162.305C187.909 162.022 187.408 161.777 187.047 161.569C186.688 161.352 186.383 161.046 186.133 160.651C185.89 160.256 185.815 159.755 185.906 159.149C185.982 158.646 186.18 158.231 186.498 157.903C186.826 157.568 187.237 157.335 187.73 157.204C188.225 157.065 188.762 157.022 189.341 157.075L189.487 156.105L190.242 156.217L190.096 157.186C190.972 157.381 191.636 157.74 192.088 158.263C192.547 158.788 192.746 159.445 192.684 160.236L190.157 159.862C190.181 159.491 190.066 159.225 189.812 159.065L189.583 160.585L189.868 160.725C190.419 160.97 190.868 161.207 191.217 161.438C191.575 161.662 191.864 161.966 192.084 162.349C192.305 162.724 192.374 163.187 192.29 163.738ZM188.426 159.411C188.382 159.698 188.53 159.961 188.87 160.198L189.069 158.882C188.692 158.892 188.477 159.068 188.426 159.411ZM189.067 164.008C189.264 163.996 189.427 163.943 189.556 163.848C189.686 163.745 189.764 163.605 189.79 163.43C189.833 163.15 189.659 162.892 189.271 162.656L189.067 164.008Z" fill="#DDB64E"/>
<path d="M306.769 107.85C296.883 111.733 294.886 120.284 295.123 124.074C294.888 124.933 294.476 126.614 293.99 128.91C294.482 129.069 295.42 129.211 296.664 129.137C298.005 129.058 299.701 128.728 301.576 127.899C305.19 126.3 306.957 124.176 307.389 123.314L308.312 134.448L315.747 125.013L316.247 136.62C316.448 136.414 316.783 136.156 317.179 135.85C318.123 135.122 319.412 134.127 320.044 132.953C320.94 131.29 322.161 128.043 322.342 126.376C321.592 123.845 320.843 121.453 320.417 119.232C319.06 112.156 323.086 106.973 325.269 105.267C323.221 104.51 316.654 103.968 306.769 107.85Z" fill="#FCEDD8"/>
<path fill-rule="evenodd" clip-rule="evenodd" d="M296.664 129.137C299.17 135.859 304.295 150.628 304.749 155.928C305.203 161.228 301.534 163.072 299.643 163.331C307.216 162.999 314.732 160.121 320.45 151.887C326.813 142.724 324.578 133.931 322.342 126.376C322.161 128.043 320.94 131.29 320.044 132.953C319.412 134.127 318.123 135.122 317.179 135.85C316.783 136.156 316.448 136.414 316.247 136.62L315.747 125.013L308.312 134.448L307.389 123.314C306.957 124.176 305.19 126.3 301.576 127.899C299.701 128.728 298.005 129.058 296.664 129.137Z" fill="#FF5E5E"/>
<path d="M292.299 138.153C290.935 146.897 278.048 160.134 288.769 162.333C292.274 163.052 295.965 163.492 299.643 163.331C301.534 163.072 305.203 161.228 304.749 155.928C304.295 150.628 299.17 135.859 296.664 129.137C295.42 129.211 294.482 129.069 293.99 128.91C293.469 131.37 292.863 134.536 292.299 138.153Z" fill="#E64B4B"/>
<path d="M239.65 120.838C239.576 120.238 239.494 119.508 239.422 118.735C239.418 118.692 239.414 118.648 239.41 118.604C239.696 118.259 242.084 116.719 248.396 115.054C254.708 113.389 262.335 110.941 265.359 109.925C261.606 111.349 253.088 114.785 248.608 117.3C248.537 117.341 248.466 117.381 248.396 117.421C247.537 117.911 246.793 118.364 246.126 118.769C243.523 120.352 242.099 121.218 239.65 120.838Z" fill="#E6CEAC"/>
<path d="M225.4 115.461C226.269 115.659 228.24 115.549 231.039 113.87C234.033 112.073 238.619 108.231 241.69 105.966C241.032 107.812 239.638 111.898 239.323 113.476C239.119 114.494 239.233 116.663 239.41 118.604C239.414 118.648 239.418 118.692 239.422 118.735C239.494 119.508 239.576 120.238 239.65 120.838C238.69 120.69 237.573 120.35 236.167 119.787C234.841 119.257 233.556 118.707 232.296 118.168C231.472 117.816 230.66 117.469 229.855 117.135C228.352 116.511 226.875 115.934 225.4 115.461Z" fill="#FF5E5E"/>
<path d="M211.709 117.421C210.525 118.998 210.131 121.365 211.314 121.76C212.261 122.075 212.761 121.891 212.892 121.76C212.629 122.023 212.34 122.628 213.287 122.943C214.47 123.338 215.654 119.393 218.021 119.393C219.535 119.393 223.47 122.782 228.277 126.258C226.831 127.204 222.912 128.813 218.809 127.677C216.645 127.078 213.567 124.807 210.525 122.411L208.714 115.61C209.461 115.99 210.075 116.237 210.525 116.237C212.103 116.237 213.024 115.819 213.287 115.61C212.604 116.17 212.156 116.824 211.709 117.421Z" fill="#FF5E5E"/>
<path d="M211.314 121.76C210.131 121.365 210.525 118.998 211.709 117.421C212.156 116.824 212.604 116.17 213.287 115.61C214.408 114.689 216.165 114.019 219.598 114.265C221.469 114.398 223.295 114.803 225.121 115.373C225.196 115.406 225.289 115.436 225.4 115.461C226.875 115.934 228.352 116.511 229.855 117.135L233.8 129.928C231.893 128.8 230.027 127.523 228.277 126.258C223.47 122.782 219.535 119.393 218.021 119.393C215.654 119.393 214.47 123.338 213.287 122.943C212.34 122.628 212.629 122.023 212.892 121.76C212.761 121.891 212.261 122.075 211.314 121.76Z" fill="#B0183D"/>
<path d="M200.663 115.843C197.902 116.237 198.296 121.76 195.929 120.971C194.036 120.34 193.825 119.13 193.957 118.604C193.562 118.998 192.694 119.551 192.379 118.604C191.984 117.421 192.379 111.503 197.902 111.503C202.164 111.503 206.191 114.323 208.714 115.61L210.525 122.411C206.359 119.129 202.259 115.615 200.663 115.843Z" fill="#B0183D"/>
<path d="M236.956 131.622C243.583 134.778 257.601 133.2 263.781 132.017C260.131 133.069 251.489 135.251 246.126 135.567C240.763 135.883 234.764 135.038 232.435 134.577C232.868 132.644 233.404 130.962 233.8 129.928C234.844 130.546 235.9 131.119 236.956 131.622Z" fill="#CC4B4B"/>
<path fill-rule="evenodd" clip-rule="evenodd" d="M241.69 105.966C242.664 105.247 243.487 104.688 244.057 104.402C244.846 104.928 247.607 106.296 252.341 107.558C257.075 108.821 274.564 106.506 282.716 105.191C281.138 105.823 281.27 108.61 281.533 109.925C281.533 110.576 281.638 111.231 281.831 111.898C280.022 112.891 274.827 115.328 268.515 117.135C262.203 118.941 252.614 117.998 248.608 117.3C253.088 114.785 261.606 111.349 265.359 109.925C262.335 110.941 254.708 113.389 248.396 115.054C242.084 116.719 239.696 118.259 239.41 118.604C239.233 116.663 239.119 114.494 239.323 113.476C239.638 111.898 241.032 107.812 241.69 105.966Z" fill="#FFF4D8"/>
<path d="M244.057 104.402C245.95 103.456 246.95 103.219 247.213 103.219L249.579 101.641C261.283 102.561 284.294 104.56 282.716 105.191C274.564 106.506 257.075 108.821 252.341 107.558C247.607 106.296 244.846 104.928 244.057 104.402Z" fill="#E6CEAC"/>
<path fill-rule="evenodd" clip-rule="evenodd" d="M239.65 120.838C238.69 120.69 237.573 120.35 236.167 119.787C234.841 119.257 233.556 118.707 232.296 118.168C231.472 117.816 230.66 117.469 229.855 117.135L233.8 129.928C234.844 130.546 235.9 131.119 236.956 131.622C243.583 134.778 257.601 133.2 263.781 132.017C260.131 133.069 251.489 135.251 246.126 135.567C240.763 135.883 234.764 135.038 232.435 134.577C231.86 137.142 231.468 140.148 231.828 142.668C232.207 145.324 231.602 146.687 231.205 147.581C230.941 148.174 230.77 148.56 231.039 148.98C230.533 149.702 228.277 152.978 228.277 154.108C228.277 158.447 231.433 164.365 238.534 166.732C243.79 168.483 251.701 166.769 253.585 165.461C253.665 165.334 253.783 165.231 253.919 165.154C253.85 165.252 253.737 165.355 253.585 165.461C253.121 166.194 253.917 167.735 259.836 169.887C264.995 171.763 273.22 171.27 279.955 169.981C281.927 162.454 285.793 145.824 285.478 139.512C285.162 133.2 282.915 118.472 281.831 111.898C280.022 112.891 274.827 115.328 268.515 117.135C262.203 118.941 252.614 117.998 248.608 117.3C248.537 117.341 248.466 117.381 248.396 117.421C247.537 117.911 246.793 118.364 246.126 118.769C243.523 120.352 242.099 121.218 239.65 120.838Z" fill="#FF5E5E"/>
<path d="M295.735 137.145C296.476 139.572 296.93 141.952 297.15 144.246C297.378 146.611 297.358 148.884 297.15 151.019C296.382 158.923 293.045 164.929 290.212 166.732C288.452 167.852 284.55 169.101 279.955 169.981C281.927 162.454 285.793 145.824 285.478 139.512C285.162 133.2 282.915 118.472 281.831 111.898C282.515 114.263 284.305 116.78 286.45 119.794C289.566 124.172 293.43 129.601 295.735 137.145Z" fill="#F45151"/>
<path fill-rule="evenodd" clip-rule="evenodd" d="M277.194 54.6968C278.456 56.5904 285.083 60.4827 288.239 62.1921C290.08 61.5346 292.879 59.1228 298.89 58.2472C304.307 57.4583 319.009 57.4583 322.165 61.0087C315.459 66.926 314.265 74.5877 307.175 80.7331C301.257 85.8614 299.285 85.4669 298.89 87.0449C298.603 88.193 297.707 87.8338 297.707 92.5677C292.053 89.2803 275.694 79.5496 264.964 77.9716C254.234 76.3937 249.185 81.6535 246.818 83.1C248.79 80.7331 252.577 74.8157 251.946 70.0819C251.315 65.348 247.731 63.9016 246.018 63.7701C246.721 62.5942 247.612 61.398 248.79 60.2197C251.072 57.9379 253.354 56.5315 255.497 55.611C257.658 54.6824 259.678 54.2483 261.414 53.9088C261.575 53.8774 261.733 53.8467 261.889 53.8166C262.419 53.714 262.92 53.6171 263.386 53.5134C264.567 53.2509 265.971 52.7975 267.331 52.3006C269.242 51.6024 271.067 50.8184 272.065 50.3575C271.934 50.489 271.829 50.9887 272.46 51.9354C273.091 52.8822 274.564 53.3819 275.221 53.5134V50.3575C275.353 51.015 275.931 52.8033 277.194 54.6968ZM300.468 63.7701C302.677 62.8233 310.988 61.4031 313.881 61.7976C313.618 63.5071 310.725 69.2929 309.147 70.8709C307.569 72.4488 303.756 76.2622 302.046 77.5772C302.704 75.9992 303.861 71.8176 303.23 70.8709C302.441 69.6874 298.496 69.6874 298.89 68.8984C299.206 68.2672 301.915 68.6354 303.23 68.8984C302.967 68.1094 301.731 66.5315 298.89 66.5315H294.945C295.866 66.0055 298.259 64.7168 300.468 63.7701Z" fill="#FF5E5E"/>
<path d="M313.881 61.7976C310.988 61.4031 302.677 62.8233 300.468 63.7701C298.259 64.7168 295.866 66.0055 294.945 66.5315H298.89C301.731 66.5315 302.967 68.1094 303.23 68.8984C301.915 68.6354 299.206 68.2672 298.89 68.8984C298.496 69.6874 302.441 69.6874 303.23 70.8709C303.861 71.8176 302.704 75.9992 302.046 77.5772C303.756 76.2622 307.569 72.4488 309.147 70.8709C310.725 69.2929 313.618 63.5071 313.881 61.7976Z" fill="#FFF4D8"/>
<path d="M238.139 66.5315C238.534 67.715 238.139 70.0819 240.901 70.0819C244.004 70.0819 243.425 68.1058 246.018 63.7701C247.731 63.9016 251.315 65.348 251.946 70.0819C252.577 74.8157 248.79 80.7331 246.818 83.1C249.185 81.6535 254.234 76.3937 264.964 77.9716C275.694 79.5496 292.053 89.2803 297.707 92.5677C297.707 96.0426 302.046 96.9071 305.597 96.9071C303.23 97.6961 300.797 99.1879 297.707 100.852C292.579 103.613 291.79 103.219 286.267 105.586C280.744 107.953 262.63 109.458 253.919 105.586C243.268 100.852 239.323 96.1181 236.167 90.2008C233.011 84.2835 233.8 79.1551 234.983 75.9992C235.93 73.4745 237.745 68.1094 238.139 66.5315Z" fill="#FFF4D8"/>
<path fill-rule="evenodd" clip-rule="evenodd" d="M269.304 46.4126C269.304 49.2529 267.989 51.5214 267.331 52.3006C266.293 52.1006 264.04 51.7918 261.895 51.8264C262.246 50.072 262.597 47.7305 262.597 45.6236C262.597 42.4677 262.071 40.3638 261.808 39.7063C261.151 40.3638 259.599 42.231 258.653 44.4402C257.706 46.6493 257.732 48.5165 257.864 49.174C257.995 49.0425 258.416 48.7795 259.047 48.7795C259.678 48.7795 260.099 49.5685 260.231 49.963C259.968 49.0425 259.363 47.2016 259.047 47.2016C258.653 47.2016 260.231 46.0181 260.625 48.385C260.941 50.2786 260.757 51.2779 260.625 51.5409L260.739 51.8824C260.567 51.897 260.397 51.9146 260.231 51.9354C257.706 52.251 256.057 53.1758 255.548 53.5987C255.713 50.0665 256.311 44.6483 257.864 41.2842C259.757 37.1816 263.386 34.052 264.964 33C266.411 36.2874 269.304 43.5723 269.304 46.4126Z" fill="#FF5E5E"/>
<path d="M267.331 52.3006C265.971 52.7975 264.567 53.2509 263.386 53.5134C262.92 53.6171 262.419 53.714 261.889 53.8166C261.733 53.8467 261.575 53.8774 261.414 53.9088C261.545 53.4279 261.72 52.6999 261.895 51.8264C264.04 51.7918 266.293 52.1006 267.331 52.3006Z" fill="#FF5E5E"/>
<path d="M267.331 52.3006C265.971 52.7975 264.567 53.2509 263.386 53.5134C262.92 53.6171 262.419 53.714 261.889 53.8166C261.733 53.8467 261.575 53.8774 261.414 53.9088C261.545 53.4279 261.72 52.6999 261.895 51.8264C264.04 51.7918 266.293 52.1006 267.331 52.3006Z" fill="black" fill-opacity="0.2"/>
<path d="M261.414 53.9088C259.678 54.2483 257.658 54.6824 255.497 55.611C255.497 55.059 255.512 54.3743 255.548 53.5987C256.057 53.1758 257.706 52.251 260.231 51.9354C260.397 51.9146 260.567 51.897 260.739 51.8824L261.414 53.9088Z" fill="#FF5E5E"/>
<path d="M261.414 53.9088C259.678 54.2483 257.658 54.6824 255.497 55.611C255.497 55.059 255.512 54.3743 255.548 53.5987C256.057 53.1758 257.706 52.251 260.231 51.9354C260.397 51.9146 260.567 51.897 260.739 51.8824L261.414 53.9088Z" fill="black" fill-opacity="0.2"/>
<path fill-rule="evenodd" clip-rule="evenodd" d="M261.895 51.8264C262.246 50.072 262.597 47.7305 262.597 45.6236C262.597 42.4677 262.071 40.3638 261.808 39.7063C261.151 40.3638 259.599 42.231 258.653 44.4402C257.706 46.6493 257.732 48.5165 257.864 49.174C257.995 49.0425 258.416 48.7795 259.047 48.7795C259.678 48.7795 260.099 49.5685 260.231 49.963C259.968 49.0425 259.363 47.2016 259.047 47.2016C258.653 47.2016 260.231 46.0181 260.625 48.385C260.941 50.2786 260.757 51.2779 260.625 51.5409L260.739 51.8824C261.115 51.8505 261.503 51.8327 261.895 51.8264Z" fill="#FFF4D8"/>
<path d="M261.414 53.9088L260.739 51.8824C261.115 51.8505 261.503 51.8327 261.895 51.8264C261.72 52.6999 261.545 53.4279 261.414 53.9088Z" fill="#FCEDD8"/>
<path d="M261.414 53.9088L260.739 51.8824C261.115 51.8505 261.503 51.8327 261.895 51.8264C261.72 52.6999 261.545 53.4279 261.414 53.9088Z" fill="black" fill-opacity="0.2"/>
<path d="M258.9 86.9508C259.95 87.3846 260.467 86.2642 260.903 85.404C261.096 85.022 260.936 84.4176 260.54 84.2541L259.98 84.0229C259.573 83.8546 258.974 84.1933 258.799 84.598C258.42 85.4719 257.871 86.5257 258.9 86.9508Z" stroke="#B0183D" stroke-width="2.26936"/>
<path d="M244.877 76.3373C245.784 76.7121 246.285 75.903 246.684 75.1285C246.898 74.7123 246.541 73.9727 246.075 73.9288C245.736 73.8969 245.382 74.2029 245.189 74.4837C244.724 75.1587 243.785 75.8864 244.877 76.3373Z" stroke="#B0183D" stroke-width="2.22429"/>
<path fill-rule="evenodd" clip-rule="evenodd" d="M246.905 85.3407C246.801 85.361 246.697 85.3738 246.595 85.3797C246.217 85.4205 245.338 85.4232 244.846 85.1076C244.354 84.792 244.231 83.896 244.231 83.4875C244.222 83.4359 244.215 83.3837 244.21 83.3308L244.231 81.6825C244.042 79.7225 246.268 78.4689 247.847 79.6462L250.211 80.8282C251.789 82.0056 251.222 84.4966 249.289 84.8744L246.905 85.3407Z" fill="#B0183D"/>
<path d="M251.946 89.9522C250.368 90.6097 246.897 91.609 245.634 90.3467C244.372 89.0843 245.371 85.8758 246.029 84.4294C244.977 85.4813 242.636 87.2697 241.69 86.0073C240.743 84.7449 241.032 82.8514 241.295 82.0624" stroke="#B0183D" stroke-width="2.27225" stroke-linecap="round" stroke-linejoin="round"/>
<path d="M239.65 120.838C239.576 120.238 239.494 119.508 239.422 118.735C239.418 118.692 239.414 118.648 239.41 118.604C239.696 118.259 242.084 116.719 248.396 115.054C254.708 113.389 262.335 110.941 265.359 109.925C261.606 111.349 253.089 114.785 248.608 117.3C248.537 117.341 248.466 117.381 248.396 117.421C247.537 117.911 246.793 118.364 246.126 118.769C243.523 120.352 242.099 121.218 239.65 120.838Z" fill="#E6CEAC"/>
<path d="M225.4 115.461C226.269 115.659 228.24 115.549 231.039 113.87C234.033 112.073 238.619 108.231 241.69 105.966C241.032 107.812 239.638 111.898 239.323 113.476C239.119 114.494 239.233 116.663 239.41 118.604C239.414 118.648 239.418 118.692 239.422 118.735C239.494 119.508 239.576 120.238 239.65 120.838C238.69 120.69 237.573 120.35 236.167 119.787C234.841 119.257 233.556 118.707 232.296 118.168C231.472 117.816 230.66 117.469 229.855 117.135C228.352 116.511 226.875 115.934 225.4 115.461Z" fill="#FF5E5E"/>
<path d="M211.709 117.421C210.525 118.998 210.131 121.365 211.314 121.76C212.261 122.075 212.761 121.891 212.892 121.76C212.629 122.023 212.34 122.628 213.287 122.943C214.47 123.338 215.654 119.393 218.021 119.393C219.535 119.393 223.47 122.782 228.277 126.258C226.831 127.204 222.912 128.813 218.81 127.677C216.645 127.078 213.567 124.807 210.525 122.411L208.714 115.61C209.461 115.99 210.075 116.237 210.525 116.237C212.103 116.237 213.024 115.819 213.287 115.61C212.604 116.17 212.156 116.824 211.709 117.421Z" fill="#FF5E5E"/>
<path d="M211.314 121.76C210.131 121.365 210.525 118.998 211.709 117.421C212.156 116.824 212.604 116.17 213.287 115.61C214.409 114.689 216.165 114.019 219.598 114.265C221.469 114.398 223.295 114.803 225.121 115.373C225.196 115.406 225.289 115.436 225.4 115.461C226.875 115.934 228.352 116.511 229.855 117.135L233.8 129.928C231.893 128.8 230.027 127.523 228.277 126.258C223.47 122.782 219.535 119.393 218.021 119.393C215.654 119.393 214.47 123.338 213.287 122.943C212.34 122.628 212.629 122.023 212.892 121.76C212.761 121.891 212.261 122.075 211.314 121.76Z" fill="#B0183D"/>
<path d="M211.314 121.76C210.131 121.365 210.525 118.998 211.709 117.421C212.156 116.824 212.604 116.17 213.287 115.61C214.409 114.689 216.165 114.019 219.598 114.265C221.469 114.398 223.295 114.803 225.121 115.373C225.196 115.406 225.289 115.436 225.4 115.461C226.875 115.934 228.352 116.511 229.855 117.135L233.8 129.928C231.893 128.8 230.027 127.523 228.277 126.258C223.47 122.782 219.535 119.393 218.021 119.393C215.654 119.393 214.47 123.338 213.287 122.943C212.34 122.628 212.629 122.023 212.892 121.76C212.761 121.891 212.261 122.075 211.314 121.76Z" fill="black" fill-opacity="0.2"/>
<path d="M200.663 115.843C197.902 116.237 198.296 121.76 195.929 120.971C194.036 120.34 193.825 119.13 193.957 118.604C193.562 118.998 192.694 119.551 192.379 118.604C191.984 117.421 192.379 111.503 197.902 111.503C202.164 111.503 206.191 114.323 208.714 115.61L210.525 122.411C206.359 119.129 202.259 115.615 200.663 115.843Z" fill="#B0183D"/>
<path d="M200.663 115.843C197.902 116.237 198.296 121.76 195.929 120.971C194.036 120.34 193.825 119.13 193.957 118.604C193.562 118.998 192.694 119.551 192.379 118.604C191.984 117.421 192.379 111.503 197.902 111.503C202.164 111.503 206.191 114.323 208.714 115.61L210.525 122.411C206.359 119.129 202.259 115.615 200.663 115.843Z" fill="black" fill-opacity="0.2"/>
<path d="M236.956 131.622C243.583 134.778 257.601 133.2 263.781 132.017C260.131 133.069 251.489 135.251 246.126 135.567C240.763 135.883 234.764 135.038 232.435 134.577C232.868 132.644 233.404 130.962 233.8 129.928C234.844 130.546 235.9 131.119 236.956 131.622Z" fill="#CC4B4B"/>
<path d="M83.2311 159.134C93.1167 163.016 95.1139 171.567 94.8768 175.357C95.1118 176.216 95.5239 177.897 96.0102 180.194C95.5179 180.352 94.5794 180.494 93.3353 180.421C91.9945 180.341 90.2987 180.011 88.424 179.182C84.8101 177.583 83.0425 175.459 82.6105 174.597L81.6875 185.731L74.2525 176.296L73.7529 187.903C73.5519 187.697 73.2168 187.439 72.8212 187.134C71.8768 186.405 70.5877 185.411 69.9555 184.237C69.0601 182.574 67.8388 179.326 67.6582 177.66C68.4074 175.128 69.1567 172.736 69.5824 170.516C70.9395 163.439 66.9135 158.257 64.7309 156.55C66.7786 155.794 73.3455 155.251 83.2311 159.134Z" fill="#FCEDD8"/>
<path fill-rule="evenodd" clip-rule="evenodd" d="M93.3353 180.421C90.8296 187.143 85.7046 201.912 85.2507 207.212C84.7969 212.512 88.4657 214.355 90.3568 214.614C82.7839 214.283 75.2673 211.404 69.5494 203.17C63.1867 194.008 65.4223 185.214 67.6582 177.66C67.8388 179.326 69.0601 182.574 69.9555 184.237C70.5877 185.411 71.8768 186.405 72.8212 187.134C73.2168 187.439 73.5519 187.697 73.7529 187.903L74.2525 176.296L81.6875 185.731L82.6105 174.597C83.0425 175.459 84.8101 177.583 88.424 179.182C90.2987 180.011 91.9945 180.341 93.3353 180.421Z" fill="#FF5E5E"/>
<path d="M97.7008 189.437C99.0645 198.18 111.951 211.417 101.23 213.616C97.7257 214.335 94.0346 214.775 90.3568 214.614C88.4657 214.355 84.7969 212.512 85.2507 207.212C85.7046 201.912 90.8296 187.143 93.3353 180.421C94.5794 180.494 95.5179 180.352 96.0102 180.194C96.5309 182.654 97.1366 185.819 97.7008 189.437Z" fill="#E64B4B"/>
<path d="M150.35 172.122C150.424 171.521 150.505 170.791 150.577 170.019C150.581 169.975 150.585 169.931 150.589 169.887C150.304 169.543 147.916 168.002 141.604 166.337C135.292 164.672 127.665 162.224 124.641 161.209C128.394 162.632 136.911 166.069 141.392 168.584C141.463 168.624 141.534 168.664 141.604 168.704C142.462 169.195 143.207 169.647 143.874 170.053C146.476 171.635 147.901 172.501 150.35 172.122Z" fill="#E6CEAC"/>
<path d="M164.6 166.745C163.731 166.942 161.76 166.833 158.961 165.154C155.967 163.357 151.381 159.514 148.31 157.25C148.968 159.095 150.361 163.181 150.677 164.759C150.881 165.778 150.767 167.947 150.589 169.887C150.585 169.931 150.581 169.975 150.577 170.019C150.505 170.791 150.424 171.521 150.35 172.122C151.31 171.973 152.426 171.633 153.833 171.071C155.158 170.541 156.444 169.991 157.704 169.452C158.527 169.1 159.34 168.752 160.145 168.418C161.648 167.794 163.125 167.218 164.6 166.745Z" fill="#FF5E5E"/>
<path d="M178.291 168.704C179.475 170.282 179.869 172.649 178.686 173.043C177.739 173.359 177.239 173.175 177.108 173.043C177.371 173.306 177.66 173.911 176.713 174.227C175.53 174.621 174.346 170.676 171.979 170.676C170.465 170.676 166.53 174.066 161.723 177.541C163.169 178.487 167.088 180.096 171.19 178.961C173.355 178.362 176.432 176.09 179.475 173.694L181.285 166.893C180.539 167.274 179.925 167.52 179.475 167.52C177.897 167.52 176.976 167.102 176.713 166.893C177.396 167.454 177.843 168.107 178.291 168.704Z" fill="#FF5E5E"/>
<path d="M178.686 173.043C179.869 172.649 179.475 170.282 178.291 168.704C177.843 168.107 177.396 167.454 176.713 166.893C175.591 165.972 173.835 165.303 170.401 165.548C168.53 165.682 166.705 166.087 164.878 166.656C164.804 166.689 164.711 166.719 164.6 166.745C163.125 167.218 161.648 167.794 160.145 168.418L156.2 181.211C158.107 180.083 159.972 178.806 161.723 177.541C166.53 174.066 170.465 170.676 171.979 170.676C174.346 170.676 175.53 174.621 176.713 174.227C177.66 173.911 177.371 173.306 177.108 173.043C177.239 173.175 177.739 173.359 178.686 173.043Z" fill="#B0183D"/>
<path d="M189.337 167.126C192.098 167.52 191.704 173.043 194.071 172.254C195.964 171.623 196.175 170.413 196.043 169.887C196.438 170.282 197.305 170.834 197.621 169.887C198.015 168.704 197.621 162.787 192.098 162.787C187.836 162.787 183.808 165.606 181.285 166.893L179.475 173.694C183.641 170.413 187.741 166.898 189.337 167.126Z" fill="#B0183D"/>
<path d="M153.044 182.905C146.416 186.061 132.399 184.483 126.219 183.3C129.869 184.352 138.511 186.535 143.874 186.85C149.237 187.166 155.236 186.322 157.565 185.86C157.132 183.927 156.595 182.245 156.2 181.211C155.156 181.829 154.1 182.403 153.044 182.905Z" fill="#CC4B4B"/>
<path fill-rule="evenodd" clip-rule="evenodd" d="M148.31 157.25C147.335 156.531 146.513 155.971 145.943 155.686C145.154 156.212 142.393 157.579 137.659 158.842C132.925 160.104 115.436 157.79 107.283 156.475C108.861 157.106 108.73 159.894 108.467 161.209C108.467 161.859 108.362 162.514 108.169 163.181C109.978 164.174 115.173 166.612 121.485 168.418C127.797 170.225 137.386 169.281 141.392 168.584C136.911 166.069 128.394 162.632 124.641 161.209C127.665 162.224 135.292 164.672 141.604 166.337C147.916 168.002 150.304 169.543 150.589 169.887C150.767 167.947 150.881 165.778 150.677 164.759C150.361 163.181 148.968 159.095 148.31 157.25Z" fill="#FFF4D8"/>
<path d="M145.943 155.686C144.049 154.739 143.05 154.502 142.787 154.502L140.42 152.924C128.717 153.845 105.705 155.844 107.283 156.475C115.436 157.79 132.925 160.104 137.659 158.842C142.393 157.579 145.154 156.212 145.943 155.686Z" fill="#E6CEAC"/>
<path d="M94.2651 188.428C93.5236 190.855 93.0701 193.236 92.8494 195.529C92.6217 197.895 92.6419 200.168 92.8494 202.302C93.6177 210.206 96.955 216.212 99.7879 218.015C101.548 219.135 105.449 220.385 110.045 221.264C108.072 213.738 104.206 197.107 104.522 190.795C104.838 184.483 107.085 169.756 108.169 163.181C107.485 165.547 105.695 168.063 103.549 171.077C100.434 175.456 96.5702 180.884 94.2651 188.428Z" fill="#F45151"/>
<path fill-rule="evenodd" clip-rule="evenodd" d="M153.833 171.071C152.426 171.633 151.31 171.973 150.35 172.122C147.901 172.501 146.476 171.635 143.874 170.053C143.207 169.647 142.462 169.195 141.604 168.704C141.534 168.664 141.463 168.624 141.392 168.584C137.386 169.281 127.797 170.225 121.485 168.418C115.173 166.612 109.978 164.174 108.169 163.181C107.085 169.756 104.838 184.483 104.522 190.795C104.206 197.107 108.072 213.738 110.045 221.264C116.78 222.553 125.005 223.047 130.163 221.171C136.082 219.018 136.879 217.478 136.415 216.744C136.838 217.038 137.566 217.353 138.5 217.644C141.77 216.929 149.415 214.3 153.833 209.5C156.399 206.712 157.581 202.991 158.044 199.738C158.454 199.832 158.776 199.998 158.961 200.263C159.23 199.843 159.059 199.457 158.795 198.864C158.398 197.971 157.793 196.607 158.172 193.951C158.532 191.432 158.139 188.425 157.565 185.86C155.236 186.322 149.237 187.166 143.874 186.85C138.511 186.535 129.869 184.352 126.219 183.3C132.399 184.483 146.416 186.061 153.044 182.905C154.1 182.403 155.156 181.829 156.2 181.211L160.145 168.418C159.34 168.752 158.527 169.1 157.704 169.452C156.444 169.991 155.158 170.541 153.833 171.071ZM136.415 216.744C136.263 216.638 136.15 216.535 136.081 216.437C136.217 216.515 136.335 216.617 136.415 216.744Z" fill="#FF5E5E"/>
<path d="M151.466 218.015C158.567 215.648 161.723 209.731 161.723 205.391C161.723 204.262 159.466 200.985 158.961 200.263C158.776 199.998 158.454 199.832 158.044 199.738C157.581 202.991 156.399 206.712 153.833 209.5C149.415 214.3 141.77 216.929 138.5 217.644C141.721 218.648 147.392 219.373 151.466 218.015Z" fill="#E64B4B"/>
<path fill-rule="evenodd" clip-rule="evenodd" d="M112.806 105.98C111.544 107.874 104.916 111.766 101.761 113.476C99.9196 112.818 97.1207 110.406 91.1094 109.531C85.6924 108.742 70.9905 108.742 67.8346 112.292C74.5409 118.209 75.7344 125.871 82.8252 132.016C88.7425 137.145 90.7149 136.75 91.1094 138.328C91.3963 139.476 92.2928 139.117 92.2928 143.851C97.9472 140.564 114.305 130.833 125.035 129.255C135.765 127.677 140.815 132.937 143.182 134.383C141.209 132.016 137.422 126.099 138.054 121.365C138.685 116.631 142.269 115.185 143.982 115.053C143.279 113.878 142.388 112.681 141.209 111.503C138.928 109.221 136.646 107.815 134.503 106.894C132.341 105.966 130.321 105.532 128.586 105.192C128.425 105.161 128.267 105.13 128.111 105.1C127.581 104.997 127.08 104.9 126.613 104.797C125.432 104.534 124.028 104.081 122.668 103.584C120.758 102.886 118.933 102.102 117.935 101.641C118.066 101.772 118.171 102.272 117.54 103.219C116.909 104.166 115.436 104.665 114.779 104.797V101.641C114.647 102.298 114.069 104.087 112.806 105.98ZM89.5315 115.053C87.3224 114.107 79.0118 112.687 76.1189 113.081C76.3819 114.79 79.2748 120.576 80.8527 122.154C82.4307 123.732 86.2441 127.546 87.9535 128.861C87.296 127.283 86.1389 123.101 86.7701 122.154C87.559 120.971 91.5039 120.971 91.1094 120.182C90.7937 119.551 88.085 119.919 86.7701 120.182C87.033 119.393 88.2691 117.815 91.1094 117.815H95.0543C94.1338 117.289 91.7406 116 89.5315 115.053Z" fill="#FF5E5E"/>
<path d="M76.1189 113.081C79.0118 112.687 87.3224 114.107 89.5315 115.053C91.7406 116 94.1338 117.289 95.0543 117.815H91.1094C88.2691 117.815 87.033 119.393 86.7701 120.182C88.085 119.919 90.7937 119.551 91.1094 120.182C91.5039 120.971 87.559 120.971 86.7701 122.154C86.1389 123.101 87.296 127.283 87.9535 128.861C86.2441 127.546 82.4307 123.732 80.8527 122.154C79.2748 120.576 76.3819 114.79 76.1189 113.081Z" fill="#FFF4D8"/>
<path d="M151.861 117.815C151.466 118.998 151.861 121.365 149.099 121.365C145.996 121.365 146.575 119.389 143.982 115.053C142.269 115.185 138.685 116.631 138.054 121.365C137.422 126.099 141.209 132.016 143.182 134.383C140.815 132.937 135.765 127.677 125.035 129.255C114.305 130.833 97.9472 140.564 92.2928 143.851C92.2928 147.326 87.9535 148.19 84.4031 148.19C86.7701 148.979 89.2024 150.471 92.2928 152.135C97.4212 154.897 98.2101 154.502 103.733 156.869C109.256 159.236 127.369 160.741 136.081 156.869C146.732 152.135 150.677 147.402 153.833 141.484C156.989 135.567 156.2 130.439 155.017 127.283C154.07 124.758 152.255 119.393 151.861 117.815Z" fill="#FFF4D8"/>
<path fill-rule="evenodd" clip-rule="evenodd" d="M120.696 97.696C120.696 100.536 122.011 102.805 122.668 103.584C123.707 103.384 125.96 103.075 128.105 103.11C127.754 101.355 127.402 99.0139 127.402 96.907C127.402 93.7511 127.928 91.6472 128.191 90.9897C128.849 91.6472 130.4 93.5144 131.347 95.7236C132.294 97.9327 132.268 99.7999 132.136 100.457C132.005 100.326 131.584 100.063 130.953 100.063C130.322 100.063 129.901 100.852 129.769 101.246C130.032 100.326 130.637 98.485 130.953 98.485C131.347 98.485 129.769 97.3015 129.375 99.6684C129.059 101.562 129.243 102.561 129.375 102.824L129.261 103.166C129.433 103.18 129.603 103.198 129.769 103.219C132.294 103.534 133.943 104.459 134.452 104.882C134.287 101.35 133.689 95.9317 132.136 92.5677C130.243 88.465 126.613 85.3354 125.035 84.2834C123.589 87.5708 120.696 94.8557 120.696 97.696Z" fill="#FF5E5E"/>
<path d="M122.668 103.584C124.028 104.081 125.432 104.534 126.613 104.797C127.08 104.9 127.581 104.997 128.111 105.1C128.267 105.13 128.425 105.161 128.586 105.192C128.455 104.711 128.28 103.983 128.105 103.11C125.96 103.075 123.707 103.384 122.668 103.584Z" fill="#FF5E5E"/>
<path d="M122.668 103.584C124.028 104.081 125.432 104.534 126.613 104.797C127.08 104.9 127.581 104.997 128.111 105.1C128.267 105.13 128.425 105.161 128.586 105.192C128.455 104.711 128.28 103.983 128.105 103.11C125.96 103.075 123.707 103.384 122.668 103.584Z" fill="black" fill-opacity="0.2"/>
<path d="M128.586 105.192C130.321 105.532 132.341 105.966 134.503 106.894C134.503 106.342 134.488 105.658 134.452 104.882C133.943 104.459 132.294 103.534 129.769 103.219C129.603 103.198 129.433 103.18 129.261 103.166L128.586 105.192Z" fill="#FF5E5E"/>
<path d="M128.586 105.192C130.321 105.532 132.341 105.966 134.503 106.894C134.503 106.342 134.488 105.658 134.452 104.882C133.943 104.459 132.294 103.534 129.769 103.219C129.603 103.198 129.433 103.18 129.261 103.166L128.586 105.192Z" fill="black" fill-opacity="0.2"/>
<path fill-rule="evenodd" clip-rule="evenodd" d="M128.105 103.11C127.754 101.355 127.402 99.0139 127.402 96.907C127.402 93.7511 127.928 91.6472 128.191 90.9897C128.849 91.6472 130.4 93.5144 131.347 95.7236C132.294 97.9327 132.268 99.7999 132.136 100.457C132.005 100.326 131.584 100.063 130.953 100.063C130.322 100.063 129.901 100.852 129.769 101.246C130.032 100.326 130.637 98.485 130.953 98.485C131.347 98.485 129.769 97.3015 129.375 99.6684C129.059 101.562 129.243 102.561 129.375 102.824L129.261 103.166C128.885 103.134 128.497 103.116 128.105 103.11Z" fill="#FFF4D8"/>
<path d="M128.586 105.192L129.261 103.166C128.885 103.134 128.497 103.116 128.105 103.11C128.28 103.983 128.455 104.711 128.586 105.192Z" fill="#FCEDD8"/>
<path d="M128.586 105.192L129.261 103.166C128.885 103.134 128.497 103.116 128.105 103.11C128.28 103.983 128.455 104.711 128.586 105.192Z" fill="black" fill-opacity="0.2"/>
<path d="M131.1 138.234C130.05 138.668 129.533 137.548 129.097 136.687C128.903 136.305 129.064 135.701 129.46 135.537L130.019 135.306C130.427 135.138 131.026 135.477 131.201 135.881C131.579 136.755 132.129 137.809 131.1 138.234Z" stroke="#B0183D" stroke-width="2.26936"/>
<path d="M145.123 127.621C144.215 127.996 143.714 127.186 143.316 126.412C143.101 125.996 143.458 125.256 143.925 125.212C144.264 125.18 144.617 125.486 144.811 125.767C145.275 126.442 146.215 127.17 145.123 127.621Z" stroke="#B0183D" stroke-width="2.22429"/>
<path fill-rule="evenodd" clip-rule="evenodd" d="M143.095 136.624C143.199 136.644 143.302 136.657 143.405 136.663C143.783 136.704 144.662 136.707 145.154 136.391C145.646 136.075 145.769 135.179 145.769 134.771C145.778 134.719 145.784 134.667 145.79 134.614L145.769 132.966C145.958 131.006 143.731 129.752 142.153 130.93L139.789 132.112C138.211 133.289 138.778 135.78 140.71 136.158L143.095 136.624Z" fill="#B0183D"/>
<path d="M138.054 141.236C139.631 141.893 143.103 142.892 144.365 141.63C145.628 140.368 144.628 137.159 143.971 135.713C145.023 136.765 147.363 138.553 148.31 137.291C149.257 136.028 148.968 134.135 148.705 133.346" stroke="#B0183D" stroke-width="2.27225" stroke-linecap="round" stroke-linejoin="round"/>
<path d="M150.35 172.122C150.424 171.521 150.505 170.791 150.577 170.019C150.581 169.975 150.585 169.931 150.589 169.887C150.304 169.543 147.916 168.002 141.604 166.337C135.292 164.672 127.665 162.224 124.641 161.209C128.394 162.632 136.911 166.069 141.391 168.584C141.463 168.624 141.534 168.664 141.604 168.704C142.462 169.195 143.207 169.647 143.874 170.053C146.476 171.635 147.901 172.501 150.35 172.122Z" fill="#E6CEAC"/>
<path d="M164.6 166.745C163.731 166.942 161.76 166.833 158.961 165.154C155.967 163.357 151.381 159.514 148.31 157.25C148.968 159.095 150.361 163.181 150.677 164.759C150.881 165.778 150.767 167.947 150.589 169.887C150.585 169.931 150.581 169.975 150.577 170.019C150.505 170.791 150.424 171.521 150.35 172.122C151.309 171.973 152.426 171.633 153.833 171.071C155.158 170.541 156.444 169.991 157.704 169.452C158.527 169.1 159.34 168.752 160.145 168.418C161.648 167.794 163.125 167.218 164.6 166.745Z" fill="#FF5E5E"/>
<path d="M178.291 168.704C179.474 170.282 179.869 172.649 178.686 173.043C177.739 173.359 177.239 173.175 177.108 173.043C177.371 173.306 177.66 173.911 176.713 174.227C175.53 174.621 174.346 170.676 171.979 170.676C170.465 170.676 166.53 174.066 161.723 177.541C163.169 178.487 167.088 180.096 171.19 178.961C173.355 178.362 176.432 176.09 179.474 173.694L181.285 166.893C180.539 167.274 179.925 167.52 179.474 167.52C177.897 167.52 176.976 167.102 176.713 166.893C177.396 167.454 177.843 168.107 178.291 168.704Z" fill="#FF5E5E"/>
<path d="M178.686 173.043C179.869 172.649 179.474 170.282 178.291 168.704C177.843 168.107 177.396 167.454 176.713 166.893C175.591 165.972 173.835 165.303 170.401 165.548C168.53 165.682 166.705 166.087 164.878 166.656C164.804 166.689 164.711 166.719 164.6 166.745C163.125 167.218 161.648 167.794 160.145 168.418L156.2 181.211C158.106 180.083 159.972 178.806 161.723 177.541C166.53 174.066 170.465 170.676 171.979 170.676C174.346 170.676 175.53 174.621 176.713 174.227C177.66 173.911 177.371 173.306 177.108 173.043C177.239 173.175 177.739 173.359 178.686 173.043Z" fill="#B0183D"/>
<path d="M189.337 167.126C192.098 167.52 191.704 173.043 194.071 172.254C195.964 171.623 196.174 170.413 196.043 169.887C196.437 170.282 197.305 170.834 197.621 169.887C198.015 168.704 197.621 162.787 192.098 162.787C187.836 162.787 183.808 165.606 181.285 166.893L179.474 173.694C183.641 170.413 187.741 166.898 189.337 167.126Z" fill="#B0183D"/>
<path d="M153.044 182.905C146.416 186.061 132.399 184.483 126.219 183.3C129.869 184.352 138.511 186.535 143.874 186.85C149.237 187.166 155.236 186.322 157.565 185.86C157.132 183.927 156.595 182.245 156.2 181.211C155.156 181.829 154.1 182.403 153.044 182.905Z" fill="#CC4B4B"/>
<path d="M164.657 199.672L180.215 177.632L163.361 174.606L149.099 194.486L164.657 199.672Z" fill="#FFD464"/>
<path d="M164.657 199.672L180.215 177.632L163.361 174.606L149.099 194.486L164.657 199.672Z" fill="black" fill-opacity="0.2"/>
<path d="M180.215 177.632L185.935 197.079L186.697 199.672L237.692 198.948L247.632 198.807L243.31 186.275L239.421 176.767L180.215 177.632Z" fill="#FFE9B1"/>
<path d="M261.893 189.732L239.421 176.767L243.31 186.275L261.893 189.732Z" fill="#FFD464"/>
<path fill-rule="evenodd" clip-rule="evenodd" d="M180.363 188.003C179.737 189.012 180.993 191.547 177.19 197.079C173.387 202.61 166.098 210.044 164.657 212.636V230.787L181.079 238.134L180.363 188.003Z" fill="#FFD464"/>
<path fill-rule="evenodd" clip-rule="evenodd" d="M180.363 188.003C179.737 189.012 180.993 191.547 177.19 197.079C173.387 202.61 166.098 210.044 164.657 212.636V230.787L181.079 238.134L180.363 188.003Z" fill="black" fill-opacity="0.2"/>
<path d="M180.215 177.632L164.657 199.672V212.636C166.098 210.044 173.387 202.61 177.19 197.079C180.993 191.547 179.737 189.012 180.363 188.003L180.215 177.632Z" fill="#CCAA50"/>
<path d="M180.215 177.632L164.657 199.672V212.636C166.098 210.044 173.387 202.61 177.19 197.079C180.993 191.547 179.737 189.012 180.363 188.003L180.215 177.632Z" fill="black" fill-opacity="0.15"/>
<path fill-rule="evenodd" clip-rule="evenodd" d="M181.079 238.134L180.686 210.637L188.095 209.341L204.969 206.421L230.345 201.832L237.692 198.948V237.27L181.079 238.134Z" fill="#FFD464"/>
<path d="M237.692 198.948L186.697 199.672L185.935 197.079L180.215 177.632L180.363 188.003L180.686 210.637L188.095 209.341L204.969 206.421L230.345 201.832L237.692 198.948Z" fill="#CCAA50"/>
<path d="M180.215 177.632L239.421 176.767L215.22 173.742L163.361 174.606L180.215 177.632Z" fill="#AE9144"/>
<g filter="url(#filter0_d_32_5848)">
<path d="M217.619 153.713L206.023 178.486L226.579 181.569L227.106 181.648L236.866 157.737L237.117 157.121C237.382 156.471 236.95 155.748 236.251 155.675L217.619 153.713Z" fill="#FF5E5E"/>
<path d="M206.023 178.486L217.619 153.713L236.251 155.675C236.95 155.748 237.382 156.471 237.117 157.121L236.866 157.737M206.023 178.486L206.902 181.121L227.984 184.284L238.29 159.45C238.516 158.905 238.25 158.28 237.701 158.065L236.866 157.737M206.023 178.486L226.579 181.569L227.106 181.648L236.866 157.737" stroke="#FF5E5E" stroke-width="2.10829"/>
<path d="M237.648 156.876L227.106 181.648L226.579 181.569L206.023 178.486L206.902 181.121L227.985 184.283L238.483 158.984L237.956 157.666L237.648 156.876Z" fill="#FFF4D8"/>
</g>
<g filter="url(#filter1_d_32_5848)">
<path d="M208.131 158.984L196.535 183.756L217.091 186.84L217.618 186.919L227.378 163.008L227.629 162.392C227.895 161.742 227.462 161.019 226.764 160.945L208.131 158.984Z" fill="#E23C64"/>
<path d="M196.535 183.756L208.131 158.984L226.764 160.945C227.462 161.019 227.895 161.742 227.629 162.392L227.378 163.008M196.535 183.756L197.414 186.392L218.497 189.554L228.802 164.721C229.028 164.175 228.763 163.551 228.213 163.335L227.378 163.008M196.535 183.756L217.091 186.84L217.618 186.919L227.378 163.008" stroke="#E23C64" stroke-width="2.10829"/>
<path d="M228.16 162.146L217.618 186.919L217.091 186.84L196.536 183.756L197.414 186.392L218.497 189.554L228.995 164.255L228.468 162.937L228.16 162.146Z" fill="#FFF4D8"/>
</g>
<g filter="url(#filter2_d_32_5848)">
<path d="M198.566 162.392L186.97 187.164L207.526 190.248L208.053 190.327L217.813 166.416L218.064 165.8C218.33 165.15 217.897 164.427 217.198 164.353L198.566 162.392Z" fill="#C4526E"/>
<path d="M186.97 187.164L198.566 162.392L217.198 164.353C217.897 164.427 218.33 165.15 218.064 165.8L217.813 166.416M186.97 187.164L187.849 189.8L208.932 192.962L219.237 168.129C219.463 167.583 219.197 166.959 218.648 166.743L217.813 166.416M186.97 187.164L207.526 190.248L208.053 190.327L217.813 166.416" stroke="#C4526E" stroke-width="2.10829"/>
<path d="M218.595 165.554L208.053 190.327L207.526 190.248L186.97 187.164L187.849 189.8L208.932 192.962L219.43 167.663L218.903 166.345L218.595 165.554Z" fill="#FFF4D8"/>
</g>
<path d="M180.215 177.631L185.934 197.079L186.697 199.672L237.692 198.948L247.631 198.807L243.31 186.275L239.42 176.767L180.215 177.631Z" fill="#FFE9B1"/>
<path d="M150.35 172.911C150.424 172.31 150.505 171.58 150.577 170.808C150.581 170.764 150.585 170.72 150.589 170.676C150.304 170.332 147.916 168.791 141.604 167.126C135.292 165.461 127.665 163.013 124.641 161.998C128.394 163.421 136.911 166.857 141.391 169.373C141.463 169.413 141.534 169.453 141.604 169.493C142.462 169.984 143.207 170.436 143.874 170.842C146.476 172.424 147.901 173.29 150.35 172.911Z" fill="#E6CEAC"/>
<path d="M164.6 167.533C163.731 167.731 161.76 167.622 158.961 165.942C155.967 164.146 151.381 160.303 148.31 158.039C148.968 159.884 150.361 163.97 150.677 165.548C150.881 166.567 150.767 168.736 150.589 170.676C150.585 170.72 150.581 170.764 150.577 170.808C150.505 171.58 150.424 172.31 150.35 172.911C151.309 172.762 152.426 172.422 153.833 171.86C155.158 171.33 156.444 170.78 157.704 170.241C158.527 169.889 159.34 169.541 160.145 169.207C161.648 168.583 163.125 168.007 164.6 167.533Z" fill="#FF5E5E"/>
<path d="M178.686 173.832C179.869 173.438 179.475 171.071 178.291 169.493C177.843 168.896 177.396 168.243 176.713 167.682C175.591 166.761 173.835 166.092 170.401 166.337C168.53 166.471 166.705 166.876 164.878 167.445C164.804 167.478 164.711 167.508 164.6 167.533C163.125 168.007 161.648 168.583 160.145 169.207L156.2 182C158.106 180.872 159.972 179.595 161.723 178.33C166.53 174.855 170.465 171.465 171.979 171.465C174.346 171.465 175.53 175.41 176.713 175.016C177.66 174.7 177.371 174.095 177.108 173.832C177.239 173.964 177.739 174.148 178.686 173.832Z" fill="#B0183D"/>
<path d="M178.686 173.832C179.869 173.438 179.475 171.071 178.291 169.493C177.843 168.896 177.396 168.243 176.713 167.682C175.591 166.761 173.835 166.092 170.401 166.337C168.53 166.471 166.705 166.876 164.878 167.445C164.804 167.478 164.711 167.508 164.6 167.533C163.125 168.007 161.648 168.583 160.145 169.207L156.2 182C158.106 180.872 159.972 179.595 161.723 178.33C166.53 174.855 170.465 171.465 171.979 171.465C174.346 171.465 175.53 175.41 176.713 175.016C177.66 174.7 177.371 174.095 177.108 173.832C177.239 173.964 177.739 174.148 178.686 173.832Z" fill="black" fill-opacity="0.2"/>
<path d="M189.337 167.915C192.098 168.309 191.704 173.832 194.071 173.043C195.964 172.412 196.175 171.202 196.043 170.676C196.437 171.071 197.305 171.623 197.621 170.676C198.015 169.493 197.621 163.575 192.098 163.575C187.836 163.575 183.808 166.395 181.285 167.682L179.475 174.483C183.641 171.202 187.741 167.687 189.337 167.915Z" fill="#B0183D"/>
<path d="M189.337 167.915C192.098 168.309 191.704 173.832 194.071 173.043C195.964 172.412 196.175 171.202 196.043 170.676C196.437 171.071 197.305 171.623 197.621 170.676C198.015 169.493 197.621 163.575 192.098 163.575C187.836 163.575 183.808 166.395 181.285 167.682L179.475 174.483C183.641 171.202 187.741 167.687 189.337 167.915Z" fill="black" fill-opacity="0.2"/>
<path d="M228.83 63.8075C232.723 67.127 232.289 72.3787 228.271 77.0914C224.513 81.4996 213.613 87.3084 212.22 88.0406C214.728 85.5777 220.378 79.8999 224.711 75.1142C229.182 70.1767 229.32 65.5191 228.83 63.8075Z" fill="#B0183D"/>
<path d="M228.83 63.8075C232.723 67.127 232.289 72.3787 228.271 77.0914C224.513 81.4996 213.613 87.3084 212.22 88.0406C214.728 85.5777 220.378 79.8999 224.711 75.1142C229.182 70.1767 229.32 65.5191 228.83 63.8075Z" fill="black" fill-opacity="0.2"/>
<path d="M211.671 87.9982L211.485 87.9432L211.328 87.8966C211.328 87.8966 204.553 75.9665 203.751 69.8258C202.95 63.6851 205.446 59.0444 210.52 58.3821C213.896 57.9414 217.134 59.7599 219.159 62.835C222.533 61.3597 226.239 61.5989 228.83 63.8075C229.32 65.5191 229.182 70.1767 224.711 75.1142C220.378 79.8999 214.728 85.5777 212.22 88.0406C212.124 88.0911 212.073 88.1175 212.073 88.1175L211.847 88.0503L211.671 87.9982Z" fill="#E23C64"/>
<path d="M155.802 96.0428C151.908 99.3623 152.342 104.614 156.36 109.327C160.118 113.735 171.018 119.544 172.411 120.276C169.903 117.813 164.253 112.135 159.92 107.35C155.449 102.412 155.312 97.7544 155.802 96.0428Z" fill="#B0183D"/>
<path d="M155.802 96.0428C151.908 99.3623 152.342 104.614 156.36 109.327C160.118 113.735 171.018 119.544 172.411 120.276C169.903 117.813 164.253 112.135 159.92 107.35C155.449 102.412 155.312 97.7544 155.802 96.0428Z" fill="black" fill-opacity="0.2"/>
<path d="M172.961 120.234L173.146 120.179L173.304 120.132C173.304 120.132 180.078 108.202 180.88 102.061C181.681 95.9204 179.185 91.2797 174.111 90.6174C170.735 90.1767 167.497 91.9952 165.472 95.0703C162.098 93.595 158.392 93.8342 155.802 96.0428C155.312 97.7544 155.449 102.412 159.92 107.35C164.253 112.135 169.903 117.813 172.411 120.276C172.507 120.326 172.558 120.353 172.558 120.353L172.785 120.286L172.961 120.234Z" fill="#E23C64"/>
<path d="M203.136 284.943L206.354 283.74L204.29 295.487C204.186 296.076 203.717 296.531 203.122 296.598C201.74 296.752 199.072 296.988 196.131 296.922L197.393 287.255L197.399 287.21L197.868 283.613L203.136 284.943Z" fill="#B0183D"/>
<path d="M169.628 274.206L202.539 281.987L203.136 284.943L197.868 283.613L182.39 279.706L170.96 276.821C170.442 276.691 170.045 276.274 169.939 275.751L169.628 274.206Z" fill="#D24545"/>
<path d="M202.539 281.987L220.531 275.857L220.781 277.099C220.916 277.767 220.546 278.435 219.907 278.673L206.354 283.74L203.136 284.943L202.539 281.987Z" fill="#B43737"/>
<path fill-rule="evenodd" clip-rule="evenodd" d="M220.531 275.857L189.306 267.915C189.049 267.85 188.779 267.859 188.527 267.943L169.628 274.206C178.12 275.953 196.679 279.246 202.977 278.437C209.274 277.628 217.303 276.38 220.531 275.857Z" fill="#E64B4B"/>
<path d="M220.531 275.857L202.539 281.987L169.628 274.206C178.12 275.953 196.679 279.246 202.977 278.437C209.274 277.628 217.303 276.38 220.531 275.857Z" fill="#E64B4B"/>
<path fill-rule="evenodd" clip-rule="evenodd" d="M197.399 287.21L197.393 287.255L196.131 296.922C193.05 296.853 189.668 296.454 187.147 295.283C185.243 294.398 182.839 292.613 181.744 291.767C181.372 291.479 181.182 291.019 181.232 290.552L182.39 279.706C183.833 280.377 187.813 282.189 192.193 284.074C196.359 285.867 197.387 286.879 197.399 287.21Z" fill="#E64B4B"/>
<path d="M182.39 279.706L197.868 283.613L197.399 287.21C197.387 286.879 196.359 285.867 192.193 284.074C187.813 282.189 183.833 280.377 182.39 279.706Z" fill="#B0183D"/>
<path d="M223.049 275.273C223.056 275.303 223.062 275.332 223.068 275.362L223.315 276.588C223.701 278.501 222.64 280.411 220.812 281.094L208.644 285.643L206.835 295.935C206.54 297.615 205.183 298.969 203.409 299.167C201.963 299.328 199.171 299.575 196.073 299.506C192.9 299.435 189.078 299.03 186.059 297.627C183.858 296.605 181.242 294.646 180.163 293.811C179.06 292.958 178.52 291.609 178.662 290.277L179.582 281.663L170.327 279.327C168.844 278.953 167.708 277.761 167.406 276.262L167.105 274.77C167.055 274.548 167.034 274.318 167.045 274.084C167.057 273.844 167.101 273.609 167.176 273.385C167.306 272.996 167.523 272.655 167.799 272.378C168.013 272.164 168.267 271.985 168.554 271.854C168.653 271.809 168.755 271.77 168.86 271.737L187.714 265.489C188.434 265.251 189.208 265.223 189.943 265.41L221.12 273.34C221.314 273.385 221.5 273.453 221.676 273.54C222.303 273.85 222.797 274.41 223.008 275.12C223.023 275.17 223.037 275.222 223.049 275.273Z" stroke="white" stroke-width="5.16938" stroke-linejoin="round"/>
<path d="M184.954 287.748L185.989 287.633L185.095 293.774C185.095 293.774 184.315 294.381 183.818 294.032C183.549 293.842 183.3 293.367 183.3 293.367L184.029 287.452L184.954 287.748Z" fill="#FCEDD8"/>
<path d="M185.039 287.248L184.954 287.748L184.029 287.452C184.029 287.452 184.639 287.21 185.039 287.248Z" fill="#B0183D"/>
<path d="M184.954 287.748L185.039 287.248C185.437 287.285 185.989 287.633 185.989 287.633L184.954 287.748Z" fill="#B0183D"/>
<path d="M196.28 274.789L186.674 277.688L184.954 287.748M184.954 287.748L185.989 287.633M184.954 287.748L184.029 287.452M184.954 287.748L185.039 287.248M185.989 287.633L185.095 293.774C185.095 293.774 184.315 294.381 183.818 294.032C183.549 293.842 183.3 293.367 183.3 293.367L184.029 287.452M185.989 287.633C185.989 287.633 185.437 287.285 185.039 287.248M184.029 287.452C184.029 287.452 184.639 287.21 185.039 287.248" stroke="#B0183D" stroke-width="0.376967"/>
<circle cx="144.847" cy="326.448" r="25.8469" fill="white"/>
<circle cx="240.222" cy="326.876" r="16.2835" fill="white"/>
<path d="M147.949 338.765L140.453 341.35C147.949 357.117 112.28 380.896 191.888 385.29C249.927 388.493 243.668 354.618 248.493 344.71L234.794 338.765C232.209 345.916 220.785 360.89 195.765 363.578C170.746 366.266 153.463 348.156 147.949 338.765Z" fill="white"/>
<path fill-rule="evenodd" clip-rule="evenodd" d="M156.585 340.649C155.47 342.136 152.507 341.269 151.165 340.649C156.069 349.475 171.151 365.736 192.509 365.115C218.456 364.361 227.649 348.764 232.258 340.944C232.38 340.737 232.499 340.535 232.614 340.34C231.685 340.907 229.425 341.702 227.814 340.34C227.034 339.68 226.743 338.694 226.218 336.924C225.981 336.122 225.696 335.158 225.295 333.991C222.22 330.894 214.683 324.948 205.516 325.939C196.349 326.93 193.025 341.836 192.509 349.166C191.993 341.836 188.669 326.93 179.502 325.939C170.335 324.948 161.893 330.894 158.817 333.991C158.502 334.992 158.226 335.918 157.98 336.744C157.39 338.724 156.97 340.136 156.585 340.649Z" fill="#FCEDD8"/>
<path d="M187.864 302.247C185.231 303.951 177.179 305.654 168.508 315.409C163.233 321.344 160.479 328.712 158.817 333.991C161.893 330.894 170.335 324.948 179.502 325.939C188.669 326.93 191.993 341.836 192.509 349.166C193.025 341.836 196.349 326.93 205.516 325.939C214.683 324.948 222.22 330.894 225.295 333.991C224.715 332.296 223.892 330.172 222.622 327.487C221.716 325.57 220.581 323.366 219.143 320.829C212.825 309.68 203.71 305.138 199.942 304.26V299.925C199.839 300.131 199.354 300.73 198.239 301.473C197.124 302.216 193.955 303.641 192.509 304.26V297.447C191.838 298.479 189.97 300.885 187.864 302.247Z" fill="#FF5E5E"/>
<path d="M217.594 302.247C220.072 298.407 224.821 294.866 226.885 293.576C227.35 294.969 228.155 299.986 227.659 302.712C227.164 305.437 225.595 309.628 224.872 312.157C224.614 311.899 223.912 311.259 223.169 310.764C222.426 310.268 220.898 310.557 220.227 310.764L221.93 307.822C221.569 307.667 220.444 307.357 218.833 307.357C217.223 307.357 215.169 307.667 214.343 307.822C214.394 307.564 215.117 306.087 217.594 302.247Z" fill="#FCEDD8"/>
<path fill-rule="evenodd" clip-rule="evenodd" d="M204.897 306.304C209.224 308.695 214.834 313.225 219.143 320.829C220.581 323.366 221.716 325.57 222.622 327.487L227.659 322.377C228.743 320.984 231.654 317.856 233.389 308.441C235.123 299.026 231.737 289.756 229.827 286.298C228.33 286.246 224.036 287.196 218.833 291.408C213.63 295.62 207.168 303.362 204.897 306.304ZM217.594 302.247C220.072 298.407 224.821 294.866 226.885 293.576C227.35 294.969 228.155 299.986 227.659 302.712C227.164 305.437 225.595 309.628 224.872 312.157C224.614 311.899 223.912 311.259 223.169 310.764C222.426 310.268 220.898 310.557 220.227 310.764L221.93 307.822C221.569 307.667 220.444 307.357 218.833 307.357C217.223 307.357 215.169 307.667 214.343 307.822C214.394 307.564 215.117 306.087 217.594 302.247Z" fill="#FF5E5E"/>
<path d="M165.256 303.176C162.779 299.336 158.03 295.795 155.965 294.505C155.501 295.899 154.696 300.916 155.191 303.641C155.687 306.366 157.256 310.557 157.978 313.087C158.236 312.828 158.938 312.188 159.682 311.693C160.425 311.197 161.953 311.486 162.624 311.693L160.92 308.751C161.282 308.596 162.407 308.286 164.017 308.286C165.628 308.286 167.682 308.596 168.508 308.751C168.456 308.493 167.734 307.017 165.256 303.176Z" fill="#FCEDD8"/>
<path fill-rule="evenodd" clip-rule="evenodd" d="M177.799 307.375C173.153 311.228 168.202 314.309 163.893 321.913C162.455 324.45 161.51 326.963 160.603 328.881L155.191 323.306C154.107 321.913 151.196 318.785 149.462 309.37C147.728 299.956 151.113 290.685 153.023 287.227C154.52 287.176 158.815 288.125 164.017 292.337C169.22 296.549 175.528 304.433 177.799 307.375ZM165.256 303.176C162.779 299.336 158.03 295.795 155.965 294.505C155.501 295.899 154.696 300.916 155.191 303.641C155.687 306.366 157.256 310.557 157.978 313.087C158.236 312.828 158.938 312.188 159.682 311.693C160.425 311.197 161.953 311.486 162.624 311.693L160.92 308.751C161.282 308.596 162.407 308.286 164.017 308.286C165.628 308.286 167.682 308.596 168.508 308.751C168.456 308.493 167.734 307.017 165.256 303.176Z" fill="#FF5E5E"/>
<path d="M217.207 289.399C212.589 293.137 207.135 299.412 204.183 303.048C203.6 302.781 203.046 302.551 202.527 302.358V299.925C202.527 298.726 201.702 297.684 200.536 297.409C199.445 297.151 198.322 297.627 197.742 298.567C197.724 298.587 197.697 298.616 197.659 298.653C197.513 298.796 197.242 299.031 196.805 299.322C196.511 299.519 195.894 299.847 195.094 300.239V297.447C195.094 296.302 194.341 295.294 193.244 294.969C192.147 294.644 190.966 295.079 190.342 296.038C189.759 296.936 188.127 298.998 186.46 300.077C186.118 300.298 185.486 300.571 184.621 300.943C183.137 301.582 180.971 302.515 178.424 303.985C175.501 300.32 170.22 294.033 165.644 290.328C160.123 285.859 155.238 284.565 152.934 284.644C152.026 284.675 151.2 285.182 150.761 285.978C148.67 289.764 145.043 299.649 146.92 309.838C147.825 314.751 149.057 318.128 150.264 320.514C151.327 322.612 152.356 323.898 152.932 324.618C153.015 324.721 153.088 324.813 153.151 324.893C153.209 324.968 153.271 325.039 153.337 325.107L157.605 329.503C157.123 330.826 156.71 332.076 156.352 333.215C156.031 334.235 155.75 335.177 155.505 336.001L155.503 336.006C155.203 337.015 154.966 337.806 154.76 338.411C154.694 338.603 154.637 338.759 154.588 338.885C154.496 338.887 154.376 338.884 154.226 338.868C153.538 338.797 152.742 338.53 152.248 338.302C151.233 337.834 150.031 338.071 149.271 338.891C148.51 339.711 148.363 340.927 148.906 341.904C151.538 346.642 156.787 353.203 164.154 358.521C171.547 363.856 181.203 368.029 192.584 367.699C206.117 367.305 215.45 363.019 222.015 357.685C228.494 352.421 232.138 346.237 234.45 342.314L234.484 342.257C234.607 342.049 234.724 341.849 234.839 341.656C235.443 340.634 235.274 339.332 234.429 338.499C233.584 337.666 232.28 337.515 231.267 338.134C231.071 338.253 230.631 338.444 230.181 338.495C229.764 338.542 229.585 338.452 229.484 338.366C229.481 338.364 229.476 338.36 229.47 338.353C229.464 338.346 229.456 338.336 229.445 338.32C229.417 338.28 229.367 338.196 229.296 338.029C229.133 337.65 228.975 337.128 228.697 336.19C228.696 336.187 228.695 336.184 228.694 336.181C228.451 335.36 228.156 334.366 227.744 333.162C227.743 333.159 227.742 333.156 227.741 333.153C227.26 331.751 226.62 330.063 225.716 328.031L229.5 324.192C229.571 324.12 229.638 324.044 229.7 323.964C229.762 323.884 229.836 323.792 229.918 323.689C230.494 322.969 231.523 321.683 232.586 319.585C233.794 317.199 235.026 313.822 235.931 308.909C237.808 298.72 234.181 288.835 232.09 285.049C231.65 284.253 230.825 283.746 229.916 283.715C227.612 283.635 222.727 284.93 217.207 289.399Z" stroke="white" stroke-width="5.16938" stroke-linejoin="round"/>
<path fill-rule="evenodd" clip-rule="evenodd" d="M176.305 337.58C176.733 337.243 177.249 337.088 177.799 337.088C178.332 337.088 178.86 337.235 179.291 337.605C179.704 337.96 179.9 338.412 179.999 338.783C180.155 339.367 180.136 340.067 180.124 340.507V340.507L180.124 340.507L180.124 340.507C180.122 340.571 180.121 340.628 180.12 340.68C180.11 341.272 179.842 341.807 179.526 342.178C179.219 342.539 178.669 342.97 177.929 342.97H177.268C176.549 342.97 176.006 342.567 175.694 342.182C175.38 341.795 175.14 341.238 175.187 340.626C175.19 340.585 175.194 340.542 175.197 340.495C175.231 340.033 175.284 339.302 175.519 338.688C175.659 338.322 175.894 337.904 176.305 337.58ZM206.035 337.58C206.463 337.243 206.98 337.088 207.529 337.088C208.063 337.088 208.591 337.235 209.021 337.605C209.434 337.96 209.631 338.412 209.73 338.783C209.886 339.367 209.866 340.067 209.854 340.507L209.854 340.507C209.853 340.57 209.851 340.628 209.85 340.68C209.84 341.272 209.572 341.807 209.257 342.178C208.95 342.539 208.399 342.97 207.659 342.97H206.998C206.28 342.97 205.737 342.567 205.425 342.182C205.11 341.795 204.87 341.238 204.918 340.626C204.921 340.585 204.924 340.542 204.927 340.495C204.961 340.033 205.015 339.302 205.249 338.688C205.39 338.322 205.625 337.904 206.035 337.58ZM190.365 349.002C190.442 349.087 190.524 349.166 190.61 349.238C190.445 349.848 190.198 350.492 189.861 351.044C189.33 351.916 188.7 352.38 187.954 352.419C186.862 352.477 186.353 352.104 186.068 351.761C185.728 351.353 185.584 350.829 185.52 350.486C185.394 349.814 184.746 349.371 184.074 349.497C183.402 349.623 182.959 350.27 183.085 350.943C183.175 351.426 183.418 352.45 184.163 353.345C184.962 354.306 186.233 354.991 188.084 354.893C189.962 354.795 191.216 353.582 191.977 352.333C192.084 352.157 192.184 351.977 192.277 351.794C192.37 351.977 192.47 352.157 192.577 352.333C193.338 353.582 194.592 354.795 196.47 354.893C198.321 354.991 199.592 354.306 200.391 353.345C201.135 352.45 201.378 351.426 201.469 350.943C201.595 350.27 201.152 349.623 200.48 349.497C199.807 349.371 199.16 349.814 199.034 350.486C198.97 350.829 198.826 351.353 198.486 351.761C198.201 352.104 197.692 352.477 196.6 352.419C195.854 352.38 195.224 351.916 194.693 351.044C194.335 350.458 194.079 349.768 193.914 349.125C193.955 349.086 193.995 349.044 194.034 349.002L195.817 347.037C197.261 345.445 196.132 342.895 193.982 342.895H190.417C188.267 342.895 187.138 345.445 188.582 347.037L190.365 349.002Z" fill="#B0183D"/>
<circle cx="141.639" cy="325.477" r="17.04" transform="rotate(-21.6368 141.639 325.477)" fill="#FFD464"/>
<circle cx="141.639" cy="325.477" r="13.68" transform="rotate(-21.6368 141.639 325.477)" fill="#DDB64E"/>
<circle cx="141.951" cy="325.612" r="11.52" transform="rotate(-21.6368 141.951 325.612)" fill="#FFD464"/>
<path d="M148.556 325.537C148.895 326.276 149.006 327.049 148.889 327.856C148.779 328.643 148.428 329.401 147.835 330.127C147.255 330.848 146.443 331.471 145.397 331.997L146.11 333.553L144.885 334.115L144.154 332.52C142.668 333.044 141.302 333.144 140.056 332.821C138.823 332.492 137.889 331.704 137.255 330.457L141.32 328.594C141.675 329.232 142.159 329.535 142.773 329.505L141.632 327.015C140.406 327.216 139.426 327.336 138.691 327.375C137.949 327.401 137.202 327.241 136.447 326.897C135.706 326.546 135.11 325.878 134.658 324.892C134.284 324.075 134.174 323.271 134.329 322.478C134.491 321.667 134.873 320.927 135.477 320.258C136.074 319.576 136.828 318.996 137.738 318.516L137.016 316.94L138.241 316.379L138.963 317.954C140.45 317.399 141.781 317.291 142.957 317.631C144.145 317.965 145.076 318.746 145.749 319.975L141.645 321.856C141.32 321.283 140.892 321.001 140.362 321.008L141.494 323.478L142.052 323.411C143.104 323.243 144 323.161 144.74 323.167C145.488 323.155 146.209 323.326 146.906 323.681C147.596 324.024 148.146 324.643 148.556 325.537ZM138.643 322.855C138.857 323.321 139.331 323.567 140.064 323.592L139.083 321.453C138.535 321.83 138.388 322.297 138.643 322.855ZM144.043 329.041C144.324 328.833 144.514 328.597 144.613 328.333C144.705 328.055 144.686 327.773 144.555 327.488C144.347 327.034 143.841 326.819 143.036 326.843L144.043 329.041Z" fill="#DDB64E"/>
<circle cx="241.019" cy="327.155" r="11.4676" transform="rotate(28.2481 241.019 327.155)" fill="#FFD464"/>
<circle cx="241.019" cy="327.155" r="9.20636" transform="rotate(28.2481 241.019 327.155)" fill="#DDB64E"/>
<circle cx="241.084" cy="327.374" r="7.75272" transform="rotate(28.2481 241.084 327.374)" fill="#FFD464"/>
<path d="M243.764 331.213C243.531 331.708 243.181 332.1 242.715 332.389C242.262 332.674 241.721 332.822 241.09 332.832C240.467 332.846 239.794 332.698 239.07 332.388L238.578 333.43L237.758 333.043L238.262 331.975C237.348 331.437 236.704 330.778 236.33 329.996C235.965 329.219 235.965 328.397 236.332 327.53L239.054 328.814C238.879 329.273 238.933 329.654 239.215 329.957L240.001 328.29C239.366 327.746 238.88 327.294 238.541 326.932C238.206 326.562 237.964 326.108 237.814 325.57C237.673 325.037 237.759 324.44 238.07 323.78C238.328 323.234 238.695 322.828 239.17 322.564C239.657 322.295 240.204 322.171 240.81 322.192C241.42 322.204 242.046 322.34 242.687 322.6L243.185 321.546L244.005 321.933L243.507 322.987C244.438 323.512 245.071 324.15 245.406 324.902C245.749 325.659 245.75 326.477 245.41 327.356L242.662 326.059C242.816 325.644 242.776 325.301 242.542 325.032L241.762 326.685L242.038 326.943C242.581 327.412 243.012 327.838 243.33 328.221C243.66 328.6 243.885 329.046 244.004 329.559C244.127 330.062 244.047 330.614 243.764 331.213ZM240.847 324.948C240.699 325.26 240.778 325.611 241.083 325.999L241.759 324.566C241.327 324.447 241.023 324.574 240.847 324.948ZM240.004 330.409C240.233 330.464 240.437 330.459 240.616 330.395C240.799 330.322 240.935 330.19 241.025 330C241.169 329.696 241.06 329.342 240.699 328.938L240.004 330.409Z" fill="#DDB64E"/>
<mask id="path-67-outside-1_32_5848" maskUnits="userSpaceOnUse" x="116.389" y="333.096" width="154" height="63" fill="black">
<rect fill="white" x="116.389" y="333.096" width="154" height="63"/>
<path d="M136.668 353.528C137.112 354.513 137.192 355.496 136.908 356.476C136.648 357.459 136.103 358.263 135.274 358.886C134.051 359.806 132.776 360.106 131.45 359.785C130.123 359.464 128.887 358.543 127.742 357.021L122.389 349.908L136.758 339.096L141.941 345.985C143.046 347.452 143.583 348.846 143.555 350.165C143.537 351.498 142.937 352.61 141.754 353.499C140.912 354.133 140.037 354.44 139.129 354.422C138.244 354.406 137.424 354.108 136.668 353.528ZM134.057 347.385L135.575 349.402C136.332 350.408 137.125 350.599 137.953 349.975C138.809 349.331 138.859 348.506 138.103 347.501L136.584 345.483L134.057 347.385ZM130.364 353.803C131.12 354.808 131.92 354.994 132.762 354.36C133.197 354.033 133.428 353.647 133.454 353.201C133.491 352.769 133.325 352.309 132.957 351.819L131.224 349.516L128.615 351.479L130.364 353.803Z"/>
<path d="M138.68 359.282C139.629 358.147 140.66 357.324 141.773 356.814C142.899 356.315 144.005 356.131 145.092 356.263C146.191 356.406 147.178 356.843 148.052 357.573C148.809 358.206 149.336 358.901 149.633 359.659C149.93 360.417 150.017 361.176 149.891 361.936L151.167 360.409L155.003 363.614L145.828 374.595L141.992 371.389L143.268 369.863C142.542 370.121 141.774 370.166 140.962 369.997C140.163 369.839 139.392 369.449 138.648 368.828C137.774 368.097 137.169 367.204 136.833 366.148C136.51 365.102 136.494 363.981 136.785 362.784C137.1 361.585 137.732 360.417 138.68 359.282ZM146.588 365.889C147.177 365.185 147.444 364.467 147.391 363.735C147.35 363.014 147.05 362.42 146.489 361.951C145.914 361.471 145.269 361.275 144.553 361.364C143.847 361.439 143.195 361.835 142.595 362.553C142.006 363.258 141.727 363.977 141.756 364.711C141.796 365.431 142.104 366.032 142.678 366.511C143.239 366.98 143.878 367.17 144.594 367.082C145.324 367.005 145.988 366.607 146.588 365.889Z"/>
<path d="M164.919 368.762C166.391 369.506 167.311 370.589 167.678 372.013C168.052 373.421 167.817 374.96 166.974 376.63L163.213 384.074L158.751 381.82L162.213 374.967C162.581 374.239 162.679 373.574 162.506 372.972C162.342 372.356 161.94 371.886 161.303 371.564C160.635 371.227 160.004 371.175 159.41 371.408C158.824 371.626 158.346 372.1 157.978 372.828L154.516 379.681L150.054 377.426L156.507 364.655L160.969 366.909L160.049 368.73C160.735 368.353 161.5 368.158 162.344 368.147C163.196 368.12 164.054 368.325 164.919 368.762Z"/>
<path d="M176.669 383.685L175.469 387.772L173.389 387.161C169.881 386.132 168.637 383.88 169.657 380.404L170.985 375.876L169.296 375.381L170.467 371.392L172.156 371.887L173.133 368.559L177.954 369.973L176.977 373.302L179.474 374.034L178.303 378.024L175.807 377.291L174.456 381.892C174.346 382.268 174.349 382.561 174.464 382.772C174.596 382.988 174.866 383.156 175.273 383.275L176.669 383.685Z"/>
<path d="M195.26 376.248L193.602 390.46L188.611 389.878L188.847 387.851C188.35 388.444 187.706 388.899 186.916 389.218C186.127 389.519 185.252 389.614 184.289 389.502C182.634 389.309 181.388 388.615 180.551 387.422C179.734 386.214 179.434 384.672 179.653 382.798L180.617 374.539L185.557 375.115L184.667 382.741C184.573 383.551 184.709 384.218 185.076 384.74C185.462 385.247 186.009 385.542 186.719 385.625C187.445 385.71 188.046 385.549 188.521 385.142C188.999 384.719 189.285 384.101 189.379 383.291L190.27 375.665L195.26 376.248Z"/>
<path d="M209.087 370.688C210.951 370.395 212.64 370.517 214.153 371.053C215.68 371.571 216.927 372.442 217.894 373.667C218.861 374.892 219.481 376.37 219.753 378.1C220.022 379.814 219.876 381.403 219.314 382.868C218.769 384.331 217.852 385.559 216.563 386.554C215.287 387.529 213.725 388.161 211.878 388.452L204.848 389.556L202.057 371.792L209.087 370.688ZM210.815 384.152C212.259 383.925 213.331 383.352 214.03 382.433C214.729 381.514 214.965 380.333 214.738 378.888C214.509 377.427 213.92 376.366 212.973 375.706C212.024 375.029 210.826 374.804 209.382 375.031L207.668 375.3L209.101 384.421L210.815 384.152Z"/>
<path d="M221.58 369.588C220.774 369.95 220.024 370.024 219.333 369.812C218.651 369.578 218.16 369.127 217.861 368.459C217.555 367.777 217.542 367.103 217.821 366.437C218.116 365.765 218.667 365.248 219.474 364.886C220.266 364.532 221.003 364.472 221.685 364.706C222.384 364.934 222.886 365.389 223.191 366.072C223.49 366.739 223.492 367.409 223.197 368.081C222.911 368.731 222.372 369.234 221.58 369.588ZM224.381 369.787L230.23 382.846L225.668 384.89L219.818 371.831L224.381 369.787Z"/>
<path d="M229.964 375.499C229.066 374.323 228.491 373.136 228.239 371.937C228.001 370.729 228.073 369.604 228.455 368.563C228.837 367.523 229.481 366.657 230.386 365.965C231.116 365.408 231.883 365.068 232.688 364.945C233.497 364.799 234.264 364.865 234.991 365.145L231.028 359.955L235.021 356.906L246.477 371.907L242.483 374.956L241.276 373.375C241.368 374.14 241.248 374.894 240.918 375.638C240.588 376.382 240.038 377.049 239.267 377.637C238.362 378.328 237.357 378.721 236.252 378.816C235.161 378.9 234.064 378.668 232.961 378.12C231.861 377.548 230.862 376.674 229.964 375.499ZM238.154 369.244C237.596 368.515 236.955 368.095 236.23 367.986C235.518 367.866 234.871 368.028 234.29 368.472C233.696 368.926 233.362 369.512 233.29 370.23C233.208 370.935 233.451 371.659 234.018 372.402C234.576 373.132 235.215 373.564 235.937 373.697C236.649 373.817 237.303 373.649 237.897 373.195C238.478 372.751 238.805 372.17 238.877 371.452C238.962 370.724 238.721 369.988 238.154 369.244Z"/>
<path d="M239.756 355.943C239.171 356.606 238.52 356.984 237.803 357.077C237.085 357.146 236.451 356.939 235.903 356.455C235.342 355.96 235.051 355.351 235.03 354.63C235.02 353.896 235.308 353.197 235.893 352.534C236.467 351.884 237.113 351.524 237.831 351.455C238.561 351.373 239.207 351.58 239.768 352.075C240.316 352.559 240.595 353.168 240.605 353.902C240.613 354.612 240.33 355.293 239.756 355.943ZM242.388 354.965L253.118 364.432L249.81 368.181L239.08 358.714L242.388 354.965Z"/>
<path d="M261.046 353.308L253.974 353.485L258.92 356.641L256.23 360.855L240.319 350.702L243.009 346.488L251.588 351.962L248.984 345.611L252.208 340.558L255.24 349.179L264.326 348.169L261.046 353.308Z"/>
</mask>
<path d="M136.668 353.528C137.112 354.513 137.192 355.496 136.908 356.476C136.648 357.459 136.103 358.263 135.274 358.886C134.051 359.806 132.776 360.106 131.45 359.785C130.123 359.464 128.887 358.543 127.742 357.021L122.389 349.908L136.758 339.096L141.941 345.985C143.046 347.452 143.583 348.846 143.555 350.165C143.537 351.498 142.937 352.61 141.754 353.499C140.912 354.133 140.037 354.44 139.129 354.422C138.244 354.406 137.424 354.108 136.668 353.528ZM134.057 347.385L135.575 349.402C136.332 350.408 137.125 350.599 137.953 349.975C138.809 349.331 138.859 348.506 138.103 347.501L136.584 345.483L134.057 347.385ZM130.364 353.803C131.12 354.808 131.92 354.994 132.762 354.36C133.197 354.033 133.428 353.647 133.454 353.201C133.491 352.769 133.325 352.309 132.957 351.819L131.224 349.516L128.615 351.479L130.364 353.803Z" fill="#B0183D"/>
<path d="M138.68 359.282C139.629 358.147 140.66 357.324 141.773 356.814C142.899 356.315 144.005 356.131 145.092 356.263C146.191 356.406 147.178 356.843 148.052 357.573C148.809 358.206 149.336 358.901 149.633 359.659C149.93 360.417 150.017 361.176 149.891 361.936L151.167 360.409L155.003 363.614L145.828 374.595L141.992 371.389L143.268 369.863C142.542 370.121 141.774 370.166 140.962 369.997C140.163 369.839 139.392 369.449 138.648 368.828C137.774 368.097 137.169 367.204 136.833 366.148C136.51 365.102 136.494 363.981 136.785 362.784C137.1 361.585 137.732 360.417 138.68 359.282ZM146.588 365.889C147.177 365.185 147.444 364.467 147.391 363.735C147.35 363.014 147.05 362.42 146.489 361.951C145.914 361.471 145.269 361.275 144.553 361.364C143.847 361.439 143.195 361.835 142.595 362.553C142.006 363.258 141.727 363.977 141.756 364.711C141.796 365.431 142.104 366.032 142.678 366.511C143.239 366.98 143.878 367.17 144.594 367.082C145.324 367.005 145.988 366.607 146.588 365.889Z" fill="#B0183D"/>
<path d="M164.919 368.762C166.391 369.506 167.311 370.589 167.678 372.013C168.052 373.421 167.817 374.96 166.974 376.63L163.213 384.074L158.751 381.82L162.213 374.967C162.581 374.239 162.679 373.574 162.506 372.972C162.342 372.356 161.94 371.886 161.303 371.564C160.635 371.227 160.004 371.175 159.41 371.408C158.824 371.626 158.346 372.1 157.978 372.828L154.516 379.681L150.054 377.426L156.507 364.655L160.969 366.909L160.049 368.73C160.735 368.353 161.5 368.158 162.344 368.147C163.196 368.12 164.054 368.325 164.919 368.762Z" fill="#B0183D"/>
<path d="M176.669 383.685L175.469 387.772L173.389 387.161C169.881 386.132 168.637 383.88 169.657 380.404L170.985 375.876L169.296 375.381L170.467 371.392L172.156 371.887L173.133 368.559L177.954 369.973L176.977 373.302L179.474 374.034L178.303 378.024L175.807 377.291L174.456 381.892C174.346 382.268 174.349 382.561 174.464 382.772C174.596 382.988 174.866 383.156 175.273 383.275L176.669 383.685Z" fill="#B0183D"/>
<path d="M195.26 376.248L193.602 390.46L188.611 389.878L188.847 387.851C188.35 388.444 187.706 388.899 186.916 389.218C186.127 389.519 185.252 389.614 184.289 389.502C182.634 389.309 181.388 388.615 180.551 387.422C179.734 386.214 179.434 384.672 179.653 382.798L180.617 374.539L185.557 375.115L184.667 382.741C184.573 383.551 184.709 384.218 185.076 384.74C185.462 385.247 186.009 385.542 186.719 385.625C187.445 385.71 188.046 385.549 188.521 385.142C188.999 384.719 189.285 384.101 189.379 383.291L190.27 375.665L195.26 376.248Z" fill="#B0183D"/>
<path d="M209.087 370.688C210.951 370.395 212.64 370.517 214.153 371.053C215.68 371.571 216.927 372.442 217.894 373.667C218.861 374.892 219.481 376.37 219.753 378.1C220.022 379.814 219.876 381.403 219.314 382.868C218.769 384.331 217.852 385.559 216.563 386.554C215.287 387.529 213.725 388.161 211.878 388.452L204.848 389.556L202.057 371.792L209.087 370.688ZM210.815 384.152C212.259 383.925 213.331 383.352 214.03 382.433C214.729 381.514 214.965 380.333 214.738 378.888C214.509 377.427 213.92 376.366 212.973 375.706C212.024 375.029 210.826 374.804 209.382 375.031L207.668 375.3L209.101 384.421L210.815 384.152Z" fill="#B0183D"/>
<path d="M221.58 369.588C220.774 369.95 220.024 370.024 219.333 369.812C218.651 369.578 218.16 369.127 217.861 368.459C217.555 367.777 217.542 367.103 217.821 366.437C218.116 365.765 218.667 365.248 219.474 364.886C220.266 364.532 221.003 364.472 221.685 364.706C222.384 364.934 222.886 365.389 223.191 366.072C223.49 366.739 223.492 367.409 223.197 368.081C222.911 368.731 222.372 369.234 221.58 369.588ZM224.381 369.787L230.23 382.846L225.668 384.89L219.818 371.831L224.381 369.787Z" fill="#B0183D"/>
<path d="M229.964 375.499C229.066 374.323 228.491 373.136 228.239 371.937C228.001 370.729 228.073 369.604 228.455 368.563C228.837 367.523 229.481 366.657 230.386 365.965C231.116 365.408 231.883 365.068 232.688 364.945C233.497 364.799 234.264 364.865 234.991 365.145L231.028 359.955L235.021 356.906L246.477 371.907L242.483 374.956L241.276 373.375C241.368 374.14 241.248 374.894 240.918 375.638C240.588 376.382 240.038 377.049 239.267 377.637C238.362 378.328 237.357 378.721 236.252 378.816C235.161 378.9 234.064 378.668 232.961 378.12C231.861 377.548 230.862 376.674 229.964 375.499ZM238.154 369.244C237.596 368.515 236.955 368.095 236.23 367.986C235.518 367.866 234.871 368.028 234.29 368.472C233.696 368.926 233.362 369.512 233.29 370.23C233.208 370.935 233.451 371.659 234.018 372.402C234.576 373.132 235.215 373.564 235.937 373.697C236.649 373.817 237.303 373.649 237.897 373.195C238.478 372.751 238.805 372.17 238.877 371.452C238.962 370.724 238.721 369.988 238.154 369.244Z" fill="#B0183D"/>
<path d="M239.756 355.943C239.171 356.606 238.52 356.984 237.803 357.077C237.085 357.146 236.451 356.939 235.903 356.455C235.342 355.96 235.051 355.351 235.03 354.63C235.02 353.896 235.308 353.197 235.893 352.534C236.467 351.884 237.113 351.524 237.831 351.455C238.561 351.373 239.207 351.58 239.768 352.075C240.316 352.559 240.595 353.168 240.605 353.902C240.613 354.612 240.33 355.293 239.756 355.943ZM242.388 354.965L253.118 364.432L249.81 368.181L239.08 358.714L242.388 354.965Z" fill="#B0183D"/>
<path d="M261.046 353.308L253.974 353.485L258.92 356.641L256.23 360.855L240.319 350.702L243.009 346.488L251.588 351.962L248.984 345.611L252.208 340.558L255.24 349.179L264.326 348.169L261.046 353.308Z" fill="#B0183D"/>
<path d="M136.668 353.528C137.112 354.513 137.192 355.496 136.908 356.476C136.648 357.459 136.103 358.263 135.274 358.886C134.051 359.806 132.776 360.106 131.45 359.785C130.123 359.464 128.887 358.543 127.742 357.021L122.389 349.908L136.758 339.096L141.941 345.985C143.046 347.452 143.583 348.846 143.555 350.165C143.537 351.498 142.937 352.61 141.754 353.499C140.912 354.133 140.037 354.44 139.129 354.422C138.244 354.406 137.424 354.108 136.668 353.528ZM134.057 347.385L135.575 349.402C136.332 350.408 137.125 350.599 137.953 349.975C138.809 349.331 138.859 348.506 138.103 347.501L136.584 345.483L134.057 347.385ZM130.364 353.803C131.12 354.808 131.92 354.994 132.762 354.36C133.197 354.033 133.428 353.647 133.454 353.201C133.491 352.769 133.325 352.309 132.957 351.819L131.224 349.516L128.615 351.479L130.364 353.803Z" stroke="white" stroke-width="10.3388" stroke-linejoin="round" mask="url(#path-67-outside-1_32_5848)"/>
<path d="M138.68 359.282C139.629 358.147 140.66 357.324 141.773 356.814C142.899 356.315 144.005 356.131 145.092 356.263C146.191 356.406 147.178 356.843 148.052 357.573C148.809 358.206 149.336 358.901 149.633 359.659C149.93 360.417 150.017 361.176 149.891 361.936L151.167 360.409L155.003 363.614L145.828 374.595L141.992 371.389L143.268 369.863C142.542 370.121 141.774 370.166 140.962 369.997C140.163 369.839 139.392 369.449 138.648 368.828C137.774 368.097 137.169 367.204 136.833 366.148C136.51 365.102 136.494 363.981 136.785 362.784C137.1 361.585 137.732 360.417 138.68 359.282ZM146.588 365.889C147.177 365.185 147.444 364.467 147.391 363.735C147.35 363.014 147.05 362.42 146.489 361.951C145.914 361.471 145.269 361.275 144.553 361.364C143.847 361.439 143.195 361.835 142.595 362.553C142.006 363.258 141.727 363.977 141.756 364.711C141.796 365.431 142.104 366.032 142.678 366.511C143.239 366.98 143.878 367.17 144.594 367.082C145.324 367.005 145.988 366.607 146.588 365.889Z" stroke="white" stroke-width="10.3388" stroke-linejoin="round" mask="url(#path-67-outside-1_32_5848)"/>
<path d="M164.919 368.762C166.391 369.506 167.311 370.589 167.678 372.013C168.052 373.421 167.817 374.96 166.974 376.63L163.213 384.074L158.751 381.82L162.213 374.967C162.581 374.239 162.679 373.574 162.506 372.972C162.342 372.356 161.94 371.886 161.303 371.564C160.635 371.227 160.004 371.175 159.41 371.408C158.824 371.626 158.346 372.1 157.978 372.828L154.516 379.681L150.054 377.426L156.507 364.655L160.969 366.909L160.049 368.73C160.735 368.353 161.5 368.158 162.344 368.147C163.196 368.12 164.054 368.325 164.919 368.762Z" stroke="white" stroke-width="10.3388" stroke-linejoin="round" mask="url(#path-67-outside-1_32_5848)"/>
<path d="M176.669 383.685L175.469 387.772L173.389 387.161C169.881 386.132 168.637 383.88 169.657 380.404L170.985 375.876L169.296 375.381L170.467 371.392L172.156 371.887L173.133 368.559L177.954 369.973L176.977 373.302L179.474 374.034L178.303 378.024L175.807 377.291L174.456 381.892C174.346 382.268 174.349 382.561 174.464 382.772C174.596 382.988 174.866 383.156 175.273 383.275L176.669 383.685Z" stroke="white" stroke-width="10.3388" stroke-linejoin="round" mask="url(#path-67-outside-1_32_5848)"/>
<path d="M195.26 376.248L193.602 390.46L188.611 389.878L188.847 387.851C188.35 388.444 187.706 388.899 186.916 389.218C186.127 389.519 185.252 389.614 184.289 389.502C182.634 389.309 181.388 388.615 180.551 387.422C179.734 386.214 179.434 384.672 179.653 382.798L180.617 374.539L185.557 375.115L184.667 382.741C184.573 383.551 184.709 384.218 185.076 384.74C185.462 385.247 186.009 385.542 186.719 385.625C187.445 385.71 188.046 385.549 188.521 385.142C188.999 384.719 189.285 384.101 189.379 383.291L190.27 375.665L195.26 376.248Z" stroke="white" stroke-width="10.3388" stroke-linejoin="round" mask="url(#path-67-outside-1_32_5848)"/>
<path d="M209.087 370.688C210.951 370.395 212.64 370.517 214.153 371.053C215.68 371.571 216.927 372.442 217.894 373.667C218.861 374.892 219.481 376.37 219.753 378.1C220.022 379.814 219.876 381.403 219.314 382.868C218.769 384.331 217.852 385.559 216.563 386.554C215.287 387.529 213.725 388.161 211.878 388.452L204.848 389.556L202.057 371.792L209.087 370.688ZM210.815 384.152C212.259 383.925 213.331 383.352 214.03 382.433C214.729 381.514 214.965 380.333 214.738 378.888C214.509 377.427 213.92 376.366 212.973 375.706C212.024 375.029 210.826 374.804 209.382 375.031L207.668 375.3L209.101 384.421L210.815 384.152Z" stroke="white" stroke-width="10.3388" stroke-linejoin="round" mask="url(#path-67-outside-1_32_5848)"/>
<path d="M221.58 369.588C220.774 369.95 220.024 370.024 219.333 369.812C218.651 369.578 218.16 369.127 217.861 368.459C217.555 367.777 217.542 367.103 217.821 366.437C218.116 365.765 218.667 365.248 219.474 364.886C220.266 364.532 221.003 364.472 221.685 364.706C222.384 364.934 222.886 365.389 223.191 366.072C223.49 366.739 223.492 367.409 223.197 368.081C222.911 368.731 222.372 369.234 221.58 369.588ZM224.381 369.787L230.23 382.846L225.668 384.89L219.818 371.831L224.381 369.787Z" stroke="white" stroke-width="10.3388" stroke-linejoin="round" mask="url(#path-67-outside-1_32_5848)"/>
<path d="M229.964 375.499C229.066 374.323 228.491 373.136 228.239 371.937C228.001 370.729 228.073 369.604 228.455 368.563C228.837 367.523 229.481 366.657 230.386 365.965C231.116 365.408 231.883 365.068 232.688 364.945C233.497 364.799 234.264 364.865 234.991 365.145L231.028 359.955L235.021 356.906L246.477 371.907L242.483 374.956L241.276 373.375C241.368 374.14 241.248 374.894 240.918 375.638C240.588 376.382 240.038 377.049 239.267 377.637C238.362 378.328 237.357 378.721 236.252 378.816C235.161 378.9 234.064 378.668 232.961 378.12C231.861 377.548 230.862 376.674 229.964 375.499ZM238.154 369.244C237.596 368.515 236.955 368.095 236.23 367.986C235.518 367.866 234.871 368.028 234.29 368.472C233.696 368.926 233.362 369.512 233.29 370.23C233.208 370.935 233.451 371.659 234.018 372.402C234.576 373.132 235.215 373.564 235.937 373.697C236.649 373.817 237.303 373.649 237.897 373.195C238.478 372.751 238.805 372.17 238.877 371.452C238.962 370.724 238.721 369.988 238.154 369.244Z" stroke="white" stroke-width="10.3388" stroke-linejoin="round" mask="url(#path-67-outside-1_32_5848)"/>
<path d="M239.756 355.943C239.171 356.606 238.52 356.984 237.803 357.077C237.085 357.146 236.451 356.939 235.903 356.455C235.342 355.96 235.051 355.351 235.03 354.63C235.02 353.896 235.308 353.197 235.893 352.534C236.467 351.884 237.113 351.524 237.831 351.455C238.561 351.373 239.207 351.58 239.768 352.075C240.316 352.559 240.595 353.168 240.605 353.902C240.613 354.612 240.33 355.293 239.756 355.943ZM242.388 354.965L253.118 364.432L249.81 368.181L239.08 358.714L242.388 354.965Z" stroke="white" stroke-width="10.3388" stroke-linejoin="round" mask="url(#path-67-outside-1_32_5848)"/>
<path d="M261.046 353.308L253.974 353.485L258.92 356.641L256.23 360.855L240.319 350.702L243.009 346.488L251.588 351.962L248.984 345.611L252.208 340.558L255.24 349.179L264.326 348.169L261.046 353.308Z" stroke="white" stroke-width="10.3388" stroke-linejoin="round" mask="url(#path-67-outside-1_32_5848)"/>
</g>
</g>
<defs>
<filter id="filter0_d_32_5848" x="200.673" y="152.586" width="42.968" height="41.295" filterUnits="userSpaceOnUse" color-interpolation-filters="sRGB">
<feFlood flood-opacity="0" result="BackgroundImageFix"/>
<feColorMatrix in="SourceAlpha" type="matrix" values="0 0 0 0 0 0 0 0 0 0 0 0 0 0 0 0 0 0 127 0" result="hardAlpha"/>
<feOffset dy="4.21658"/>
<feGaussianBlur stdDeviation="2.10829"/>
<feComposite in2="hardAlpha" operator="out"/>
<feColorMatrix type="matrix" values="0 0 0 0 0 0 0 0 0 0 0 0 0 0 0 0 0 0 0.25 0"/>
<feBlend mode="normal" in2="BackgroundImageFix" result="effect1_dropShadow_32_5848"/>
<feBlend mode="normal" in="SourceGraphic" in2="effect1_dropShadow_32_5848" result="shape"/>
</filter>
<filter id="filter1_d_32_5848" x="191.186" y="157.857" width="42.968" height="41.295" filterUnits="userSpaceOnUse" color-interpolation-filters="sRGB">
<feFlood flood-opacity="0" result="BackgroundImageFix"/>
<feColorMatrix in="SourceAlpha" type="matrix" values="0 0 0 0 0 0 0 0 0 0 0 0 0 0 0 0 0 0 127 0" result="hardAlpha"/>
<feOffset dy="4.21658"/>
<feGaussianBlur stdDeviation="2.10829"/>
<feComposite in2="hardAlpha" operator="out"/>
<feColorMatrix type="matrix" values="0 0 0 0 0 0 0 0 0 0 0 0 0 0 0 0 0 0 0.25 0"/>
<feBlend mode="normal" in2="BackgroundImageFix" result="effect1_dropShadow_32_5848"/>
<feBlend mode="normal" in="SourceGraphic" in2="effect1_dropShadow_32_5848" result="shape"/>
</filter>
<filter id="filter2_d_32_5848" x="181.621" y="161.265" width="42.968" height="41.295" filterUnits="userSpaceOnUse" color-interpolation-filters="sRGB">
<feFlood flood-opacity="0" result="BackgroundImageFix"/>
<feColorMatrix in="SourceAlpha" type="matrix" values="0 0 0 0 0 0 0 0 0 0 0 0 0 0 0 0 0 0 127 0" result="hardAlpha"/>
<feOffset dy="4.21658"/>
<feGaussianBlur stdDeviation="2.10829"/>
<feComposite in2="hardAlpha" operator="out"/>
<feColorMatrix type="matrix" values="0 0 0 0 0 0 0 0 0 0 0 0 0 0 0 0 0 0 0.25 0"/>
<feBlend mode="normal" in2="BackgroundImageFix" result="effect1_dropShadow_32_5848"/>
<feBlend mode="normal" in="SourceGraphic" in2="effect1_dropShadow_32_5848" result="shape"/>
</filter>
</defs>
</svg>
