<svg width="374" height="364" viewBox="0 0 374 364" fill="none" xmlns="http://www.w3.org/2000/svg">
<ellipse cx="190" cy="351.154" rx="97" ry="12" fill="#B0183D"/>
<ellipse cx="190" cy="351.154" rx="97" ry="12" fill="black" fill-opacity="0.2"/>
<path d="M314.584 62.2044L325.204 60.5053L311.598 95.2726C310.915 97.0161 309.193 98.122 307.328 97.9574C302.99 97.5746 294.66 96.6469 285.675 94.6245L295.532 65.7443L295.578 65.6081L299.245 54.8641L314.584 62.2044Z" fill="#B0183D"/>
<path d="M218.418 8.51624L314.584 52.7648V62.2044L299.245 54.8641L254.172 33.2954L220.886 17.3669C219.377 16.6453 218.418 15.1219 218.418 13.4501V8.51624Z" fill="#D24545"/>
<path d="M314.584 52.7648L373.582 45.095V49.062C373.582 51.1954 372.033 53.0127 369.926 53.3497L325.204 60.5053L314.584 62.2044V52.7648Z" fill="#B43737"/>
<path fill-rule="evenodd" clip-rule="evenodd" d="M373.582 45.095L282.69 1.39675C281.943 1.03744 281.108 0.899647 280.285 0.999661L218.418 8.51624C243.393 19.1359 298.301 40.7292 318.124 42.1451C337.948 43.5611 363.356 44.7017 373.582 45.095Z" fill="#E64B4B"/>
<path d="M373.582 45.095L314.584 52.7648L218.418 8.51624C243.393 19.1359 298.301 40.7292 318.124 42.1451C337.948 43.5611 363.356 44.7017 373.582 45.095Z" fill="#E64B4B"/>
<path fill-rule="evenodd" clip-rule="evenodd" d="M295.578 65.6081L295.532 65.7443L285.675 94.6245C276.264 92.506 266.136 89.1864 259.126 84.0337C253.831 80.1412 247.558 73.175 244.723 69.8995C243.76 68.7874 243.464 67.2577 243.906 65.8549L254.172 33.2954C258.183 36.2453 269.274 44.269 281.545 52.7648C293.218 60.8459 295.747 64.5854 295.578 65.6081Z" fill="#E64B4B"/>
<path d="M254.172 33.2954L299.245 54.8641L295.578 65.6081C295.747 64.5854 293.218 60.8459 281.545 52.7648C269.274 44.269 258.183 36.2453 254.172 33.2954Z" fill="#B0183D"/>
<path d="M257.059 59.5575L260.306 59.8445L253.764 78.1339C253.764 78.1339 250.994 79.5122 249.687 78.1339C248.977 77.3864 248.507 75.774 248.507 75.774L254.406 58.0746L257.059 59.5575Z" fill="#FCEDD8"/>
<path d="M257.632 58.0746L257.059 59.5575L254.406 58.0746C254.406 58.0746 256.426 57.7106 257.632 58.0746Z" fill="#B0183D"/>
<path d="M257.059 59.5575L257.632 58.0746C258.831 58.4365 260.306 59.8445 260.306 59.8445L257.059 59.5575Z" fill="#B0183D"/>
<path d="M299.835 26.8056L268.566 29.7555L257.059 59.5575M257.059 59.5575L260.306 59.8445M257.059 59.5575L254.406 58.0746M257.059 59.5575L257.632 58.0746M260.306 59.8445L253.764 78.1339C253.764 78.1339 250.994 79.5122 249.687 78.1339C248.977 77.3864 248.507 75.774 248.507 75.774L254.406 58.0746M260.306 59.8445C260.306 59.8445 258.831 58.4365 257.632 58.0746M254.406 58.0746C254.406 58.0746 256.426 57.7106 257.632 58.0746" stroke="#B0183D" stroke-width="1.17996"/>
<path d="M259.993 230.079C239.115 238.278 234.897 256.337 235.398 264.342C234.902 266.155 234.031 269.706 233.004 274.556C234.044 274.891 236.026 275.191 238.653 275.035C241.485 274.868 245.067 274.171 249.026 272.419C256.658 269.042 260.391 264.557 261.303 262.736L263.253 286.251L278.955 266.325L280.01 290.837C280.435 290.403 281.142 289.858 281.978 289.213C283.972 287.674 286.695 285.574 288.03 283.094C289.921 279.583 292.5 272.724 292.882 269.205C291.299 263.859 289.717 258.806 288.818 254.117C285.952 239.171 294.454 228.227 299.064 224.623C294.739 223.025 280.87 221.88 259.993 230.079Z" fill="#FCEDD8"/>
<path fill-rule="evenodd" clip-rule="evenodd" d="M238.653 275.035C243.945 289.232 254.769 320.423 255.727 331.616C256.686 342.809 248.938 346.702 244.944 347.249C260.937 346.55 276.812 340.471 288.888 323.081C302.325 303.73 297.604 285.159 292.882 269.205C292.5 272.724 289.921 279.583 288.03 283.094C286.695 285.574 283.972 287.674 281.978 289.213C281.142 289.858 280.435 290.403 280.01 290.837L278.955 266.325L263.253 286.251L261.303 262.736C260.391 264.557 256.658 269.042 249.026 272.419C245.067 274.171 241.485 274.868 238.653 275.035Z" fill="#FF5E5E"/>
<path d="M229.434 294.076C226.554 312.543 199.337 340.498 221.98 345.142C229.381 346.66 237.177 347.589 244.944 347.249C248.938 346.702 256.686 342.809 255.727 331.616C254.769 320.423 243.945 289.232 238.653 275.035C236.026 275.191 234.044 274.891 233.004 274.556C231.905 279.751 230.625 286.437 229.434 294.076Z" fill="#E64B4B"/>
<path fill-rule="evenodd" clip-rule="evenodd" d="M235.958 349.589C254.969 339.749 235.448 294.173 235.448 294.173C235.088 295.165 234.715 296.157 234.347 297.133C233.878 298.377 233.418 299.597 233.008 300.763C224.19 325.828 216.361 342.01 213.192 347.492C213.796 348.459 214.656 350.295 214.976 352.285C214.976 352.285 228.621 353.386 235.958 349.589ZM151.199 352.285C151.199 352.285 138.383 353.09 131.416 349.589C112.287 339.978 130.992 294.772 130.992 294.772C131.371 295.858 131.72 296.8 132.076 297.76C132.421 298.693 132.774 299.644 133.167 300.763C141.985 325.828 149.814 342.01 152.983 347.492C152.379 348.459 151.519 350.295 151.199 352.285Z" fill="#FF5E5E"/>
<path d="M206.302 359.474C208.998 359.774 213.192 360.073 214.69 356.179C215.163 354.949 215.184 353.584 214.976 352.285C214.656 350.295 213.796 348.459 213.192 347.492C216.361 342.01 224.19 325.828 233.008 300.763C233.008 300.763 221.28 310.348 213.192 314.242C206.959 317.243 196.864 321.733 196.864 321.733C196.819 317.589 196.923 325.061 196.864 321.733C196.975 331.846 197.1 343.339 197.515 351.087C197.792 356.261 198.197 359.765 198.814 360.073C200.731 361.032 202.209 359.274 202.708 358.276C203.007 358.575 204.146 359.234 206.302 359.474Z" fill="#B0183D"/>
<path d="M151.485 356.179C152.983 360.073 157.177 359.774 159.873 359.474C162.029 359.234 163.168 358.575 163.467 358.276C163.967 359.274 165.444 361.032 167.361 360.073C167.978 359.765 168.383 356.261 168.66 351.087C169.075 343.339 169.201 331.846 169.311 321.733C169.311 321.733 159.216 317.243 152.983 314.242C144.895 310.348 133.167 300.763 133.167 300.763C141.985 325.828 149.814 342.01 152.983 347.492C152.379 348.459 151.519 350.295 151.199 352.285C150.991 353.584 151.012 354.949 151.485 356.179Z" fill="#B0183D"/>
<path fill-rule="evenodd" clip-rule="evenodd" d="M129.319 255.45C130.117 253.049 131.053 250.824 132.076 248.817C141.741 253.751 166.103 262.481 186.233 257.928C206.362 253.375 217.985 242.052 221.28 236.96C221.28 232.091 229.575 240.072 234.713 254.034C234.109 255.571 233.374 257.628 232.53 259.988C228.77 270.506 222.854 287.056 216.786 290.578C209.358 294.892 205.703 295.172 204.805 294.772C204.206 296.47 201.749 300.284 196.717 301.961C191.685 303.639 189.029 303.659 188.33 303.459L184.436 308.551L178.445 303.459C177.746 303.659 175.09 303.639 170.057 301.961C165.025 300.284 162.569 296.47 161.97 294.772C161.071 295.172 157.416 294.892 149.988 290.578C142.559 286.265 132.614 263.837 129.319 255.45Z" fill="#FCEDD8"/>
<path d="M221.28 236.96L147.292 239.356C143.939 234.519 136.998 239.156 132.076 248.817C141.741 253.751 166.103 262.481 186.233 257.928C206.362 253.375 217.985 242.052 221.28 236.96Z" fill="#E6CEAC"/>
<path fill-rule="evenodd" clip-rule="evenodd" d="M129.319 255.45C126.347 264.393 125.281 275.792 128.72 287.583C129.67 290.84 130.372 292.999 130.992 294.772C131.371 295.858 131.72 296.8 132.076 297.76C132.421 298.693 132.774 299.644 133.167 300.763C133.167 300.763 144.895 310.348 152.983 314.242C159.216 317.243 169.311 321.733 169.311 321.733L177.546 353.688C179.496 354.099 181.496 354.39 183.237 354.382C185.431 354.372 188.042 353.885 190.427 353.289L196.864 321.733C196.864 321.733 206.959 317.243 213.192 314.242C221.28 310.348 233.008 300.763 233.008 300.763C233.418 299.597 233.878 298.377 234.347 297.133C234.715 296.157 235.088 295.165 235.448 294.173C236.263 291.926 237.007 289.675 237.455 287.583C240.128 275.109 238.11 263.265 234.713 254.034C234.109 255.571 233.374 257.628 232.53 259.988C228.77 270.506 222.854 287.056 216.786 290.578C209.358 294.892 205.703 295.172 204.805 294.772C204.206 296.47 201.749 300.284 196.717 301.961C191.685 303.639 189.029 303.659 188.33 303.459L184.436 308.551L178.445 303.459C177.746 303.659 175.09 303.639 170.057 301.961C165.025 300.284 162.569 296.47 161.97 294.772C161.071 295.172 157.416 294.892 149.988 290.578C142.559 286.265 132.614 263.837 129.319 255.45Z" fill="#FF5E5E"/>
<path d="M169.311 321.733C169.201 331.846 169.075 343.339 168.66 351.087C168.66 351.087 172.963 352.722 177.546 353.688L169.311 321.733Z" fill="#D74646"/>
<path d="M197.515 351.087C197.1 343.339 196.975 331.846 196.864 321.733L190.427 353.289C194.262 352.33 197.515 351.087 197.515 351.087Z" fill="#D74646"/>
<path fill-rule="evenodd" clip-rule="evenodd" d="M114.642 210C112.485 212.876 106.754 211.199 104.157 210C113.643 227.075 142.819 258.53 184.136 257.329C234.329 255.87 252.112 225.698 261.028 210.571C261.264 210.17 261.494 209.78 261.718 209.401C259.921 210.5 255.548 212.037 252.433 209.401C250.924 208.125 250.36 206.218 249.346 202.794C248.886 201.242 248.334 199.378 247.56 197.12C241.611 191.129 227.031 179.627 209.298 181.544C191.565 183.461 185.135 212.297 184.136 226.476C183.138 212.297 176.707 183.461 158.974 181.544C141.241 179.627 124.909 191.129 118.96 197.12C118.351 199.056 117.817 200.847 117.341 202.447C116.2 206.277 115.386 209.007 114.642 210Z" fill="#FCEDD8"/>
<path d="M175.15 135.713C170.058 139.008 154.481 142.303 137.707 161.175C127.501 172.655 122.174 186.908 118.96 197.12C124.909 191.129 141.241 179.627 158.974 181.544C176.707 183.461 183.138 212.297 184.136 226.476C185.135 212.297 191.565 183.461 209.298 181.544C227.031 179.627 241.611 191.129 247.56 197.12C246.437 193.842 244.845 189.733 242.389 184.539C240.635 180.829 238.439 176.567 235.658 171.659C223.437 150.091 205.803 141.305 198.515 139.607V131.22C198.315 131.619 197.376 132.778 195.22 134.215C193.063 135.653 186.932 138.409 184.136 139.607V126.427C182.838 128.424 179.224 133.077 175.15 135.713Z" fill="#FF5E5E"/>
<path d="M232.663 135.713C237.456 128.284 246.642 121.435 250.636 118.939C251.534 121.634 253.092 131.34 252.133 136.612C251.175 141.884 248.139 149.991 246.741 154.884C246.242 154.385 244.884 153.147 243.446 152.188C242.009 151.23 239.053 151.789 237.755 152.188L241.05 146.497C240.351 146.197 238.174 145.598 235.059 145.598C231.944 145.598 227.97 146.197 226.372 146.497C226.472 145.998 227.87 143.142 232.663 135.713Z" fill="#FCEDD8"/>
<path fill-rule="evenodd" clip-rule="evenodd" d="M208.1 143.56C216.471 148.186 227.323 156.95 235.658 171.659C238.439 176.567 240.635 180.829 242.389 184.539L252.133 174.654C254.23 171.958 259.861 165.907 263.216 147.695C266.571 129.483 260.021 111.55 256.327 104.86C253.431 104.76 245.124 106.597 235.059 114.745C224.994 122.893 212.493 137.869 208.1 143.56ZM232.663 135.713C237.456 128.284 246.642 121.435 250.636 118.939C251.534 121.634 253.092 131.34 252.133 136.612C251.175 141.884 248.139 149.991 246.741 154.884C246.242 154.385 244.884 153.147 243.446 152.188C242.009 151.23 239.053 151.789 237.755 152.188L241.05 146.497C240.351 146.197 238.174 145.598 235.059 145.598C231.944 145.598 227.97 146.197 226.372 146.497C226.472 145.998 227.87 143.142 232.663 135.713Z" fill="#FF5E5E"/>
<path d="M131.416 137.51C126.623 130.082 117.437 123.232 113.443 120.736C112.545 123.432 110.987 133.137 111.946 138.409C112.904 143.681 115.939 151.789 117.337 156.681C117.837 156.182 119.195 154.944 120.632 153.985C122.07 153.027 125.026 153.586 126.324 153.985L123.029 148.294C123.728 147.994 125.904 147.395 129.02 147.395C132.135 147.395 136.109 147.994 137.706 148.294C137.607 147.795 136.209 144.939 131.416 137.51Z" fill="#FCEDD8"/>
<path fill-rule="evenodd" clip-rule="evenodd" d="M155.679 145.632C146.693 153.087 137.114 159.047 128.779 173.755C125.998 178.664 124.169 183.525 122.414 187.235L111.946 176.451C109.849 173.755 104.217 167.705 100.862 149.492C97.5074 131.28 104.057 113.347 107.752 106.657C110.647 106.557 118.955 108.395 129.02 116.542C139.084 124.69 151.286 139.941 155.679 145.632ZM131.416 137.51C126.623 130.082 117.437 123.232 113.443 120.736C112.545 123.432 110.987 133.137 111.946 138.409C112.904 143.681 115.939 151.789 117.337 156.681C117.837 156.182 119.195 154.944 120.632 153.985C122.07 153.027 125.026 153.586 126.324 153.985L123.029 148.294C123.728 147.994 125.904 147.395 129.02 147.395C132.135 147.395 136.109 147.994 137.706 148.294C137.607 147.795 136.209 144.939 131.416 137.51Z" fill="#FF5E5E"/>
<path fill-rule="evenodd" clip-rule="evenodd" d="M155.282 207.553C155.282 207.553 155.282 207.554 155.284 207.557L155.282 207.553ZM152.789 204.064C153.617 203.411 154.616 203.111 155.679 203.111C156.712 203.111 157.733 203.397 158.565 204.112C159.364 204.799 159.745 205.673 159.936 206.391C160.237 207.519 160.2 208.875 160.177 209.725C160.174 209.848 160.171 209.96 160.169 210.06C160.149 211.205 159.631 212.24 159.02 212.958C158.426 213.656 157.362 214.49 155.931 214.49H154.652C153.262 214.49 152.212 213.71 151.608 212.966C151 212.216 150.535 211.139 150.627 209.956C150.633 209.877 150.639 209.793 150.646 209.703C150.711 208.808 150.814 207.395 151.269 206.207C151.54 205.498 151.995 204.69 152.789 204.064ZM210.302 204.064C211.13 203.411 212.129 203.111 213.192 203.111C214.224 203.111 215.246 203.397 216.078 204.112C216.877 204.799 217.257 205.673 217.449 206.391C217.75 207.519 217.713 208.875 217.69 209.725C217.687 209.848 217.684 209.96 217.682 210.06C217.662 211.205 217.144 212.24 216.533 212.958C215.939 213.656 214.875 214.49 213.443 214.49H212.165C210.775 214.49 209.724 213.71 209.121 212.966C208.512 212.216 208.048 211.139 208.14 209.956C208.146 209.877 208.152 209.793 208.159 209.703C208.224 208.808 208.327 207.395 208.782 206.207C209.053 205.498 209.508 204.69 210.302 204.064ZM179.987 226.158C180.137 226.323 180.296 226.475 180.462 226.615C180.143 227.795 179.664 229.04 179.013 230.108C177.985 231.795 176.766 232.693 175.323 232.769C173.212 232.88 172.227 232.159 171.675 231.496C171.018 230.706 170.74 229.692 170.615 229.029C170.371 227.729 169.119 226.872 167.818 227.116C166.518 227.36 165.661 228.612 165.905 229.913C166.08 230.847 166.55 232.829 167.99 234.56C169.536 236.419 171.995 237.744 175.575 237.555C179.208 237.364 181.634 235.018 183.106 232.602C183.313 232.262 183.507 231.913 183.687 231.559C183.866 231.913 184.06 232.262 184.267 232.602C185.739 235.018 188.165 237.364 191.798 237.555C195.378 237.744 197.838 236.419 199.383 234.56C200.823 232.829 201.293 230.847 201.469 229.913C201.713 228.612 200.856 227.36 199.555 227.116C198.254 226.872 197.002 227.729 196.758 229.029C196.634 229.692 196.355 230.706 195.698 231.496C195.147 232.159 194.162 232.88 192.05 232.769C190.607 232.693 189.388 231.795 188.36 230.108C187.669 228.974 187.172 227.641 186.854 226.397C186.933 226.321 187.011 226.241 187.087 226.158L190.535 222.357C193.329 219.277 191.144 214.344 186.985 214.344H180.089C175.93 214.344 173.745 219.277 176.539 222.357L179.987 226.158Z" fill="#B0183D"/>
<ellipse opacity="0.5" cx="271.275" cy="329.516" rx="36.5446" ry="25.1619" fill="#D74646"/>
<path d="M302.239 346.051C301.901 341.529 307.89 337.835 309.54 336.906C309.814 336.752 310.118 336.673 310.432 336.659L346.884 335.027V352.113V352.665L308.302 355.42C308.302 355.42 302.551 350.218 302.239 346.051Z" fill="#FCEDD8"/>
<path d="M308.302 355.42L346.884 352.665L348.537 353.216C348.799 353.74 348.443 354.362 347.859 354.401L308.302 357.074V355.42Z" fill="#FF5E5E"/>
<path d="M348.537 353.216L346.884 352.665V352.113L348.537 353.216Z" fill="#FF5E5E"/>
<path d="M289.011 329.516L346.829 333.37C347.832 333.437 347.88 334.894 346.884 335.027L267.681 333.758L255.1 333.556C256.971 332.035 259.104 331.104 260.682 330.675C260.828 330.636 260.978 330.615 261.129 330.609L289.011 329.516Z" fill="#C73030"/>
<path fill-rule="evenodd" clip-rule="evenodd" d="M310.432 336.659C310.118 336.673 309.814 336.752 309.54 336.906C307.89 337.835 301.901 341.529 302.239 346.051C302.551 350.218 308.302 355.42 308.302 355.42V357.074L262.004 353.216C260.202 350.827 256.897 344.96 258.095 340.599C259.293 336.237 264.985 334.221 267.681 333.758L346.884 335.027L310.432 336.659Z" fill="#FF5E5E"/>
<path d="M262.004 353.216C258.697 353.216 251.863 351.232 250.981 343.295C250.482 338.805 252.547 335.632 255.1 333.556L267.681 333.758C264.985 334.221 259.293 336.237 258.095 340.599C256.897 344.96 260.202 350.827 262.004 353.216Z" fill="#C73030"/>
<path d="M276.454 316.29C276.768 316.304 277.072 316.383 277.346 316.537C278.996 317.466 284.985 321.16 284.647 325.681C284.335 329.849 278.584 335.051 278.584 335.051V336.705L324.882 332.847C328.189 332.847 335.023 330.862 335.905 322.926C336.77 315.143 329.932 311.317 326.202 310.306C326.056 310.266 325.908 310.246 325.757 310.24L297.875 309.146L240.057 313.001C239.054 313.068 239.006 314.525 240.003 314.658L276.454 316.29Z" fill="#B0183D"/>
<path d="M284.647 325.681C284.985 321.16 278.996 317.466 277.346 316.537C277.072 316.383 276.768 316.304 276.454 316.29L240.003 314.658V331.744V332.295L278.584 335.051C278.584 335.051 284.335 329.849 284.647 325.681Z" fill="#FCEDD8"/>
<path d="M278.584 335.051L240.003 332.295L238.349 332.847C238.087 333.371 238.443 333.992 239.028 334.032L278.584 336.705V335.051Z" fill="#B0183D"/>
<path d="M238.349 332.847L240.003 332.295V331.744L238.349 332.847Z" fill="#B0183D"/>
<path d="M57.0214 91.0268C57.0214 98.1405 62.7881 103.907 69.9018 103.907C74.6736 103.907 78.8393 101.313 81.0649 97.457C78.4888 98.7484 71.791 100.816 65.6083 98.7551C59.4257 96.6942 57.3076 92.7442 57.0214 91.0268Z" fill="#DDB64E"/>
<path d="M69.9018 78.1463C62.7881 78.1463 57.0214 83.9131 57.0214 91.0268C57.3076 92.7442 59.4257 96.6942 65.6083 98.7551C71.791 100.816 78.4888 98.7484 81.0649 97.457C82.1573 95.5647 82.7823 93.3687 82.7823 91.0268C82.7823 83.9131 77.0155 78.1463 69.9018 78.1463Z" fill="#FFD464"/>
<path d="M322.546 237.574C318.609 243.499 320.221 251.494 326.146 255.431C330.12 258.072 335.025 258.216 339.013 256.237C336.153 255.887 329.43 253.902 325.421 248.764C321.412 243.625 321.834 239.163 322.546 237.574Z" fill="#B0183D"/>
<path d="M340.403 233.975C334.478 230.038 326.483 231.65 322.546 237.574C321.834 239.163 321.412 243.625 325.421 248.764C329.43 253.902 336.153 255.887 339.013 256.237C340.97 255.265 342.706 253.782 344.002 251.832C347.939 245.907 346.328 237.912 340.403 233.975Z" fill="#FF5E5E"/>
<path d="M59.3806 86.9664C55.4435 92.8912 57.0549 100.886 62.9797 104.823C66.954 107.464 71.8596 107.608 75.8471 105.629C72.9869 105.279 66.2641 103.294 62.2553 98.1556C58.2465 93.0173 58.6685 88.5552 59.3806 86.9664Z" fill="#B0183D"/>
<path d="M77.2372 83.3672C71.3123 79.4301 63.3176 81.0415 59.3806 86.9664C58.6685 88.5552 58.2465 93.0173 62.2553 98.1556C66.2641 103.294 72.9869 105.279 75.8471 105.629C77.8042 104.657 79.5402 103.174 80.8364 101.224C84.7734 95.299 83.162 87.3043 77.2372 83.3672Z" fill="#FF5E5E"/>
<circle cx="296.59" cy="178.019" r="27.6464" transform="rotate(13.0439 296.59 178.019)" fill="#FFD464"/>
<circle cx="296.59" cy="178.019" r="22.195" transform="rotate(13.0439 296.59 178.019)" fill="#DDB64E"/>
<circle cx="296.882" cy="178.486" r="18.6905" transform="rotate(13.0439 296.882 178.486)" fill="#FFD464"/>
<path d="M305.644 185.158C305.413 186.457 304.848 187.59 303.947 188.559C303.074 189.508 301.906 190.194 300.445 190.616C299.006 191.042 297.346 191.124 295.466 190.861L294.981 193.595L292.827 193.213L293.325 190.41C290.859 189.738 288.944 188.61 287.579 187.029C286.238 185.451 285.719 183.537 286.025 181.288L293.168 182.556C293.052 183.734 293.418 184.586 294.265 185.113L295.041 180.738C293.22 179.874 291.802 179.129 290.785 178.502C289.772 177.852 288.922 176.949 288.234 175.793C287.569 174.641 287.39 173.199 287.697 171.467C287.952 170.032 288.548 168.857 289.486 167.942C290.451 167.009 291.644 166.375 293.067 166.04C294.494 165.682 296.035 165.603 297.692 165.803L298.183 163.035L300.336 163.417L299.845 166.185C302.342 166.816 304.217 167.901 305.472 169.44C306.749 170.983 307.27 172.885 307.033 175.146L299.822 173.866C299.916 172.802 299.607 172.03 298.893 171.551L298.122 175.891L298.928 176.316C300.488 177.063 301.759 177.782 302.741 178.474C303.749 179.146 304.554 180.041 305.155 181.158C305.76 182.253 305.923 183.586 305.644 185.158ZM294.895 172.428C294.749 173.248 295.154 174.013 296.109 174.723L296.776 170.964C295.696 170.96 295.068 171.448 294.895 172.428ZM296.388 185.666C296.955 185.649 297.426 185.509 297.802 185.247C298.181 184.962 298.416 184.569 298.505 184.067C298.646 183.27 298.169 182.515 297.073 181.804L296.388 185.666Z" fill="#DDB64E"/>
<circle cx="80.1569" cy="305.586" r="14.4341" transform="rotate(-21.6368 80.1569 305.586)" fill="#FFD464"/>
<circle cx="80.1569" cy="305.586" r="11.588" transform="rotate(-21.6368 80.1569 305.586)" fill="#DDB64E"/>
<circle cx="80.4208" cy="305.7" r="9.7583" transform="rotate(-21.6368 80.4208 305.7)" fill="#FFD464"/>
<path d="M86.2313 306.107C86.5182 306.733 86.6121 307.388 86.5132 308.071C86.4202 308.738 86.1227 309.379 85.6206 309.995C85.1295 310.605 84.4412 311.133 83.5556 311.579L84.1595 312.897L83.1216 313.373L82.5025 312.022C81.244 312.465 80.0869 312.55 79.0312 312.276C77.9865 311.998 77.1955 311.33 76.6584 310.274L80.1018 308.696C80.4024 309.236 80.8126 309.493 81.3325 309.468L80.3662 307.359C79.3278 307.529 78.4972 307.631 77.8744 307.663C77.2465 307.685 76.6132 307.55 75.9744 307.258C75.3465 306.961 74.8414 306.395 74.4589 305.561C74.1419 304.869 74.0488 304.187 74.1798 303.516C74.3167 302.828 74.6407 302.201 75.152 301.635C75.6582 301.057 76.2966 300.565 77.0673 300.159L76.4559 298.825L77.4938 298.349L78.1053 299.684C79.3647 299.213 80.4923 299.121 81.4881 299.409C82.4948 299.692 83.2832 300.354 83.8533 301.396L80.377 302.988C80.1016 302.503 79.7394 302.264 79.2905 302.27L80.2492 304.363L80.7214 304.306C81.6129 304.163 82.3721 304.094 82.9991 304.099C83.632 304.088 84.2434 304.234 84.8332 304.535C85.418 304.825 85.884 305.349 86.2313 306.107ZM77.8343 303.835C78.0155 304.23 78.4166 304.438 79.0376 304.459L78.2072 302.647C77.7422 302.966 77.6179 303.362 77.8343 303.835ZM82.4082 309.075C82.6466 308.899 82.8075 308.699 82.8908 308.475C82.9691 308.24 82.9529 308.001 82.8421 307.759C82.666 307.375 82.237 307.193 81.5551 307.213L82.4082 309.075Z" fill="#DDB64E"/>
<circle cx="163.729" cy="69.4296" r="32.9633" transform="rotate(-21.6368 163.729 69.4296)" fill="#FFD464"/>
<circle cx="163.729" cy="69.4295" r="26.4635" transform="rotate(-21.6368 163.729 69.4295)" fill="#DDB64E"/>
<circle cx="164.332" cy="69.69" r="22.285" transform="rotate(-21.6368 164.332 69.69)" fill="#FFD464"/>
<path d="M177.321 70.0068C177.976 71.4365 178.19 72.9315 177.964 74.4918C177.752 76.0155 177.073 77.4801 175.926 78.8856C174.804 80.2796 173.233 81.4855 171.21 82.5032L172.589 85.5132L170.219 86.5993L168.805 83.514C165.931 84.5274 163.289 84.7215 160.878 84.0962C158.492 83.4595 156.686 81.935 155.459 79.5228L163.323 75.9198C164.009 77.1531 164.946 77.7405 166.133 77.6821L163.927 72.8661C161.555 73.2546 159.658 73.4864 158.236 73.5615C156.802 73.6115 155.356 73.303 153.897 72.6361C152.463 71.9577 151.309 70.6653 150.436 68.7589C149.712 67.1787 149.499 65.622 149.799 64.0889C150.111 62.5192 150.851 61.0876 152.019 59.7939C153.175 58.4751 154.633 57.3518 156.393 56.424L154.996 53.3764L157.367 52.2903L158.763 55.3379C161.639 54.2629 164.215 54.0541 166.489 54.7118C168.788 55.3579 170.588 56.8698 171.89 59.2475L163.951 62.8851C163.322 61.7772 162.495 61.2305 161.47 61.245L163.659 66.0234L164.738 65.8934C166.774 65.5676 168.507 65.4105 169.939 65.4222C171.385 65.3973 172.781 65.7287 174.128 66.4165C175.463 67.0793 176.528 68.276 177.321 70.0068ZM158.145 64.8173C158.558 65.7203 159.474 66.1959 160.892 66.2441L158.996 62.1054C157.934 62.8347 157.65 63.7387 158.145 64.8173ZM168.59 76.7842C169.134 76.3829 169.502 75.9263 169.692 75.4142C169.871 74.877 169.834 74.3325 169.581 73.7807C169.179 72.9028 168.199 72.4867 166.642 72.5325L168.59 76.7842Z" fill="#DDB64E"/>
<path d="M25.596 261.427L38.837 214.578L43.7351 216.331L31.9311 259.155L25.596 261.427Z" fill="#E23C64"/>
<path d="M58.8748 221.749L46.5896 271.422L42.4279 264.153L53.9767 219.996L58.8748 221.749Z" fill="#E23C64"/>
<path d="M90.123 267.324L58.8748 221.749L63.7932 218.4L91.5647 259.392L90.123 267.324Z" fill="#E23C64"/>
<path d="M78.9954 208.048L112.088 255.807L102.547 253.633L74.077 211.397L78.9954 208.048Z" fill="#E23C64"/>
<path d="M102.547 253.633L93.0065 251.46L91.5647 259.392L63.7932 218.4L74.077 211.397L102.547 253.633Z" fill="#FCEDD8"/>
<path d="M42.4279 264.153L38.2662 256.884L31.9311 259.155L43.7351 216.331L53.9767 219.996L42.4279 264.153Z" fill="#FCEDD8"/>
<path d="M71.1406 167.216C67.9987 162.969 62.0369 162.013 57.7251 165.067L55.0547 166.957C53.0102 168.405 50.4853 169.006 48.0078 168.636L44.7717 168.152C39.5465 167.37 34.6554 170.91 33.7654 176.118L33.2142 179.343C32.7921 181.812 31.432 184.023 29.418 185.513L26.7874 187.459C22.5398 190.601 21.5845 196.562 24.6376 200.874L26.5285 203.545C27.9762 205.589 28.5775 208.114 28.2068 210.591L27.7227 213.827C26.9409 219.053 30.4809 223.944 35.6888 224.834L38.9141 225.385C41.3834 225.807 43.594 227.167 45.0838 229.181L47.0296 231.812C50.1716 236.059 56.1333 237.015 60.4452 233.962L63.1156 232.071C65.1601 230.623 67.685 230.022 70.1625 230.392L73.3986 230.877C78.6237 231.658 83.5148 228.118 84.4049 222.91L84.9561 219.685C85.3781 217.216 86.7383 215.005 88.7523 213.515L91.3829 211.57C95.6304 208.428 96.5857 202.466 93.5326 198.154L91.6417 195.484C90.1941 193.439 89.5928 190.914 89.9634 188.437L90.4476 185.201C91.2294 179.975 87.6893 175.084 82.4815 174.194L79.2562 173.643C76.7869 173.221 74.5763 171.861 73.0865 169.847L71.1406 167.216Z" fill="#E23C64"/>
<circle cx="23.5291" cy="23.5291" r="23.5291" transform="matrix(-0.987038 0.160484 0.160484 0.987038 78.6536 172.347)" fill="#FCEDD8"/>
<path d="M56.3734 181.929L54.5826 194.23L42.6307 196.174L53.4758 201.833L51.685 214.135L60.1785 205.331L71.0236 210.991L65.4277 199.89L73.9212 191.086L61.9693 193.029L56.3734 181.929Z" fill="#E23C64"/>
</svg>
