<svg width="98" height="97" viewBox="0 0 98 97" fill="none" xmlns="http://www.w3.org/2000/svg">
<mask id="mask0_29_4207" style="mask-type:alpha" maskUnits="userSpaceOnUse" x="0" y="0" width="98" height="97">
<circle cx="49" cy="48.5" r="48.5" fill="#D9D9D9"/>
</mask>
<g mask="url(#mask0_29_4207)">
<rect x="-0.866211" y="-1.36621" width="101.099" height="98.3662" fill="#FFD464"/>
<path d="M77.2325 68.7684C69.1838 71.9293 67.5577 78.8914 67.7508 81.9773C67.5594 82.6764 67.2239 84.0452 66.828 85.9151C67.2289 86.0441 67.993 86.1596 69.0058 86.0997C70.0975 86.0351 71.4782 85.7666 73.0046 85.0913C75.947 83.7894 77.386 82.0601 77.7378 81.3582L78.4893 90.4237L84.5427 82.7417L84.9496 92.1918C85.1132 92.0245 85.386 91.814 85.7081 91.5655C86.477 90.9724 87.5265 90.1627 88.0413 89.2067C88.7703 87.8529 89.7647 85.2086 89.9118 83.852C89.3017 81.791 88.6917 79.8433 88.345 78.0355C87.2401 72.2736 90.518 68.0544 92.2951 66.665C90.6279 66.0491 85.2812 65.6074 77.2325 68.7684Z" fill="#FCEDD8"/>
<path fill-rule="evenodd" clip-rule="evenodd" d="M69.0058 86.0997C71.046 91.5727 75.2186 103.598 75.5882 107.913C75.9577 112.228 72.9706 113.728 71.4309 113.94C77.5966 113.67 83.7165 111.326 88.3719 104.622C93.5523 97.162 91.7322 90.0025 89.9118 83.852C89.7647 85.2086 88.7703 87.8529 88.0413 89.2067C87.5265 90.1627 86.477 90.9724 85.7081 91.5655C85.386 91.814 85.1132 92.0245 84.9496 92.1918L84.5427 82.7417L78.4893 90.4237L77.7378 81.3582C77.386 82.0601 75.947 83.7894 73.0046 85.0913C71.4782 85.7666 70.0975 86.0351 69.0058 86.0997Z" fill="#FF5E5E"/>
<path d="M65.4516 93.4404C64.3412 100.56 53.8489 111.337 62.5778 113.127C65.4313 113.712 68.4365 114.071 71.4309 113.94C72.9706 113.728 75.9577 112.228 75.5882 107.913C75.2186 103.598 71.046 91.5727 69.0058 86.0997C67.993 86.1596 67.2289 86.0441 66.828 85.9151C66.4041 87.9178 65.9109 90.4951 65.4516 93.4404Z" fill="#E64B4B"/>
<path fill-rule="evenodd" clip-rule="evenodd" d="M26.8664 78.5449C27.1742 77.6191 27.5349 76.7615 27.9292 75.9876C31.6552 77.8898 41.0473 81.2554 48.8076 79.5002C56.5678 77.7449 61.0484 73.3797 62.3187 71.4166C62.3187 69.5396 65.5167 72.6165 67.4976 77.9989C67.2647 78.5916 66.9812 79.3845 66.6559 80.2945C65.2063 84.3492 62.9254 90.7294 60.5865 92.0875C57.7226 93.7504 56.3137 93.8582 55.9673 93.7042C55.7363 94.3586 54.7894 95.829 52.8493 96.4757C50.9093 97.1224 49.8853 97.1301 49.6159 97.0531L48.1147 99.0162L45.8051 97.0531C45.5356 97.1301 44.5117 97.1224 42.5716 96.4757C40.6316 95.829 39.6846 94.3586 39.4537 93.7042C39.1072 93.8582 37.6984 93.7504 34.8345 92.0875C31.9706 90.4246 28.1367 81.7783 26.8664 78.5449Z" fill="#FCEDD8"/>
<path d="M62.3187 71.4166L33.7952 72.3404C32.5026 70.4756 29.8268 72.2632 27.9292 75.9876C31.6552 77.8898 41.0473 81.2554 48.8076 79.5002C56.5678 77.7449 61.0484 73.3797 62.3187 71.4166Z" fill="#E6CEAC"/>
<path d="M68.7431 89.9372C68.7409 89.9225 68.7388 89.9079 68.7366 89.8934C68.6551 90.2387 68.5639 90.5852 68.4626 90.9327C68.0964 92.1883 67.8257 93.0206 67.5867 93.7042C67.4404 94.1229 67.306 94.4858 67.1688 94.8561C67.0356 95.2158 66.9592 95.5816 66.7481 96.0138C65.4437 98.684 63.4583 99.4132 59.7558 99.0162C58.7032 98.9034 57.8176 98.725 57.0736 98.5185C55.4541 98.069 54.5062 97.4862 53.9687 97.1557C53.6676 96.9706 53.4952 96.8646 53.4057 96.9056C53.1474 97.0236 53.1546 97.2418 53.1904 97.3361C53.0828 97.1926 52.7384 96.9056 52.2218 96.9056C51.576 96.9056 50.7552 97.0066 50.3921 97.5513C49.9615 98.1971 50.0874 99.9192 50.8226 100.027C50.9749 100.049 51.2349 100.395 51.6223 100.909C53.1053 102.88 56.4546 107.33 62.7695 105.624C66.5725 104.596 68.4787 100.974 69.0303 97.1208L69.0582 96.9137C69.3792 94.3916 69.0042 91.7138 68.7431 89.9372Z" fill="#B0183D"/>
<path d="M27.5113 93.7042C27.2724 93.0206 27.0017 92.1883 26.6354 90.9327C26.5341 90.5852 26.4429 90.2387 26.3614 89.8934C26.093 91.7179 25.9752 94.348 26.3478 96.9505C26.8993 100.803 28.5256 104.596 32.3286 105.624C38.6434 107.33 41.9927 102.88 43.4757 100.909C43.8631 100.395 44.1232 100.049 44.2754 100.027C45.0106 99.9192 45.1365 98.1971 44.706 97.5513C44.3428 97.0066 43.522 96.9056 42.8763 96.9056C42.3596 96.9056 42.0152 97.1926 41.9076 97.3361C41.9435 97.2418 41.9506 97.0236 41.6923 96.9056C41.6028 96.8646 41.4304 96.9706 41.1293 97.1557C40.3449 97.638 38.6866 98.6576 35.3422 99.0162C31.6397 99.4132 29.6543 98.684 28.3499 96.0138C28.2106 95.7287 28.13 95.4725 28.053 95.2278C28.0133 95.1016 27.9745 94.9785 27.9292 94.8561C27.792 94.4858 27.6576 94.1229 27.5113 93.7042Z" fill="#B0183D"/>
<path fill-rule="evenodd" clip-rule="evenodd" d="M26.8664 78.5449C28.1367 81.7783 31.9706 90.4246 34.8345 92.0875C37.6984 93.7504 39.1072 93.8582 39.4537 93.7042C39.6846 94.3586 40.6316 95.829 42.5716 96.4757C44.5117 97.1224 45.5356 97.1301 45.8051 97.0531L48.1147 99.0162L49.6159 97.0531C49.8853 97.1301 50.9093 97.1224 52.8493 96.4757C54.7894 95.829 55.7363 94.3586 55.9673 93.7042C56.3137 93.8582 57.7226 93.7504 60.5865 92.0875C62.9254 90.7294 65.2063 84.3492 66.6559 80.2945C66.9812 79.3845 67.2647 78.5916 67.4976 77.9989C68.5955 80.9822 69.3195 84.6737 68.9179 88.6225C68.3349 90.2394 66.592 93.9813 64.2848 96.0138C61.9776 98.0463 58.516 98.5305 57.0736 98.5185C55.4541 98.069 54.5062 97.4862 53.9687 97.1557C53.6676 96.9706 53.4952 96.8646 53.4057 96.9056C53.1474 97.0236 53.1546 97.2418 53.1904 97.3361C53.0828 97.1926 52.7384 96.9056 52.2218 96.9056C51.576 96.9056 50.7552 97.0066 50.3921 97.5513C49.9615 98.1971 50.0874 99.9192 50.8226 100.027C50.9749 100.049 51.2349 100.395 51.6223 100.909C53.1053 102.88 56.4546 107.33 62.7695 105.624C66.5725 104.596 68.4787 100.974 69.0303 97.1208C69.0401 97.0519 69.0494 96.9828 69.0582 96.9137C70.8294 102.228 73.2557 112.105 67.9772 114.837C67.5982 115.247 66.3075 116.24 64.1772 116.929C62.0469 117.618 58.2016 118.002 56.5452 118.109C49.86 117.584 48.5298 116.428 48.2283 115.551C48.1819 115.416 48.0884 115.288 48.002 115.17C47.9124 115.047 47.8306 114.935 47.8175 114.837C47.8043 114.936 47.7257 115.049 47.6395 115.173C47.558 115.29 47.4697 115.418 47.4237 115.551C47.1222 116.428 45.7921 117.584 39.1068 118.109C37.4504 118.002 33.6051 117.618 31.4748 116.929C29.3445 116.24 28.0539 115.247 27.6748 114.837C22.3078 112.14 24.666 102.176 26.3478 96.9505C26.8993 100.803 28.5256 104.596 32.3286 105.624C38.6434 107.33 41.9927 102.88 43.4757 100.909C43.8631 100.395 44.1232 100.049 44.2754 100.027C45.0106 99.9192 45.1365 98.1971 44.706 97.5513C44.3428 97.0066 43.522 96.9056 42.8763 96.9056C42.3596 96.9056 42.0152 97.1926 41.9076 97.3361C41.9435 97.2418 41.9506 97.0236 41.6923 96.9056C41.6028 96.8646 41.4304 96.9706 41.1293 97.1557C40.3449 97.638 38.6866 98.6576 35.3422 99.0162C31.6397 99.4132 29.6543 98.684 28.3499 96.0138C28.2106 95.7287 28.13 95.4725 28.053 95.2278C28.0133 95.1016 27.9745 94.9785 27.9292 94.8561C27.792 94.4858 27.6576 94.1229 27.5113 93.7042C27.2724 93.0206 27.0017 92.1883 26.6354 90.9327C26.5341 90.5852 26.4429 90.2387 26.3614 89.8934C25.3767 85.7208 25.8081 81.7292 26.8664 78.5449Z" fill="#FF5E5E"/>
<path d="M67.5867 93.7042C67.8257 93.0206 68.0964 92.1883 68.4626 90.9327C68.5639 90.5852 68.6551 90.2387 68.7366 89.8934L68.7431 89.9372C68.8157 89.4962 68.8736 89.0578 68.9179 88.6225C68.3349 90.2394 66.592 93.9813 64.2848 96.0138C61.9776 98.0463 58.516 98.5305 57.0736 98.5185C57.8176 98.725 58.7032 98.9034 59.7558 99.0162C63.4583 99.4132 65.4437 98.684 66.7481 96.0138C66.9592 95.5816 67.0356 95.2158 67.1688 94.8561C67.306 94.4858 67.4404 94.1229 67.5867 93.7042Z" fill="#FF5E5E"/>
<path d="M67.5867 93.7042C67.8257 93.0206 68.0964 92.1883 68.4626 90.9327C68.5639 90.5852 68.6551 90.2387 68.7366 89.8934L68.7431 89.9372C68.8157 89.4962 68.8736 89.0578 68.9179 88.6225C68.3349 90.2394 66.592 93.9813 64.2848 96.0138C61.9776 98.0463 58.516 98.5305 57.0736 98.5185C57.8176 98.725 58.7032 98.9034 59.7558 99.0162C63.4583 99.4132 65.4437 98.684 66.7481 96.0138C66.9592 95.5816 67.0356 95.2158 67.1688 94.8561C67.306 94.4858 67.4404 94.1229 67.5867 93.7042Z" fill="black" fill-opacity="0.2"/>
<path d="M27.4346 93.7042C27.1956 93.0206 26.9249 92.1883 26.5587 90.9327C26.4574 90.5852 26.3662 90.2387 26.2847 89.8934L26.2782 89.9372C26.2056 89.4962 26.1476 89.0578 26.1034 88.6225C26.6864 90.2394 28.4292 93.9813 30.7365 96.0138C33.0437 98.0463 36.5053 98.5305 37.9476 98.5185C37.2037 98.725 36.3181 98.9034 35.2654 99.0162C31.563 99.4132 29.5776 98.684 28.2732 96.0138C28.062 95.5816 27.9856 95.2158 27.8524 94.8561C27.7153 94.4858 27.5809 94.1229 27.4346 93.7042Z" fill="#FF5E5E"/>
<path d="M27.4346 93.7042C27.1956 93.0206 26.9249 92.1883 26.5587 90.9327C26.4574 90.5852 26.3662 90.2387 26.2847 89.8934L26.2782 89.9372C26.2056 89.4962 26.1476 89.0578 26.1034 88.6225C26.6864 90.2394 28.4292 93.9813 30.7365 96.0138C33.0437 98.0463 36.5053 98.5305 37.9476 98.5185C37.2037 98.725 36.3181 98.9034 35.2654 99.0162C31.563 99.4132 29.5776 98.684 28.2732 96.0138C28.062 95.5816 27.9856 95.2158 27.8524 94.8561C27.7153 94.4858 27.5809 94.1229 27.4346 93.7042Z" fill="black" fill-opacity="0.2"/>
<path fill-rule="evenodd" clip-rule="evenodd" d="M21.1977 61.0278C20.3663 62.1364 18.1567 61.4897 17.1559 61.0278C20.8128 67.6102 32.0605 79.7367 47.9891 79.2736C67.339 78.7111 74.1948 67.0794 77.6321 61.2478C77.7231 61.0933 77.8118 60.9429 77.8982 60.7969C77.2053 61.2203 75.5194 61.8131 74.3184 60.7969C73.7368 60.3047 73.5192 59.5698 73.1282 58.2496C72.9511 57.6513 72.7383 56.9328 72.44 56.0622C70.1464 53.7526 64.5258 49.3182 57.6894 50.0573C50.853 50.7963 48.374 61.9132 47.9891 67.3792C47.6041 61.9132 45.1251 50.7963 38.2887 50.0573C31.4523 49.3182 25.1561 53.7526 22.8625 56.0622C22.6276 56.8087 22.4219 57.4991 22.2383 58.1157C21.7984 59.5923 21.4848 60.645 21.1977 61.0278Z" fill="#FCEDD8"/>
<path d="M44.5246 32.3889C42.5615 33.6591 36.5565 34.9294 30.0897 42.2046C26.1554 46.6307 24.1017 52.1253 22.8625 56.0622C25.1561 53.7526 31.4523 49.3182 38.2887 50.0573C45.1251 50.7963 47.6041 61.9132 47.9891 67.3792C48.374 61.9132 50.853 50.7963 57.6894 50.0573C64.5258 49.3182 70.1464 53.7526 72.44 56.0622C72.0069 54.7985 71.3934 53.2143 70.4465 51.2121C69.7702 49.7819 68.9238 48.1386 67.8516 46.2464C63.14 37.9319 56.3421 34.5445 53.5321 33.8901V30.6567C53.4551 30.8106 53.0933 31.2572 52.2618 31.8115C51.4304 32.3658 49.0669 33.4282 47.9891 33.8901V28.809C47.4886 29.5788 46.0951 31.3726 44.5246 32.3889Z" fill="#FF5E5E"/>
<path d="M66.6968 32.3889C68.5445 29.525 72.0858 26.8843 73.6255 25.922C73.972 26.9613 74.5725 30.7029 74.2029 32.7353C73.8334 34.7677 72.6632 37.8934 72.1243 39.7796C71.9319 39.5871 71.4083 39.1098 70.854 38.7402C70.2997 38.3707 69.1603 38.5863 68.6599 38.7402L69.9302 36.5461C69.6607 36.4307 68.8216 36.1997 67.6206 36.1997C66.4196 36.1997 64.8876 36.4307 64.2717 36.5461C64.3102 36.3537 64.8491 35.2528 66.6968 32.3889Z" fill="#FCEDD8"/>
<path fill-rule="evenodd" clip-rule="evenodd" d="M57.2274 35.4141C60.4547 37.1972 64.6383 40.576 67.8516 46.2464C68.9238 48.1386 69.7702 49.7819 70.4465 51.2121L74.2029 47.4012C75.0113 46.3619 77.1822 44.0292 78.4756 37.008C79.769 29.9869 77.2438 23.0735 75.8196 20.4944C74.7033 20.4559 71.5007 21.1642 67.6206 24.3053C63.7405 27.4463 58.9211 33.22 57.2274 35.4141ZM66.6968 32.3889C68.5445 29.525 72.0858 26.8843 73.6255 25.922C73.972 26.9613 74.5725 30.7029 74.2029 32.7353C73.8334 34.7677 72.6632 37.8934 72.1243 39.7796C71.9319 39.5871 71.4083 39.1098 70.854 38.7402C70.2997 38.3707 69.1603 38.5863 68.6599 38.7402L69.9302 36.5461C69.6607 36.4307 68.8216 36.1997 67.6206 36.1997C66.4196 36.1997 64.8876 36.4307 64.2717 36.5461C64.3102 36.3537 64.8491 35.2528 66.6968 32.3889Z" fill="#FF5E5E"/>
<path d="M27.6645 33.0817C25.8169 30.2178 22.2755 27.5772 20.7357 26.6149C20.3893 27.6542 19.7888 31.3957 20.1583 33.4282C20.5279 35.4606 21.6981 38.5863 22.237 40.4724C22.4294 40.28 22.953 39.8027 23.5073 39.4331C24.0616 39.0636 25.201 39.2792 25.7014 39.4331L24.4311 37.239C24.7006 37.1235 25.5397 36.8926 26.7407 36.8926C27.9417 36.8926 29.4737 37.1235 30.0896 37.239C30.0511 37.0465 29.5122 35.9456 27.6645 33.0817Z" fill="#FCEDD8"/>
<path fill-rule="evenodd" clip-rule="evenodd" d="M37.0184 36.2128C33.554 39.0867 29.8613 41.3843 26.648 47.0548C25.5758 48.9469 24.8706 50.8213 24.1943 52.2514L20.1583 48.0941C19.35 47.0548 17.179 44.7221 15.8856 37.7009C14.5922 30.6798 17.1174 23.7664 18.5416 21.1873C19.6579 21.1488 22.8606 21.8571 26.7407 24.9981C30.6208 28.1392 35.3247 34.0187 37.0184 36.2128ZM27.6645 33.0817C25.8169 30.2178 22.2755 27.5772 20.7357 26.6149C20.3893 27.6542 19.7888 31.3957 20.1583 33.4282C20.5279 35.4606 21.6981 38.5863 22.237 40.4724C22.4294 40.28 22.953 39.8027 23.5073 39.4331C24.0616 39.0636 25.201 39.2792 25.7014 39.4331L24.4311 37.239C24.7006 37.1235 25.5397 36.8926 26.7407 36.8926C27.9417 36.8926 29.4737 37.1235 30.0896 37.239C30.0511 37.0465 29.5122 35.9456 27.6645 33.0817Z" fill="#FF5E5E"/>
<path fill-rule="evenodd" clip-rule="evenodd" d="M35.9046 62.3913C36.2239 62.6431 36.609 62.7588 37.0188 62.7588C37.4168 62.7588 37.8105 62.6487 38.1315 62.3728C38.4394 62.1081 38.5861 61.7711 38.66 61.4942C38.776 61.0593 38.7617 60.5367 38.7528 60.2091V60.2091C38.7515 60.1617 38.7503 60.1184 38.7497 60.08C38.7421 59.6383 38.5425 59.2396 38.3069 58.9626C38.0779 58.6934 37.6675 58.372 37.1157 58.372H36.6228C36.0869 58.372 35.682 58.6728 35.4493 58.9595C35.2148 59.2485 35.0357 59.6639 35.0711 60.12L35.0784 60.2176C35.1036 60.5624 35.1433 61.1072 35.3185 61.5652C35.4231 61.8387 35.5984 62.1499 35.9046 62.3913ZM58.0773 62.3913C58.3966 62.6431 58.7817 62.7588 59.1915 62.7588C59.5895 62.7588 59.9832 62.6487 60.3041 62.3728C60.612 62.1081 60.7588 61.7711 60.8326 61.4942C60.9487 61.0593 60.9344 60.5367 60.9255 60.2091C60.9242 60.1617 60.923 60.1184 60.9224 60.08C60.9148 59.6383 60.7151 59.2396 60.4796 58.9626C60.2506 58.6934 59.8402 58.372 59.2884 58.372H58.7954C58.2596 58.372 57.8547 58.6728 57.622 58.9595C57.3874 59.2485 57.2084 59.6639 57.2438 60.12L57.2511 60.2176V60.2176C57.2762 60.5624 57.316 61.1072 57.4912 61.5652C57.5957 61.8387 57.7711 62.1499 58.0773 62.3913ZM46.3891 67.2568C46.4473 67.3209 46.5089 67.38 46.5733 67.434C46.4502 67.8888 46.2658 68.3685 46.0151 68.7799C45.6187 69.4302 45.1487 69.7766 44.5924 69.8058C43.7783 69.8487 43.3986 69.5705 43.186 69.3149C42.9328 69.0105 42.8254 68.6195 42.7775 68.364C42.6834 67.8626 42.2007 67.5322 41.6992 67.6263C41.1977 67.7203 40.8674 68.2031 40.9614 68.7045C41.029 69.0649 41.2102 69.8288 41.7654 70.4963C42.3612 71.2127 43.3095 71.7236 44.6895 71.651C46.0903 71.5772 47.0253 70.6726 47.5928 69.7415C47.6726 69.6105 47.747 69.4764 47.8162 69.3403C47.8854 69.4764 47.9598 69.6105 48.0397 69.7415C48.6071 70.6726 49.5422 71.5772 50.9429 71.651C52.3229 71.7236 53.2712 71.2127 53.867 70.4963C54.4222 69.8288 54.6034 69.0649 54.671 68.7045C54.765 68.2031 54.4347 67.7203 53.9332 67.6263C53.4317 67.5322 52.949 67.8626 52.855 68.364C52.8071 68.6195 52.6996 69.0105 52.4464 69.3149C52.2338 69.5705 51.8541 69.8487 51.04 69.8058C50.4837 69.7766 50.0137 69.4302 49.6174 68.7799C49.3509 68.3427 49.1594 67.8283 49.0367 67.3488C49.0672 67.3194 49.097 67.2887 49.126 67.2568L50.4553 65.7916C51.5325 64.6043 50.6901 62.7024 49.0869 62.7024H46.4282C44.825 62.7024 43.9826 64.6043 45.0598 65.7916L46.3891 67.2568Z" fill="#B0183D"/>
<path d="M57.0722 75.8145H38.3446C37.7502 75.8145 37.2683 76.2964 37.2683 76.8908V102.83C37.2683 103.424 37.7502 103.906 38.3446 103.906H57.0722C57.6666 103.906 58.1485 103.424 58.1485 102.83V76.8908C58.1485 76.2964 57.6666 75.8145 57.0722 75.8145Z" fill="#FFD464" stroke="#FFD464" stroke-width="0.215259"/>
<path fill-rule="evenodd" clip-rule="evenodd" d="M62.7597 105.628L64.832 98.5244C63.8684 99.1604 62.5786 99.3094 60.5178 99.0884C57.1149 98.7236 53.9448 96.2995 52.3765 95.1002C51.8118 94.6684 51.4547 94.3954 51.3692 94.4345C51.1109 94.5525 51.1181 94.9859 51.154 95.0803C51.0464 94.9367 50.2714 94.4345 49.7548 94.4345C49.109 94.4345 48.2883 94.966 47.9251 95.5108C47.4946 96.1565 47.9817 98.0717 48.5709 98.5244C48.659 98.5921 48.8391 98.8139 49.1047 99.1409C50.7842 101.209 55.8824 107.487 62.7597 105.628Z" fill="#B0183D"/>
<path d="M68.4528 90.9371C68.0866 92.1927 67.8159 93.025 67.577 93.7086C67.4306 94.1273 67.2962 94.4902 67.1591 94.8605C67.0259 95.2202 66.9495 95.586 66.7383 96.0182C66.16 97.2021 65.5995 98.0178 64.832 98.5244L62.7597 105.628C66.5627 104.6 68.4689 100.978 69.0205 97.1252L69.0485 96.9181C69.3694 94.396 68.9944 91.7182 68.7333 89.9416L68.7269 89.8978C68.6454 90.2431 68.5542 90.5896 68.4528 90.9371Z" fill="#FF5E5E"/>
<path fill-rule="evenodd" clip-rule="evenodd" d="M32.2733 105.628L30.201 98.5244C31.1645 99.1604 32.4543 99.3094 34.5152 99.0884C37.9181 98.7236 41.0882 96.2995 42.6565 95.1002C43.2212 94.6684 43.5782 94.3954 43.6637 94.4345C43.922 94.5525 43.9148 94.9859 43.879 95.0803C43.9866 94.9367 44.7615 94.4345 45.2782 94.4345C45.9239 94.4345 46.7447 94.966 47.1079 95.5108C47.5384 96.1565 47.0512 98.0717 46.4621 98.5244C46.3739 98.5921 46.1938 98.8139 45.9283 99.1409C44.2487 101.209 39.1505 107.487 32.2733 105.628Z" fill="#B0183D"/>
<path d="M26.5801 90.9371C26.9464 92.1927 27.2171 93.025 27.456 93.7086C27.6023 94.1273 27.7367 94.4902 27.8739 94.8605C28.0071 95.2202 28.0835 95.586 28.2946 96.0182C28.8729 97.2021 29.4335 98.0178 30.201 98.5244L32.2733 105.628C28.4703 104.6 26.564 100.978 26.0125 97.1252L25.9845 96.9181C25.6636 94.396 26.0385 91.7182 26.2997 89.9416L26.3061 89.8978C26.3876 90.2431 26.4788 90.5896 26.5801 90.9371Z" fill="#FF5E5E"/>
<path fill-rule="evenodd" clip-rule="evenodd" d="M37.1613 63.9753C40.6684 63.9753 43.5115 61.1323 43.5115 57.6252C43.5115 54.1181 40.6684 51.275 37.1613 51.275C33.6542 51.275 30.8112 54.1181 30.8112 57.6252C30.8112 61.1323 33.6542 63.9753 37.1613 63.9753ZM37.1613 65.0516C41.2628 65.0516 44.5877 61.7267 44.5877 57.6252C44.5877 53.5237 41.2628 50.1987 37.1613 50.1987C33.0598 50.1987 29.7349 53.5237 29.7349 57.6252C29.7349 61.7267 33.0598 65.0516 37.1613 65.0516ZM58.0416 63.9755C61.5487 63.9755 64.3918 61.1324 64.3918 57.6253C64.3918 54.1183 61.5487 51.2752 58.0416 51.2752C54.5346 51.2752 51.6915 54.1183 51.6915 57.6253C51.6915 61.1324 54.5346 63.9755 58.0416 63.9755ZM58.0416 65.0518C62.1432 65.0518 65.4681 61.7269 65.4681 57.6253C65.4681 53.5238 62.1432 50.1989 58.0416 50.1989C53.9401 50.1989 50.6152 53.5238 50.6152 57.6253C50.6152 61.7269 53.9401 65.0518 58.0416 65.0518Z" fill="#FFD464"/>
<path fill-rule="evenodd" clip-rule="evenodd" d="M37.1613 63.9753C40.6684 63.9753 43.5115 61.1323 43.5115 57.6252C43.5115 54.1181 40.6684 51.275 37.1613 51.275C33.6542 51.275 30.8112 54.1181 30.8112 57.6252C30.8112 61.1323 33.6542 63.9753 37.1613 63.9753ZM37.1613 65.0516C41.2628 65.0516 44.5877 61.7267 44.5877 57.6252C44.5877 53.5237 41.2628 50.1987 37.1613 50.1987C33.0598 50.1987 29.7349 53.5237 29.7349 57.6252C29.7349 61.7267 33.0598 65.0516 37.1613 65.0516ZM58.0416 63.9755C61.5487 63.9755 64.3918 61.1324 64.3918 57.6253C64.3918 54.1183 61.5487 51.2752 58.0416 51.2752C54.5346 51.2752 51.6915 54.1183 51.6915 57.6253C51.6915 61.1324 54.5346 63.9755 58.0416 63.9755ZM58.0416 65.0518C62.1432 65.0518 65.4681 61.7269 65.4681 57.6253C65.4681 53.5238 62.1432 50.1989 58.0416 50.1989C53.9401 50.1989 50.6152 53.5238 50.6152 57.6253C50.6152 61.7269 53.9401 65.0518 58.0416 65.0518Z" fill="black" fill-opacity="0.2"/>
</g>
</svg>
