<svg width="128" height="87" viewBox="0 0 128 87" fill="none" xmlns="http://www.w3.org/2000/svg">
<g opacity="0.75">
<ellipse cx="63.1931" cy="81.7989" rx="32.3261" ry="4.21645" fill="#FCEDD8"/>
<ellipse cx="63.1931" cy="81.7989" rx="32.3261" ry="4.21645" fill="black" fill-opacity="0.2"/>
</g>
<g filter="url(#filter0_d_32_5927)">
<path d="M117.641 43.6023L97.9471 38.2918C97.5046 38.4393 96.3982 38.6901 95.5131 38.513C94.628 38.336 93.9642 37.7017 93.7429 37.4067L76.7049 33.8663L78.6963 31.8748V33.4237C80.0977 33.5713 83.6971 34.0433 86.8835 34.7514C90.0698 35.4595 92.7841 36.0506 93.7429 36.2576C94.1159 36.6137 94.4183 36.9375 94.628 37.1854L96.0926 37.4783L96.2876 37.5173L97.9471 37.8492C98.0178 37.7314 98.1326 37.6038 98.2964 37.4783C99.3601 37.6019 102.55 38.0705 106.798 38.9556C111.047 39.8407 115.649 41.5371 117.419 42.2747L118.526 40.2832H119.384L117.641 43.6023Z" fill="#FF5E5E"/>
<path d="M117.641 43.6023L97.9471 38.2918C97.5046 38.4393 96.3982 38.6901 95.5131 38.513C94.628 38.336 93.9642 37.7017 93.7429 37.4067L76.7049 33.8663L78.6963 31.8748V33.4237C80.0977 33.5713 83.6971 34.0433 86.8835 34.7514C90.0698 35.4595 92.7841 36.0506 93.7429 36.2576C94.1159 36.6137 94.4183 36.9375 94.628 37.1854L96.0926 37.4783L96.2876 37.5173L97.9471 37.8492C98.0178 37.7314 98.1326 37.6038 98.2964 37.4783C99.3601 37.6019 102.55 38.0705 106.798 38.9556C111.047 39.8407 115.649 41.5371 117.419 42.2747L118.526 40.2832H119.384L117.641 43.6023Z" fill="black" fill-opacity="0.2"/>
<path d="M105.692 37.4067C110.825 38.8228 114.911 40.357 116.313 40.9471L122.537 30.1046L124.5 30.5472L119.384 40.2832H118.526L117.419 42.2747C115.649 41.5371 111.047 39.8407 106.798 38.9556C102.55 38.0705 99.3601 37.6019 98.2964 37.4783C99.1581 36.8182 101.378 36.2167 105.692 37.4067Z" fill="#FF5E5E"/>
<path d="M105.692 37.4067C110.825 38.8228 114.911 40.357 116.313 40.9471L122.537 30.1046L124.5 30.5472L119.384 40.2832H118.526L117.419 42.2747C115.649 41.5371 111.047 39.8407 106.798 38.9556C102.55 38.0705 99.3601 37.6019 98.2964 37.4783C99.1581 36.8182 101.378 36.2167 105.692 37.4067Z" fill="black" fill-opacity="0.3"/>
<path d="M78.6963 33.4237C81.2779 33.1287 87.0162 32.7157 89.3175 33.4237C91.0238 33.9488 92.6733 35.2362 93.7429 36.2576C92.7841 36.0506 90.0698 35.4595 86.8835 34.7514C83.6971 34.0433 80.0977 33.5713 78.6963 33.4237Z" fill="#FF5E5E"/>
<path d="M78.6963 33.4237C81.2779 33.1287 87.0162 32.7157 89.3175 33.4237C91.0238 33.9488 92.6733 35.2362 93.7429 36.2576C92.7841 36.0506 90.0698 35.4595 86.8835 34.7514C83.6971 34.0433 80.0977 33.5713 78.6963 33.4237Z" fill="black" fill-opacity="0.3"/>
<path d="M116.313 40.9471C114.911 40.357 110.825 38.8228 105.692 37.4067C101.378 36.2167 99.1581 36.8182 98.2964 37.4783C98.1326 37.6038 98.0178 37.7314 97.9471 37.8492L96.2876 37.5173C97.2833 36.5216 99.8501 34.5744 102.151 34.7514C104.453 34.9284 111.666 36.8904 114.985 37.8492L121.845 26.343L123.172 28.9983L122.537 30.1046L116.313 40.9471Z" fill="#FFE9B1"/>
<path d="M78.6963 33.4237V31.8748V30.1046C78.8438 30.2522 79.7142 30.68 82.0154 31.211C83.202 31.4848 84.0874 31.4951 85.0132 31.5058C86.3319 31.5211 87.7326 31.5374 90.2026 32.3174C92.7182 33.1118 94.4513 34.8901 95.4004 36.2708C95.6682 36.7231 95.9027 37.1339 96.0926 37.4783L94.628 37.1854C94.4183 36.9375 94.1159 36.6137 93.7429 36.2576C92.6733 35.2362 91.0238 33.9488 89.3175 33.4237C87.0162 32.7157 81.2779 33.1287 78.6963 33.4237Z" fill="#FFE9B1"/>
<path d="M119.411 25.9004L121.845 26.343L114.985 37.8492C111.666 36.8904 104.453 34.9284 102.151 34.7514C99.8501 34.5744 97.2833 36.5216 96.2876 37.5173C96.9883 36.4478 99.0535 34.2203 101.709 33.8663C104.364 33.5123 111.076 33.7188 114.1 33.8663L119.411 25.9004Z" fill="#FFD464"/>
<path d="M121.402 22.8026L119.411 25.9004L114.1 33.8663L112.551 32.3174L120.075 21.6962L121.402 22.8026Z" fill="#FFE9B1"/>
<path d="M112.551 32.3174L114.1 33.8663C111.076 33.7188 104.364 33.5123 101.709 33.8663C99.0535 34.2203 96.9883 36.4478 96.2876 37.5173L96.0926 37.4783C96.7108 36.2743 98.788 33.645 102.151 32.7599C105.515 31.8748 110.486 32.0961 112.551 32.3174Z" fill="#FFE9B1"/>
<path d="M91.7515 28.9983C89.4502 25.4579 85.4821 23.0976 83.7856 22.3601L85.6857 20.5899C86.6564 21.9121 88.25 23.9999 90.2026 26.343C92.8578 29.5293 95.2356 35.0942 96.0926 37.4783C95.6044 36.1268 94.0527 32.5386 91.7515 28.9983Z" fill="#FFD464"/>
<path d="M91.7515 28.9983C89.4502 25.4579 85.4821 23.0976 83.7856 22.3601L85.6857 20.5899C86.6564 21.9121 88.25 23.9999 90.2026 26.343C92.8578 29.5293 95.2356 35.0942 96.0926 37.4783C95.6044 36.1268 94.0527 32.5386 91.7515 28.9983Z" fill="black" fill-opacity="0.2"/>
<path d="M90.2026 29.4408C88.2554 28.0247 84.2282 26.7855 82.458 26.343L80.2452 25.4579L83.7856 22.3601C85.4821 23.0976 89.4502 25.4579 91.7515 28.9983C94.0527 32.5386 95.6044 36.1268 96.0926 37.4783C95.951 37.1562 95.7202 36.7361 95.4004 36.2708C94.0434 33.9796 91.8288 30.6235 90.2026 29.4408Z" fill="#FFD464"/>
<path fill-rule="evenodd" clip-rule="evenodd" d="M78.6963 30.1046C78.8438 30.2522 79.7142 30.68 82.0154 31.211C83.202 31.4848 84.0874 31.4951 85.0132 31.5058C86.3319 31.5211 87.7326 31.5374 90.2026 32.3174C92.7182 33.1118 94.4513 34.8901 95.4004 36.2708C94.8977 35.4693 93.3313 33.3942 91.0877 31.5058C89.3893 30.0764 85.5847 29.2333 82.8656 28.6307C81.9925 28.4372 81.2314 28.2685 80.6878 28.1132L78.6963 30.1046Z" fill="#FFD464"/>
<path d="M82.458 26.343C84.2282 26.7855 88.2554 28.0247 90.2026 29.4408C91.8288 30.6235 94.0434 33.9796 95.4004 36.2708C94.8977 35.4693 93.3313 33.3942 91.0877 31.5058C89.3893 30.0764 85.5847 29.2333 82.8656 28.6307C81.9925 28.4372 81.2314 28.2685 80.6878 28.1132L82.458 26.343Z" fill="#CCAA50"/>
<path d="M96.0926 37.4783C95.2356 35.0942 92.8578 29.5293 90.2026 26.343C88.25 23.9999 86.6564 21.9121 85.6857 20.5899C85.3363 20.114 85.0677 19.7373 84.892 19.4835L96.2876 11.2964L97.9471 13.7304L90.6451 19.0409C91.9728 21.4012 94.8051 27.0068 95.5131 30.5472C96.2212 34.0876 96.1945 36.6431 96.0926 37.4783Z" fill="#FFD464"/>
<path fill-rule="evenodd" clip-rule="evenodd" d="M96.0926 37.4783C95.951 37.1562 95.7202 36.7361 95.4004 36.2708C95.6682 36.7231 95.9027 37.1339 96.0926 37.4783Z" fill="#D9D9D9"/>
<path d="M120.075 21.6962L112.551 32.3174C110.486 32.0961 105.515 31.8748 102.151 32.7599C98.788 33.645 96.7108 36.2743 96.0926 37.4783C96.2682 37.0119 96.708 35.9905 97.0621 35.6365C97.4161 35.2824 102.963 28.8508 105.692 25.6792C106.282 24.6466 108.48 22.4928 112.551 22.1388C116.623 21.7847 119.263 21.6962 120.075 21.6962Z" fill="#FFF4D8"/>
<path d="M90.6451 19.0409L97.9471 13.7304L101.709 10.8538C102.004 12.1077 102.859 15.1908 103.922 17.492C105.09 20.024 105.402 22.0417 105.61 23.3942C105.639 23.5782 105.665 23.75 105.692 23.909C105.869 24.9711 105.765 25.5316 105.692 25.6792C102.963 28.8508 97.4161 35.2824 97.0621 35.6365C96.708 35.9905 96.2682 37.0119 96.0926 37.4783C96.1945 36.6431 96.2212 34.0876 95.5131 30.5472C94.8051 27.0068 91.9728 21.4012 90.6451 19.0409Z" fill="#FFF4D8"/>
</g>
<g filter="url(#filter1_d_32_5927)">
<path d="M11.3213 77.4164L32.0629 71.8232C32.529 71.9786 33.6943 72.2427 34.6265 72.0563C35.5587 71.8698 36.2579 71.2017 36.4909 70.891L54.4359 67.1622L52.3384 65.0647V66.6961C50.8624 66.8514 47.0715 67.3486 43.7155 68.0944C40.3596 68.8401 37.5008 69.4627 36.4909 69.6807C36.0981 70.0558 35.7796 70.3969 35.5587 70.6579L34.0162 70.9665L33.8108 71.0075L32.0629 71.3571C31.9885 71.233 31.8676 71.0986 31.6951 70.9665C30.5748 71.0967 27.2155 71.5902 22.7409 72.5224C18.2663 73.4546 13.4188 75.2413 11.5544 76.0181L10.3891 73.9207H9.48458L11.3213 77.4164Z" fill="#FF5E5E"/>
<path d="M11.3213 77.4164L32.0629 71.8232C32.529 71.9786 33.6943 72.2427 34.6265 72.0563C35.5587 71.8698 36.2579 71.2017 36.4909 70.891L54.4359 67.1622L52.3384 65.0647V66.6961C50.8624 66.8514 47.0715 67.3486 43.7155 68.0944C40.3596 68.8401 37.5008 69.4627 36.4909 69.6807C36.0981 70.0558 35.7796 70.3969 35.5587 70.6579L34.0162 70.9665L33.8108 71.0075L32.0629 71.3571C31.9885 71.233 31.8676 71.0986 31.6951 70.9665C30.5748 71.0967 27.2155 71.5902 22.7409 72.5224C18.2663 73.4546 13.4188 75.2413 11.5544 76.0181L10.3891 73.9207H9.48458L11.3213 77.4164Z" fill="black" fill-opacity="0.2"/>
<path d="M23.9061 70.891C18.4993 72.3825 14.1956 73.9984 12.7197 74.6198L6.16399 63.2003L4.09674 63.6664L9.48458 73.9207H10.3891L11.5544 76.0181C13.4188 75.2413 18.2663 73.4546 22.7409 72.5224C27.2155 71.5902 30.5748 71.0967 31.6951 70.9665C30.7875 70.2712 28.4493 69.6377 23.9061 70.891Z" fill="#FF5E5E"/>
<path d="M23.9061 70.891C18.4993 72.3825 14.1956 73.9984 12.7197 74.6198L6.16399 63.2003L4.09674 63.6664L9.48458 73.9207H10.3891L11.5544 76.0181C13.4188 75.2413 18.2663 73.4546 22.7409 72.5224C27.2155 71.5902 30.5748 71.0967 31.6951 70.9665C30.7875 70.2712 28.4493 69.6377 23.9061 70.891Z" fill="black" fill-opacity="0.3"/>
<path d="M52.3384 66.6961C49.6195 66.3853 43.5757 65.9503 41.1519 66.6961C39.3548 67.249 37.6174 68.6049 36.4909 69.6807C37.5008 69.4627 40.3596 68.8401 43.7155 68.0944C47.0715 67.3486 50.8624 66.8514 52.3384 66.6961Z" fill="#FF5E5E"/>
<path d="M52.3384 66.6961C49.6195 66.3853 43.5757 65.9503 41.1519 66.6961C39.3548 67.249 37.6174 68.6049 36.4909 69.6807C37.5008 69.4627 40.3596 68.8401 43.7155 68.0944C47.0715 67.3486 50.8624 66.8514 52.3384 66.6961Z" fill="black" fill-opacity="0.3"/>
<path d="M12.7197 74.6198C14.1956 73.9984 18.4993 72.3825 23.9061 70.891C28.4493 69.6377 30.7875 70.2712 31.6951 70.9665C31.8676 71.0986 31.9885 71.233 32.0629 71.3571L33.8108 71.0075C32.7621 69.9588 30.0587 67.9079 27.635 68.0944C25.2112 68.2808 17.6137 70.3472 14.118 71.3571L6.89336 59.2384L5.49505 62.035L6.16399 63.2003L12.7197 74.6198Z" fill="#FFE9B1"/>
<path d="M52.3384 66.6961V65.0647V63.2003C52.1831 63.3557 51.2664 63.8062 48.8426 64.3656C47.5929 64.654 46.6604 64.6648 45.6853 64.6761C44.2965 64.6922 42.8212 64.7093 40.2197 65.5308C37.5703 66.3675 35.7448 68.2405 34.7453 69.6947C34.4631 70.171 34.2162 70.6037 34.0162 70.9665L35.5587 70.6579C35.7796 70.3969 36.0981 70.0558 36.4909 69.6807C37.6174 68.6049 39.3548 67.249 41.1519 66.6961C43.5757 65.9503 49.6195 66.3853 52.3384 66.6961Z" fill="#FFE9B1"/>
<path d="M9.45693 58.7723L6.89336 59.2384L14.118 71.3571C17.6137 70.3472 25.2112 68.2808 27.635 68.0944C30.0587 67.9079 32.7621 69.9588 33.8108 71.0075C33.0728 69.8811 30.8977 67.5351 28.1011 67.1622C25.3044 66.7893 18.2352 67.0068 15.0502 67.1622L9.45693 58.7723Z" fill="#FFD464"/>
<path d="M7.35946 55.5096L9.45693 58.7723L15.0502 67.1622L16.6815 65.5308L8.75777 54.3443L7.35946 55.5096Z" fill="#FFE9B1"/>
<path d="M16.6815 65.5308L15.0502 67.1622C18.2352 67.0068 25.3044 66.7893 28.1011 67.1622C30.8977 67.5351 33.0728 69.8811 33.8108 71.0075L34.0162 70.9665C33.3651 69.6984 31.1773 66.9291 27.635 65.9969C24.0926 65.0647 18.8567 65.2978 16.6815 65.5308Z" fill="#FFE9B1"/>
<path d="M38.5884 62.035C41.0121 58.3062 45.1915 55.8203 46.9782 55.0435L44.977 53.1791C43.9546 54.5717 42.2762 56.7706 40.2197 59.2384C37.4231 62.5944 34.9188 68.4554 34.0162 70.9665C34.5304 69.543 36.1646 65.7639 38.5884 62.035Z" fill="#FFD464"/>
<path d="M38.5884 62.035C41.0121 58.3062 45.1915 55.8203 46.9782 55.0435L44.977 53.1791C43.9546 54.5717 42.2762 56.7706 40.2197 59.2384C37.4231 62.5944 34.9188 68.4554 34.0162 70.9665C34.5304 69.543 36.1646 65.7639 38.5884 62.035Z" fill="black" fill-opacity="0.2"/>
<path d="M40.2197 62.5011C42.2706 61.0096 46.5121 59.7045 48.3765 59.2384L50.7071 58.3062L46.9782 55.0435C45.1915 55.8203 41.0121 58.3062 38.5884 62.035C36.1646 65.7639 34.5304 69.543 34.0162 70.9665C34.1654 70.6272 34.4084 70.1847 34.7453 69.6947C36.1745 67.2815 38.507 63.7468 40.2197 62.5011Z" fill="#FFD464"/>
<path fill-rule="evenodd" clip-rule="evenodd" d="M52.3384 63.2003C52.1831 63.3557 51.2664 63.8062 48.8426 64.3656C47.5929 64.654 46.6604 64.6648 45.6853 64.6761C44.2965 64.6922 42.8212 64.7093 40.2197 65.5308C37.5703 66.3675 35.7448 68.2405 34.7453 69.6947C35.2747 68.8505 36.9244 66.665 39.2875 64.6761C41.0763 63.1706 45.0834 62.2825 47.9472 61.6479C48.8668 61.4441 49.6684 61.2664 50.241 61.1028L52.3384 63.2003Z" fill="#FFD464"/>
<path d="M48.3765 59.2384C46.5121 59.7045 42.2706 61.0096 40.2197 62.5011C38.507 63.7468 36.1745 67.2815 34.7453 69.6947C35.2747 68.8505 36.9244 66.665 39.2875 64.6761C41.0763 63.1706 45.0834 62.2825 47.9472 61.6479C48.8668 61.4441 49.6684 61.2664 50.241 61.1028L48.3765 59.2384Z" fill="#CCAA50"/>
<path d="M34.0162 70.9665C34.9188 68.4554 37.4231 62.5944 40.2197 59.2384C42.2762 56.7706 43.9546 54.5717 44.977 53.1791C45.345 52.6779 45.6279 52.2811 45.813 52.0138L33.8108 43.3909L32.0629 45.9545L39.7536 51.5477C38.3553 54.0336 35.3723 59.9376 34.6265 63.6664C33.8807 67.3952 33.9089 70.0868 34.0162 70.9665Z" fill="#FFD464"/>
<path fill-rule="evenodd" clip-rule="evenodd" d="M34.0162 70.9665C34.1654 70.6272 34.4084 70.1847 34.7453 69.6947C34.4631 70.171 34.2162 70.6037 34.0162 70.9665Z" fill="#D9D9D9"/>
<path d="M8.75777 54.3443L16.6815 65.5308C18.8567 65.2978 24.0926 65.0647 27.635 65.9969C31.1773 66.9291 33.3651 69.6984 34.0162 70.9665C33.8312 70.4752 33.368 69.3995 32.9951 69.0266C32.6223 68.6537 26.7804 61.8797 23.9061 58.5393C23.2847 57.4517 20.9697 55.1833 16.6815 54.8104C12.3934 54.4376 9.6123 54.3443 8.75777 54.3443Z" fill="#FFF4D8"/>
<path d="M39.7536 51.5477L32.0629 45.9545L28.1011 42.9248C27.7903 44.2454 26.8892 47.4926 25.7705 49.9164C24.5397 52.5831 24.2117 54.7082 23.9919 56.1327C23.962 56.3265 23.934 56.5074 23.9061 56.6749C23.7197 57.7935 23.8284 58.3839 23.9061 58.5393C26.7804 61.8797 32.6223 68.6537 32.9951 69.0266C33.368 69.3995 33.8312 70.4752 34.0162 70.9665C33.9089 70.0868 33.8807 67.3952 34.6265 63.6664C35.3723 59.9376 38.3553 54.0336 39.7536 51.5477Z" fill="#FFF4D8"/>
</g>
<path d="M86.9325 41.9679C79.9354 44.7159 78.5218 50.7683 78.6897 53.451C78.5233 54.0588 78.2316 55.2488 77.8875 56.8744C78.2359 56.9864 78.9002 57.0869 79.7807 57.0348C80.7298 56.9787 81.9301 56.7453 83.257 56.1582C85.815 55.0264 87.066 53.523 87.3718 52.9128L88.0251 60.7938L93.2876 54.1156L93.6413 62.3309C93.7835 62.1855 94.0207 62.0025 94.3007 61.7865C94.9692 61.2709 95.8816 60.567 96.3291 59.7359C96.9628 58.5589 97.8273 56.2601 97.9552 55.0808C97.4249 53.289 96.8945 51.5958 96.5932 50.0243C95.6326 45.0151 98.4822 41.3472 100.027 40.1394C98.5777 39.6039 93.9296 39.22 86.9325 41.9679Z" fill="#FCEDD8"/>
<path fill-rule="evenodd" clip-rule="evenodd" d="M79.7807 57.0348C81.5543 61.7927 85.1818 72.2464 85.5031 75.9977C85.8243 79.7491 83.2275 81.0538 81.889 81.2372C87.2491 81.0027 92.5694 78.9654 96.6165 73.1372C101.12 66.6518 99.5377 60.4277 97.9552 55.0808C97.8273 56.2601 96.9628 58.5589 96.3291 59.7359C95.8816 60.567 94.9692 61.2709 94.3007 61.7865C94.0207 62.0025 93.7835 62.1855 93.6413 62.3309L93.2876 54.1156L88.0251 60.7938L87.3718 52.9128C87.066 53.523 85.815 55.0264 83.257 56.1582C81.9301 56.7453 80.7298 56.9787 79.7807 57.0348Z" fill="#FF5E5E"/>
<path d="M76.6908 63.4164C75.7256 69.6054 66.6041 78.9745 74.1926 80.531C76.6732 81.0398 79.2858 81.3511 81.889 81.2372C83.2275 81.0538 85.8243 79.7491 85.5031 75.9977C85.1818 72.2464 81.5543 61.7927 79.7807 57.0348C78.9002 57.0869 78.2359 56.9864 77.8875 56.8744C77.5189 58.6153 77.0902 60.856 76.6908 63.4164Z" fill="#E64B4B"/>
<path fill-rule="evenodd" clip-rule="evenodd" d="M43.1462 50.4671C43.4137 49.6622 43.7273 48.9167 44.0701 48.2439C47.3093 49.8976 55.4743 52.8235 62.2206 51.2975C68.9669 49.7716 72.8621 45.9768 73.9664 44.2701C73.9664 42.6383 76.7465 45.3132 78.4686 49.9924C78.2662 50.5077 78.0198 51.197 77.7369 51.9881C76.4768 55.513 74.4939 61.0596 72.4605 62.2403C69.9708 63.6859 68.746 63.7796 68.4448 63.6457C68.2441 64.2146 67.4208 65.4929 65.7343 66.0551C64.0477 66.6173 63.1575 66.624 62.9233 66.5571L61.6182 68.2637L59.6104 66.5571C59.3761 66.624 58.486 66.6173 56.7994 66.0551C55.1128 65.4929 54.2896 64.2146 54.0888 63.6457C53.7877 63.7796 52.5629 63.6859 50.0732 62.2403C47.5834 60.7946 44.2505 53.278 43.1462 50.4671Z" fill="#FCEDD8"/>
<path d="M73.9664 44.2701L49.1697 45.0732C48.046 43.4521 45.7197 45.0061 44.0701 48.2439C47.3093 49.8976 55.4743 52.8235 62.2206 51.2975C68.9669 49.7716 72.8621 45.9768 73.9664 44.2701Z" fill="#E6CEAC"/>
<path d="M79.5514 60.3709C79.5495 60.3582 79.5477 60.3455 79.5458 60.3328C79.475 60.633 79.3957 60.9343 79.3076 61.2363C78.9892 62.3279 78.7538 63.0514 78.5461 63.6457C78.4189 64.0097 78.3021 64.3252 78.1829 64.6472C78.0671 64.9598 78.0006 65.2778 77.8171 65.6536C76.6831 67.9749 74.9571 68.6088 71.7384 68.2637C70.8233 68.1656 70.0534 68.0105 69.4066 67.8311C67.9987 67.4403 67.1747 66.9336 66.7074 66.6463C66.4456 66.4854 66.2958 66.3932 66.2179 66.4288C65.9934 66.5314 65.9996 66.7211 66.0308 66.8031C65.9372 66.6783 65.6378 66.4288 65.1887 66.4288C64.6273 66.4288 63.9138 66.5167 63.5981 66.9902C63.2238 67.5516 63.3332 69.0487 63.9723 69.1423C64.1047 69.1616 64.3308 69.462 64.6676 69.9096C65.9568 71.6226 68.8685 75.4915 74.3583 74.0078C77.6644 73.1142 79.3216 69.9655 79.8011 66.616L79.8254 66.4359C80.1044 64.2433 79.7784 61.9154 79.5514 60.3709Z" fill="#B0183D"/>
<path d="M43.7068 63.6457C43.4991 63.0514 43.2637 62.3279 42.9454 61.2363C42.8573 60.9343 42.778 60.633 42.7071 60.3328C42.4738 61.919 42.3714 64.2054 42.6953 66.4679C43.1748 69.8174 44.5885 73.1142 47.8946 74.0078C53.3844 75.4915 56.2961 71.6226 57.5853 69.9096C57.9222 69.462 58.1482 69.1616 58.2806 69.1423C58.9197 69.0487 59.0291 67.5516 58.6549 66.9902C58.3392 66.5167 57.6256 66.4288 57.0642 66.4288C56.6151 66.4288 56.3157 66.6783 56.2221 66.8031C56.2533 66.7211 56.2596 66.5314 56.035 66.4288C55.9571 66.3932 55.8073 66.4854 55.5456 66.6463C54.8636 67.0656 53.422 67.952 50.5145 68.2637C47.2958 68.6088 45.5698 67.9749 44.4358 65.6536C44.3148 65.4057 44.2446 65.183 44.1777 64.9703C44.1432 64.8606 44.1095 64.7536 44.0701 64.6472C43.9508 64.3252 43.834 64.0097 43.7068 63.6457Z" fill="#B0183D"/>
<path fill-rule="evenodd" clip-rule="evenodd" d="M43.1462 50.4671C44.2505 53.278 47.5834 60.7946 50.0732 62.2403C52.5629 63.6859 53.7877 63.7796 54.0888 63.6457C54.2896 64.2146 55.1128 65.4929 56.7994 66.0551C58.486 66.6173 59.3761 66.624 59.6104 66.5571L61.6182 68.2637L62.9233 66.5571C63.1575 66.624 64.0477 66.6173 65.7343 66.0551C67.4208 65.4929 68.2441 64.2146 68.4448 63.6457C68.746 63.7796 69.9708 63.6859 72.4605 62.2403C74.4939 61.0596 76.4768 55.513 77.7369 51.9881C78.0198 51.197 78.2662 50.5077 78.4686 49.9924C79.4231 52.5859 80.0525 55.7951 79.7034 59.228C79.1965 60.6337 77.6814 63.8867 75.6756 65.6536C73.6699 67.4205 70.6606 67.8414 69.4066 67.8311C67.9987 67.4403 67.1747 66.9336 66.7074 66.6463C66.4456 66.4854 66.2958 66.3932 66.2179 66.4288C65.9934 66.5314 65.9996 66.7211 66.0308 66.8031C65.9372 66.6783 65.6378 66.4288 65.1887 66.4288C64.6273 66.4288 63.9138 66.5167 63.5981 66.9902C63.2238 67.5516 63.3332 69.0487 63.9723 69.1423C64.1047 69.1616 64.3308 69.462 64.6676 69.9096C65.9568 71.6226 68.8685 75.4915 74.3583 74.0078C77.6644 73.1142 79.3216 69.9655 79.8011 66.616C79.8096 66.556 79.8177 66.496 79.8254 66.4359C81.3651 71.0555 83.4744 79.6424 78.8856 82.0174C78.5561 82.3742 77.4341 83.2374 75.5821 83.8362C73.7301 84.435 70.3872 84.7693 68.9473 84.8616C63.1355 84.4057 61.9791 83.4006 61.717 82.6385C61.6767 82.5212 61.5953 82.4096 61.5203 82.3067C61.4424 82.1999 61.3712 82.1024 61.3599 82.0174C61.3484 82.1031 61.2801 82.2016 61.2052 82.3095C61.1343 82.4116 61.0575 82.5222 61.0175 82.6385C60.7554 83.4006 59.5991 84.4057 53.7873 84.8616C52.3473 84.7693 49.0044 84.435 47.1525 83.8362C45.3005 83.2374 44.1785 82.3742 43.8489 82.0174C39.1831 79.6732 41.2333 71.0106 42.6953 66.4679C43.1748 69.8174 44.5885 73.1142 47.8946 74.0078C53.3844 75.4915 56.2961 71.6226 57.5853 69.9096C57.9222 69.462 58.1482 69.1616 58.2806 69.1423C58.9197 69.0487 59.0291 67.5516 58.6549 66.9902C58.3392 66.5167 57.6256 66.4288 57.0642 66.4288C56.6151 66.4288 56.3157 66.6783 56.2221 66.8031C56.2533 66.7211 56.2596 66.5314 56.035 66.4288C55.9571 66.3932 55.8073 66.4854 55.5456 66.6463C54.8636 67.0656 53.422 67.952 50.5145 68.2637C47.2958 68.6088 45.5698 67.9749 44.4358 65.6536C44.3148 65.4057 44.2446 65.183 44.1777 64.9703C44.1432 64.8606 44.1095 64.7536 44.0701 64.6472C43.9508 64.3252 43.834 64.0097 43.7068 63.6457C43.4991 63.0514 43.2637 62.3279 42.9454 61.2363C42.8573 60.9343 42.778 60.633 42.7071 60.3328C41.851 56.7054 42.2261 53.2353 43.1462 50.4671Z" fill="#FF5E5E"/>
<path d="M78.5461 63.6457C78.7538 63.0514 78.9892 62.3279 79.3076 61.2363C79.3957 60.9343 79.475 60.633 79.5458 60.3328L79.5514 60.3709C79.6145 59.9876 79.6649 59.6064 79.7034 59.228C79.1965 60.6337 77.6814 63.8867 75.6756 65.6536C73.6699 67.4205 70.6606 67.8414 69.4066 67.8311C70.0534 68.0105 70.8233 68.1656 71.7384 68.2637C74.9571 68.6088 76.6831 67.9749 77.8171 65.6536C78.0006 65.2778 78.0671 64.9598 78.1829 64.6472C78.3021 64.3252 78.4189 64.0097 78.5461 63.6457Z" fill="#FF5E5E"/>
<path d="M78.5461 63.6457C78.7538 63.0514 78.9892 62.3279 79.3076 61.2363C79.3957 60.9343 79.475 60.633 79.5458 60.3328L79.5514 60.3709C79.6145 59.9876 79.6649 59.6064 79.7034 59.228C79.1965 60.6337 77.6814 63.8867 75.6756 65.6536C73.6699 67.4205 70.6606 67.8414 69.4066 67.8311C70.0534 68.0105 70.8233 68.1656 71.7384 68.2637C74.9571 68.6088 76.6831 67.9749 77.8171 65.6536C78.0006 65.2778 78.0671 64.9598 78.1829 64.6472C78.3021 64.3252 78.4189 64.0097 78.5461 63.6457Z" fill="black" fill-opacity="0.2"/>
<path d="M43.6401 63.6457C43.4324 63.0514 43.197 62.3279 42.8786 61.2363C42.7905 60.9343 42.7113 60.633 42.6404 60.3328L42.6348 60.3709C42.5717 59.9876 42.5213 59.6064 42.4828 59.228C42.9897 60.6337 44.5048 63.8867 46.5106 65.6536C48.5163 67.4205 51.5256 67.8414 52.7796 67.8311C52.1329 68.0105 51.3629 68.1656 50.4478 68.2637C47.2291 68.6088 45.5031 67.9749 44.3691 65.6536C44.1856 65.2778 44.1192 64.9598 44.0034 64.6472C43.8841 64.3252 43.7673 64.0097 43.6401 63.6457Z" fill="#FF5E5E"/>
<path d="M43.6401 63.6457C43.4324 63.0514 43.197 62.3279 42.8786 61.2363C42.7905 60.9343 42.7113 60.633 42.6404 60.3328L42.6348 60.3709C42.5717 59.9876 42.5213 59.6064 42.4828 59.228C42.9897 60.6337 44.5048 63.8867 46.5106 65.6536C48.5163 67.4205 51.5256 67.8414 52.7796 67.8311C52.1329 68.0105 51.3629 68.1656 50.4478 68.2637C47.2291 68.6088 45.5031 67.9749 44.3691 65.6536C44.1856 65.2778 44.1192 64.9598 44.0034 64.6472C43.8841 64.3252 43.7673 64.0097 43.6401 63.6457Z" fill="black" fill-opacity="0.2"/>
<path fill-rule="evenodd" clip-rule="evenodd" d="M38.2186 35.2387C37.4958 36.2025 35.575 35.6403 34.7049 35.2387C37.884 40.9611 47.6621 51.5032 61.5095 51.1006C78.3313 50.6116 84.2914 40.4996 87.2795 35.4299C87.3587 35.2957 87.4357 35.1649 87.5109 35.038C86.9085 35.4061 85.4429 35.9214 84.3988 35.038C83.8931 34.6101 83.704 33.9712 83.3641 32.8235C83.2101 32.3034 83.0252 31.6788 82.7658 30.9219C80.7719 28.9141 75.8856 25.059 69.9424 25.7015C63.9992 26.344 61.8441 36.0084 61.5095 40.7603C61.1749 36.0084 59.0197 26.344 53.0766 25.7015C47.1334 25.059 41.6598 28.9141 39.6659 30.9219C39.4617 31.5708 39.2829 32.1711 39.1232 32.7071C38.7408 33.9908 38.4682 34.9059 38.2186 35.2387Z" fill="#FCEDD8"/>
<path d="M58.4977 10.3416C56.7911 11.4459 51.5707 12.5502 45.9488 18.8749C42.5285 22.7227 40.7432 27.4994 39.6659 30.9219C41.6598 28.9141 47.1334 25.059 53.0766 25.7015C59.0197 26.344 61.1749 36.0084 61.5095 40.7603C61.8441 36.0084 63.9992 26.344 69.9424 25.7015C75.8856 25.059 80.7719 28.9141 82.7658 30.9219C82.3892 29.8233 81.8559 28.4461 81.0328 26.7055C80.4448 25.4622 79.709 24.0335 78.7769 22.3886C74.6809 15.1604 68.7712 12.2156 66.3283 11.6467V8.83574C66.2614 8.96959 65.9468 9.35777 65.224 9.83965C64.5012 10.3215 62.4465 11.2451 61.5095 11.6467V7.22947C61.0745 7.89875 59.863 9.45817 58.4977 10.3416Z" fill="#FF5E5E"/>
<path d="M77.773 10.3416C79.3792 7.8519 82.4579 5.55628 83.7965 4.71968C84.0976 5.62321 84.6197 8.8759 84.2984 10.6428C83.9772 12.4097 82.9599 15.127 82.4914 16.7667C82.324 16.5994 81.8689 16.1844 81.3871 15.8632C80.9052 15.5419 79.9146 15.7293 79.4796 15.8632L80.5839 13.9557C80.3497 13.8553 79.6202 13.6545 78.5761 13.6545C77.532 13.6545 76.2002 13.8553 75.6647 13.9557C75.6982 13.7884 76.1667 12.8313 77.773 10.3416Z" fill="#FCEDD8"/>
<path fill-rule="evenodd" clip-rule="evenodd" d="M69.5408 12.9716C72.3464 14.5217 75.9834 17.459 78.7769 22.3886C79.709 24.0335 80.4448 25.4622 81.0328 26.7055L84.2984 23.3925C85.0012 22.489 86.8884 20.4611 88.0128 14.3573C89.1372 8.25347 86.942 2.24335 85.7038 0.00126965C84.7334 -0.0321942 81.9492 0.583542 78.5761 3.3142C75.2029 6.04485 71.0133 11.0642 69.5408 12.9716ZM77.773 10.3416C79.3792 7.8519 82.4579 5.55628 83.7965 4.71968C84.0976 5.62321 84.6197 8.8759 84.2984 10.6428C83.9772 12.4097 82.9599 15.127 82.4914 16.7667C82.324 16.5994 81.8689 16.1844 81.3871 15.8632C80.9052 15.5419 79.9146 15.7293 79.4796 15.8632L80.5839 13.9557C80.3497 13.8553 79.6202 13.6545 78.5761 13.6545C77.532 13.6545 76.2002 13.8553 75.6647 13.9557C75.6982 13.7884 76.1667 12.8313 77.773 10.3416Z" fill="#FF5E5E"/>
<path d="M43.8405 10.944C42.2342 8.45425 39.1555 6.15863 37.817 5.32203C37.5158 6.22556 36.9938 9.47825 37.315 11.2451C37.6363 13.012 38.6536 15.7293 39.1221 17.369C39.2894 17.2017 39.7445 16.7868 40.2264 16.4655C40.7083 16.1443 41.6988 16.3317 42.1338 16.4655L41.0295 14.5581C41.2638 14.4577 41.9933 14.2569 43.0374 14.2569C44.0814 14.2569 45.4133 14.4577 45.9487 14.5581C45.9153 14.3907 45.4468 13.4337 43.8405 10.944Z" fill="#FCEDD8"/>
<path fill-rule="evenodd" clip-rule="evenodd" d="M51.9722 13.6659C48.9605 16.1643 45.7502 18.1618 42.9568 23.0914C42.0247 24.7363 41.4116 26.3657 40.8237 27.609L37.315 23.9949C36.6123 23.0914 34.7249 21.0634 33.6005 14.9596C32.4762 8.85582 34.6714 2.8457 35.9096 0.603618C36.88 0.570154 39.6642 1.18589 43.0374 3.91654C46.4105 6.6472 50.4998 11.7585 51.9722 13.6659ZM43.8405 10.944C42.2342 8.45425 39.1555 6.15863 37.817 5.32203C37.5158 6.22556 36.9938 9.47825 37.315 11.2451C37.6363 13.012 38.6536 15.7293 39.1221 17.369C39.2894 17.2017 39.7445 16.7868 40.2264 16.4655C40.7083 16.1443 41.6988 16.3317 42.1338 16.4655L41.0295 14.5581C41.2638 14.4577 41.9933 14.2569 43.0374 14.2569C44.0814 14.2569 45.4133 14.4577 45.9487 14.5581C45.9153 14.3907 45.4468 13.4337 43.8405 10.944Z" fill="#FF5E5E"/>
<path fill-rule="evenodd" clip-rule="evenodd" d="M51.0036 36.4239C51.2812 36.6428 51.616 36.7434 51.9722 36.7434C52.3182 36.7434 52.6605 36.6476 52.9395 36.4078C53.2072 36.1777 53.3347 35.8848 53.399 35.644C53.4998 35.2659 53.4875 34.8116 53.4797 34.5269C53.4786 34.4856 53.4776 34.4479 53.477 34.4145C53.4704 34.0306 53.2968 33.684 53.092 33.4432C52.893 33.2092 52.5362 32.9297 52.0565 32.9297H51.6279C51.1621 32.9297 50.8101 33.1913 50.6078 33.4405C50.4039 33.6917 50.2482 34.0528 50.279 34.4493L50.2854 34.5342C50.3072 34.834 50.3418 35.3076 50.4941 35.7058C50.585 35.9435 50.7374 36.214 51.0036 36.4239ZM70.2788 36.4239C70.5564 36.6428 70.8912 36.7434 71.2474 36.7434C71.5934 36.7434 71.9357 36.6476 72.2147 36.4078C72.4824 36.1777 72.6099 35.8848 72.6742 35.644C72.775 35.2659 72.7627 34.8116 72.7549 34.5269C72.7538 34.4856 72.7528 34.4479 72.7522 34.4145C72.7456 34.0306 72.572 33.684 72.3672 33.4432C72.1682 33.2092 71.8114 32.9297 71.3317 32.9297H70.9032C70.4373 32.9297 70.0853 33.1913 69.883 33.4405C69.6791 33.6917 69.5234 34.0528 69.5543 34.4493L69.5606 34.5342C69.5824 34.834 69.617 35.3076 69.7693 35.7058C69.8602 35.9435 70.0126 36.214 70.2788 36.4239ZM60.119 40.6538C60.1693 40.7092 60.2225 40.7603 60.2782 40.8069C60.1711 41.2025 60.0108 41.6198 59.7926 41.9777C59.4481 42.5431 59.0395 42.8442 58.5559 42.8696C57.8481 42.9069 57.518 42.665 57.3332 42.4428C57.1131 42.1782 57.0197 41.8383 56.978 41.6162C56.8963 41.1802 56.4766 40.8931 56.0407 40.9748C55.6047 41.0566 55.3176 41.4762 55.3993 41.9122C55.458 42.2255 55.6156 42.8896 56.0982 43.4699C56.6162 44.0926 57.4406 44.5368 58.6403 44.4737C59.858 44.4096 60.6709 43.6231 61.1642 42.8137C61.2338 42.6996 61.2986 42.5827 61.3588 42.4642C61.4191 42.5827 61.4839 42.6996 61.5535 42.8137C62.0468 43.6231 62.8597 44.4096 64.0774 44.4737C65.2771 44.5368 66.1015 44.0926 66.6194 43.4699C67.1021 42.8896 67.2596 42.2255 67.3184 41.9122C67.4001 41.4762 67.113 41.0566 66.677 40.9748C66.2411 40.8931 65.8214 41.1802 65.7396 41.6162C65.698 41.8383 65.6046 42.1782 65.3845 42.4428C65.1997 42.665 64.8695 42.9069 64.1618 42.8696C63.6782 42.8442 63.2696 42.5431 62.925 41.9777C62.6935 41.5978 62.527 41.1508 62.4203 40.734C62.447 40.7084 62.473 40.6816 62.4983 40.6538L63.6539 39.38C64.5904 38.3478 63.858 36.6944 62.4643 36.6944H60.153C58.7593 36.6944 58.0269 38.3478 58.9634 39.38L60.119 40.6538Z" fill="#B0183D"/>
<path d="M69.4067 48.0935H53.126C52.6092 48.0935 52.1903 48.5124 52.1903 49.0292V71.5789C52.1903 72.0956 52.6092 72.5145 53.126 72.5145H69.4067C69.9234 72.5145 70.3423 72.0956 70.3423 71.5789V49.0292C70.3423 48.5124 69.9234 48.0935 69.4067 48.0935Z" fill="#FFD464" stroke="#FFD464" stroke-width="0.187134"/>
<path fill-rule="evenodd" clip-rule="evenodd" d="M74.3498 74.0116L76.1514 67.8362C75.3137 68.3891 74.1924 68.5186 72.4008 68.3265C69.4426 68.0093 66.6867 65.902 65.3232 64.8594C64.8323 64.484 64.5219 64.2467 64.4476 64.2806C64.2231 64.3833 64.2293 64.76 64.2605 64.842C64.1669 64.7173 63.4932 64.2806 63.0441 64.2806C62.4827 64.2806 61.7692 64.7427 61.4535 65.2163C61.0792 65.7777 61.5027 67.4426 62.0149 67.8362C62.0915 67.8951 62.2481 68.0879 62.4789 68.3721C63.939 70.1701 68.3711 75.6275 74.3498 74.0116Z" fill="#B0183D"/>
<path d="M79.2991 61.2402C78.9807 62.3318 78.7454 63.0553 78.5377 63.6496C78.4105 64.0136 78.2936 64.3291 78.1744 64.651C78.0586 64.9637 77.9922 65.2817 77.8086 65.6574C77.3059 66.6866 76.8186 67.3957 76.1514 67.8362L74.3498 74.0116C77.6559 73.1181 79.3131 69.9693 79.7926 66.6198L79.817 66.4397C80.096 64.2471 79.77 61.9193 79.543 60.3748L79.5374 60.3367C79.4665 60.6369 79.3872 60.9381 79.2991 61.2402Z" fill="#FF5E5E"/>
<path fill-rule="evenodd" clip-rule="evenodd" d="M47.8468 74.0116L46.0453 67.8362C46.8829 68.3891 48.0042 68.5186 49.7958 68.3265C52.7541 68.0093 55.51 65.902 56.8734 64.8594C57.3643 64.484 57.6747 64.2467 57.749 64.2806C57.9736 64.3833 57.9674 64.76 57.9362 64.842C58.0297 64.7173 58.7034 64.2806 59.1526 64.2806C59.714 64.2806 60.4275 64.7427 60.7432 65.2163C61.1175 65.7777 60.694 67.4426 60.1818 67.8362C60.1051 67.8951 59.9486 68.0879 59.7177 68.3721C58.2576 70.1701 53.8255 75.6275 47.8468 74.0116Z" fill="#B0183D"/>
<path d="M42.8975 61.2402C43.2159 62.3318 43.4512 63.0553 43.659 63.6496C43.7862 64.0136 43.903 64.3291 44.0222 64.651C44.138 64.9637 44.2045 65.2817 44.388 65.6574C44.8908 66.6866 45.3781 67.3957 46.0453 67.8362L47.8468 74.0116C44.5407 73.1181 42.8835 69.9693 42.404 66.6198L42.3797 66.4397C42.1007 64.2471 42.4267 61.9193 42.6537 60.3748L42.6593 60.3367C42.7301 60.6369 42.8094 60.9381 42.8975 61.2402Z" fill="#FF5E5E"/>
<path fill-rule="evenodd" clip-rule="evenodd" d="M70.2487 37.8011C73.2976 37.8011 75.7692 35.3295 75.7692 32.2807C75.7692 29.2318 73.2976 26.7602 70.2487 26.7602C67.1999 26.7602 64.7283 29.2318 64.7283 32.2807C64.7283 35.3295 67.1999 37.8011 70.2487 37.8011ZM70.2487 38.7368C73.8144 38.7368 76.7049 35.8463 76.7049 32.2807C76.7049 28.715 73.8144 25.8245 70.2487 25.8245C66.6885 25.8245 63.8013 28.7063 63.7926 32.2646C63.738 32.216 63.6816 32.167 63.6235 32.1179C63.3059 31.8493 62.931 31.5708 62.5315 31.3563C62.1363 31.144 61.6854 30.9771 61.2239 30.9709C60.7522 30.9645 60.2893 31.1262 59.883 31.3366C59.4725 31.5492 59.0864 31.8291 58.7591 32.1002C58.6879 32.1592 58.6191 32.2181 58.5528 32.2763C58.5505 28.7127 55.6609 25.8246 52.0967 25.8246C48.5311 25.8246 45.6406 28.7151 45.6406 32.2807C45.6406 35.8463 48.5311 38.7368 52.0967 38.7368C55.1531 38.7368 57.7135 36.6129 58.3824 33.7605C58.3923 33.7494 58.4041 33.7362 58.4177 33.721C58.4656 33.6679 58.5365 33.591 58.6264 33.4982C58.8067 33.3122 59.0605 33.0655 59.356 32.8208C59.6529 32.5748 59.9822 32.3389 60.3133 32.1674C60.6487 31.9937 60.9537 31.903 61.2112 31.9065C61.4638 31.9099 61.7621 32.0051 62.0888 32.1806C62.4114 32.3538 62.7313 32.5888 63.0193 32.8323C63.3059 33.0747 63.5517 33.3178 63.7261 33.5009C63.8131 33.5921 63.8816 33.6677 63.9279 33.7199C63.9415 33.7352 63.9532 33.7485 63.9628 33.7596C64.6314 36.6125 67.192 38.7368 70.2487 38.7368ZM52.0967 37.8012C55.1456 37.8012 57.6172 35.3296 57.6172 32.2807C57.6172 29.2318 55.1456 26.7602 52.0967 26.7602C49.0478 26.7602 46.5762 29.2318 46.5762 32.2807C46.5762 35.3296 49.0478 37.8012 52.0967 37.8012Z" fill="#FFD464"/>
<path fill-rule="evenodd" clip-rule="evenodd" d="M70.2487 37.8011C73.2976 37.8011 75.7692 35.3295 75.7692 32.2807C75.7692 29.2318 73.2976 26.7602 70.2487 26.7602C67.1999 26.7602 64.7283 29.2318 64.7283 32.2807C64.7283 35.3295 67.1999 37.8011 70.2487 37.8011ZM70.2487 38.7368C73.8144 38.7368 76.7049 35.8463 76.7049 32.2807C76.7049 28.715 73.8144 25.8245 70.2487 25.8245C66.6885 25.8245 63.8013 28.7063 63.7926 32.2646C63.738 32.216 63.6816 32.167 63.6235 32.1179C63.3059 31.8493 62.931 31.5708 62.5315 31.3563C62.1363 31.144 61.6854 30.9771 61.2239 30.9709C60.7522 30.9645 60.2893 31.1262 59.883 31.3366C59.4725 31.5492 59.0864 31.8291 58.7591 32.1002C58.6879 32.1592 58.6191 32.2181 58.5528 32.2763C58.5505 28.7127 55.6609 25.8246 52.0967 25.8246C48.5311 25.8246 45.6406 28.7151 45.6406 32.2807C45.6406 35.8463 48.5311 38.7368 52.0967 38.7368C55.1531 38.7368 57.7135 36.6129 58.3824 33.7605C58.3923 33.7494 58.4041 33.7362 58.4177 33.721C58.4656 33.6679 58.5365 33.591 58.6264 33.4982C58.8067 33.3122 59.0605 33.0655 59.356 32.8208C59.6529 32.5748 59.9822 32.3389 60.3133 32.1674C60.6487 31.9937 60.9537 31.903 61.2112 31.9065C61.4638 31.9099 61.7621 32.0051 62.0888 32.1806C62.4114 32.3538 62.7313 32.5888 63.0193 32.8323C63.3059 33.0747 63.5517 33.3178 63.7261 33.5009C63.8131 33.5921 63.8816 33.6677 63.9279 33.7199C63.9415 33.7352 63.9532 33.7485 63.9628 33.7596C64.6314 36.6125 67.192 38.7368 70.2487 38.7368ZM52.0967 37.8012C55.1456 37.8012 57.6172 35.3296 57.6172 32.2807C57.6172 29.2318 55.1456 26.7602 52.0967 26.7602C49.0478 26.7602 46.5762 29.2318 46.5762 32.2807C46.5762 35.3296 49.0478 37.8012 52.0967 37.8012Z" fill="black" fill-opacity="0.2"/>
<defs>
<filter id="filter0_d_32_5927" x="73.2576" y="10.8538" width="54.6896" height="39.643" filterUnits="userSpaceOnUse" color-interpolation-filters="sRGB">
<feFlood flood-opacity="0" result="BackgroundImageFix"/>
<feColorMatrix in="SourceAlpha" type="matrix" values="0 0 0 0 0 0 0 0 0 0 0 0 0 0 0 0 0 0 127 0" result="hardAlpha"/>
<feOffset dy="3.44721"/>
<feGaussianBlur stdDeviation="1.72361"/>
<feComposite in2="hardAlpha" operator="out"/>
<feColorMatrix type="matrix" values="0 0 0 0 0 0 0 0 0 0 0 0 0 0 0 0 0 0 0.25 0"/>
<feBlend mode="normal" in2="BackgroundImageFix" result="effect1_dropShadow_32_5927"/>
<feBlend mode="normal" in="SourceGraphic" in2="effect1_dropShadow_32_5927" result="shape"/>
</filter>
<filter id="filter1_d_32_5927" x="0.466041" y="42.9248" width="57.6006" height="41.753" filterUnits="userSpaceOnUse" color-interpolation-filters="sRGB">
<feFlood flood-opacity="0" result="BackgroundImageFix"/>
<feColorMatrix in="SourceAlpha" type="matrix" values="0 0 0 0 0 0 0 0 0 0 0 0 0 0 0 0 0 0 127 0" result="hardAlpha"/>
<feOffset dy="3.6307"/>
<feGaussianBlur stdDeviation="1.81535"/>
<feComposite in2="hardAlpha" operator="out"/>
<feColorMatrix type="matrix" values="0 0 0 0 0 0 0 0 0 0 0 0 0 0 0 0 0 0 0.25 0"/>
<feBlend mode="normal" in2="BackgroundImageFix" result="effect1_dropShadow_32_5927"/>
<feBlend mode="normal" in="SourceGraphic" in2="effect1_dropShadow_32_5927" result="shape"/>
</filter>
</defs>
</svg>
