<svg width="263" height="179" viewBox="0 0 263 179" fill="none" xmlns="http://www.w3.org/2000/svg">
<mask id="mask0_7_11625" style="mask-type:alpha" maskUnits="userSpaceOnUse" x="0" y="0" width="263" height="179">
<rect width="263" height="179" fill="#D9D9D9"/>
</mask>
<g mask="url(#mask0_7_11625)">
<path d="M14 177.5C20 161.667 42.7 125.3 85.5 106.5C105.306 97.8001 117.437 95.9529 127.5 95.022C144.618 93.4384 155.751 94.5065 188.5 69C194.789 64.1018 200.601 59.2485 205.955 54.5C236.013 27.8386 251.614 4.4785 256 -5L267.5 1V177.5H14Z" fill="#E23C64"/>
<path d="M14 177.5C20 161.667 42.7 125.3 85.5 106.5C105.306 97.8001 117.437 95.9529 127.5 95.022C144.618 93.4384 155.751 94.5065 188.5 69C194.789 64.1018 200.601 59.2485 205.955 54.5C236.013 27.8386 251.614 4.4785 256 -5L267.5 1V177.5H14Z" fill="black" fill-opacity="0.2"/>
<path d="M195.341 47.6297C194.308 48.5459 194.214 50.126 195.13 51.1589C196.046 52.1919 197.626 52.2865 198.659 51.3703L195.341 47.6297ZM198.659 51.3703C228.891 24.5548 244.743 0.928827 249.314 -8.95021L244.776 -11.0498C240.576 -1.97183 225.226 21.1223 195.341 47.6297L198.659 51.3703Z" fill="#E23C64"/>
<path d="M195.341 47.6297C194.308 48.5459 194.214 50.126 195.13 51.1589C196.046 52.1919 197.626 52.2865 198.659 51.3703L195.341 47.6297ZM198.659 51.3703C228.891 24.5548 244.743 0.928827 249.314 -8.95021L244.776 -11.0498C240.576 -1.97183 225.226 21.1223 195.341 47.6297L198.659 51.3703Z" fill="black" fill-opacity="0.2"/>
<path d="M169 59C136.251 84.5065 125.118 83.4384 108 85.022" stroke="#E23C64" stroke-width="5" stroke-linecap="round"/>
<path d="M169 59C136.251 84.5065 125.118 83.4384 108 85.022" stroke="black" stroke-opacity="0.2" stroke-width="5" stroke-linecap="round"/>
<path d="M3 171.5C9 155.667 31.7 119.3 74.5 100.5" stroke="#E23C64" stroke-width="5" stroke-linecap="round"/>
<path d="M3 171.5C9 155.667 31.7 119.3 74.5 100.5" stroke="black" stroke-opacity="0.2" stroke-width="5" stroke-linecap="round"/>
<g opacity="0.75">
<ellipse cx="168.781" cy="172.13" rx="51.8721" ry="6.76593" fill="#B0183D"/>
<ellipse cx="168.781" cy="172.13" rx="51.8721" ry="6.76593" fill="black" fill-opacity="0.2"/>
</g>
<path d="M101.479 142.149L103.379 124.436L105.254 124.767L103.625 140.941L101.479 142.149Z" fill="#E23C64"/>
<path d="M111.048 125.792L109.666 144.466L107.719 142.099L109.173 125.461L111.048 125.792Z" fill="#E23C64"/>
<path d="M125.119 140.314L111.048 125.792L112.616 124.282L125.152 137.364L125.119 140.314Z" fill="#E23C64"/>
<path d="M117.465 119.614L132.335 134.811L128.76 134.612L115.896 121.125L117.465 119.614Z" fill="#E23C64"/>
<path d="M128.76 134.612L125.185 134.414L125.152 137.364L112.616 124.282L115.896 121.125L128.76 134.612Z" fill="#FCEDD8"/>
<path d="M107.719 142.099L105.771 139.732L103.625 140.941L105.254 124.767L109.173 125.461L107.719 142.099Z" fill="#FCEDD8"/>
<path d="M112.124 105.367C110.73 104.028 108.521 104.049 107.153 105.415L106.305 106.261C105.657 106.909 104.783 107.281 103.866 107.3L102.669 107.324C100.736 107.362 99.1893 108.94 99.188 110.873L99.1872 112.07C99.1866 112.987 98.8316 113.868 98.1966 114.529L97.3671 115.393C96.0278 116.787 96.0492 118.996 97.4154 120.364L98.2615 121.211C98.9092 121.86 99.2812 122.734 99.2996 123.65L99.3236 124.847C99.3625 126.78 100.94 128.327 102.873 128.329L104.07 128.33C104.987 128.33 105.868 128.685 106.529 129.32L107.393 130.15C108.787 131.489 110.996 131.467 112.364 130.101L113.211 129.255C113.86 128.608 114.734 128.236 115.65 128.217L116.848 128.193C118.78 128.154 120.327 126.577 120.329 124.644L120.33 123.446C120.33 122.53 120.685 121.649 121.32 120.988L122.15 120.124C123.489 118.73 123.468 116.521 122.101 115.153L121.255 114.305C120.608 113.657 120.236 112.783 120.217 111.866L120.193 110.669C120.154 108.736 118.577 107.189 116.644 107.188L115.446 107.187C114.53 107.187 113.649 106.832 112.988 106.197L112.124 105.367Z" fill="#E23C64"/>
<circle cx="8.60991" cy="8.60991" r="8.60991" transform="matrix(-0.946114 0.323835 0.323835 0.946114 115.149 106.757)" fill="#FCEDD8"/>
<path d="M107.7 111.581L107.81 116.129L103.618 117.564L107.877 118.939L107.987 123.487L110.51 119.79L114.77 121.165L112.07 117.505L114.593 113.807L110.401 115.242L107.7 111.581Z" fill="#E23C64"/>
<path d="M206.209 108.344C194.981 112.753 192.712 122.465 192.982 126.77C192.715 127.746 192.247 129.655 191.694 132.264C192.254 132.443 193.319 132.605 194.732 132.521C196.255 132.431 198.181 132.056 200.311 131.114C204.415 129.298 206.423 126.886 206.913 125.907L207.962 138.553L216.406 127.837L216.974 141.019C217.202 140.786 217.583 140.492 218.032 140.146C219.105 139.318 220.569 138.189 221.287 136.855C222.304 134.967 223.691 131.278 223.896 129.385C223.045 126.51 222.194 123.793 221.711 121.271C220.169 113.234 224.742 107.348 227.221 105.41C224.895 104.55 217.436 103.934 206.209 108.344Z" fill="#FCEDD8"/>
<path fill-rule="evenodd" clip-rule="evenodd" d="M194.732 132.521C197.578 140.156 203.399 156.93 203.915 162.95C204.43 168.969 200.263 171.063 198.115 171.357C206.716 170.981 215.254 167.712 221.748 158.36C228.975 147.953 226.436 137.965 223.896 129.385C223.691 131.278 222.304 134.967 221.287 136.855C220.569 138.189 219.105 139.318 218.032 140.146C217.583 140.492 217.202 140.786 216.974 141.019L216.406 127.837L207.962 138.553L206.913 125.907C206.423 126.886 204.415 129.298 200.311 131.114C198.181 132.056 196.255 132.431 194.732 132.521Z" fill="#FF5E5E"/>
<path d="M189.774 142.761C188.225 152.692 173.589 167.727 185.765 170.224C189.746 171.041 193.938 171.54 198.115 171.357C200.263 171.063 204.43 168.969 203.915 162.95C203.399 156.93 197.578 140.156 194.732 132.521C193.319 132.605 192.254 132.443 191.694 132.264C191.103 135.057 190.415 138.653 189.774 142.761Z" fill="#E64B4B"/>
<path fill-rule="evenodd" clip-rule="evenodd" d="M193.283 172.616C203.507 167.324 193.009 142.813 193.009 142.813C192.815 143.347 192.614 143.88 192.416 144.405C192.164 145.074 191.917 145.73 191.696 146.357C186.954 159.837 182.744 168.54 181.039 171.488C181.364 172.008 181.827 172.995 181.999 174.065C181.999 174.065 189.337 174.658 193.283 172.616ZM147.7 174.065C147.7 174.065 140.808 174.498 137.061 172.616C126.773 167.447 136.833 143.135 136.833 143.135C137.037 143.719 137.224 144.226 137.416 144.742C137.602 145.244 137.791 145.756 138.003 146.357C142.745 159.837 146.955 168.54 148.66 171.488C148.335 172.008 147.872 172.995 147.7 174.065Z" fill="#FF5E5E"/>
<path d="M177.334 177.932C178.784 178.093 181.039 178.254 181.845 176.16C182.099 175.498 182.111 174.764 181.999 174.065C181.827 172.995 181.364 172.008 181.039 171.488C182.744 168.54 186.954 159.837 191.696 146.357C191.696 146.357 185.389 151.512 181.039 153.606C177.687 155.22 172.258 157.635 172.258 157.635C172.234 155.406 172.29 159.425 172.258 157.635C172.318 163.073 172.385 169.254 172.608 173.421C172.757 176.204 172.976 178.088 173.307 178.254C174.338 178.769 175.133 177.824 175.401 177.287C175.562 177.448 176.174 177.803 177.334 177.932Z" fill="#B0183D"/>
<path d="M147.854 176.16C148.66 178.254 150.915 178.093 152.365 177.932C153.525 177.803 154.137 177.448 154.298 177.287C154.566 177.824 155.361 178.769 156.392 178.254C156.723 178.088 156.942 176.204 157.091 173.421C157.314 169.254 157.381 163.073 157.441 157.635C157.441 157.635 152.012 155.22 148.66 153.606C144.31 151.512 138.003 146.357 138.003 146.357C142.745 159.837 146.955 168.54 148.66 171.488C148.335 172.008 147.872 172.995 147.7 174.065C147.588 174.764 147.6 175.498 147.854 176.16Z" fill="#B0183D"/>
<path fill-rule="evenodd" clip-rule="evenodd" d="M135.933 121.988C136.363 120.697 136.866 119.5 137.416 118.421C142.614 121.074 155.716 125.769 166.541 123.321C177.367 120.872 183.617 114.783 185.389 112.044C185.389 109.426 189.85 113.718 192.613 121.227C192.289 122.053 191.893 123.16 191.439 124.429C189.417 130.085 186.235 138.986 182.973 140.88C178.977 143.2 177.012 143.35 176.529 143.135C176.207 144.048 174.886 146.1 172.179 147.002C169.473 147.904 168.045 147.915 167.669 147.807L165.574 150.546L162.353 147.807C161.977 147.915 160.548 147.904 157.842 147.002C155.136 146.1 153.815 144.048 153.492 143.135C153.009 143.35 151.044 143.2 147.049 140.88C143.054 138.56 137.705 126.499 135.933 121.988Z" fill="#FCEDD8"/>
<path d="M185.389 112.044L145.599 113.333C143.796 110.732 140.063 113.225 137.416 118.421C142.614 121.074 155.716 125.769 166.541 123.321C177.367 120.872 183.617 114.783 185.389 112.044Z" fill="#E6CEAC"/>
<path fill-rule="evenodd" clip-rule="evenodd" d="M135.933 121.988C134.335 126.798 133.761 132.928 135.611 139.269C136.122 141.021 136.5 142.182 136.833 143.135C137.037 143.719 137.224 144.226 137.416 144.742C137.602 145.244 137.791 145.756 138.003 146.357C138.003 146.357 144.31 151.512 148.66 153.606C152.012 155.22 157.441 157.635 157.441 157.635L161.869 174.82C162.918 175.041 163.993 175.197 164.93 175.193C166.11 175.188 167.514 174.926 168.796 174.605L172.258 157.635C172.258 157.635 177.687 155.22 181.039 153.606C185.389 151.512 191.696 146.357 191.696 146.357C191.917 145.73 192.164 145.074 192.416 144.405C192.614 143.88 192.815 143.347 193.009 142.813C193.447 141.605 193.847 140.394 194.088 139.269C195.525 132.561 194.44 126.191 192.613 121.227C192.289 122.053 191.893 123.16 191.439 124.429C189.417 130.085 186.235 138.986 182.973 140.88C178.977 143.2 177.012 143.35 176.529 143.135C176.207 144.048 174.886 146.1 172.179 147.002C169.473 147.904 168.045 147.915 167.669 147.807L165.574 150.546L162.353 147.807C161.977 147.915 160.548 147.904 157.842 147.002C155.136 146.1 153.815 144.048 153.492 143.135C153.009 143.35 151.044 143.2 147.049 140.88C143.054 138.56 137.705 126.499 135.933 121.988Z" fill="#FF5E5E"/>
<path d="M157.441 157.635C157.381 163.073 157.314 169.254 157.091 173.421C157.091 173.421 159.404 174.3 161.869 174.82L157.441 157.635Z" fill="#D74646"/>
<path d="M172.608 173.421C172.385 169.254 172.318 163.073 172.258 157.635L168.796 174.605C170.859 174.089 172.608 173.421 172.608 173.421Z" fill="#D74646"/>
<path fill-rule="evenodd" clip-rule="evenodd" d="M128.04 97.5459C126.88 99.0924 123.798 98.1902 122.401 97.5459C127.503 106.728 143.193 123.645 165.414 122.999C192.407 122.214 201.97 105.988 206.765 97.8527C206.892 97.6372 207.016 97.4274 207.137 97.2237C206.17 97.8144 203.818 98.6413 202.143 97.2237C201.331 96.5371 201.028 95.5119 200.483 93.6703C200.235 92.8357 199.939 91.8334 199.522 90.6189C196.323 87.397 188.482 81.211 178.945 82.242C169.409 83.273 165.95 98.7809 165.414 106.406C164.877 98.7809 161.418 83.273 151.882 82.242C142.345 81.211 133.562 87.397 130.362 90.6189C130.034 91.6602 129.747 92.6234 129.491 93.4835C128.878 95.5433 128.44 97.0118 128.04 97.5459Z" fill="#FCEDD8"/>
<path d="M160.581 57.5947C157.842 59.3667 149.465 61.1387 140.444 71.2876C134.956 77.462 132.091 85.127 130.362 90.6189C133.562 87.397 142.345 81.211 151.882 82.242C161.418 83.273 164.877 98.7809 165.414 106.406C165.95 98.7809 169.409 83.273 178.945 82.242C188.482 81.211 196.323 87.397 199.522 90.6189C198.918 88.8559 198.062 86.646 196.742 83.8529C195.798 81.8579 194.617 79.5654 193.122 76.9259C186.549 65.3272 177.066 60.6017 173.146 59.6889V55.1783C173.039 55.3931 172.534 56.016 171.374 56.7892C170.214 57.5625 166.917 59.0445 165.414 59.6889V52.6008C164.715 53.6747 162.772 56.177 160.581 57.5947Z" fill="#FF5E5E"/>
<path d="M191.511 57.5947C194.088 53.5996 199.028 49.9159 201.176 48.5734C201.66 50.0233 202.497 55.2427 201.982 58.078C201.466 60.9132 199.834 65.2735 199.082 67.9047C198.814 67.6362 198.083 66.9703 197.31 66.4548C196.537 65.9393 194.947 66.24 194.249 66.4548L196.021 63.394C195.645 63.233 194.475 62.9108 192.799 62.9108C191.124 62.9108 188.987 63.233 188.128 63.394C188.181 63.1256 188.933 61.5898 191.511 57.5947Z" fill="#FCEDD8"/>
<path fill-rule="evenodd" clip-rule="evenodd" d="M178.301 61.8149C182.803 64.3023 188.639 69.0157 193.122 76.9259C194.617 79.5654 195.798 81.8579 196.742 83.8529L201.982 78.5368C203.109 77.087 206.138 73.8329 207.942 64.0384C209.746 54.2439 206.224 44.5998 204.237 41.002C202.68 40.9483 198.212 41.9364 192.799 46.3181C187.387 50.6999 180.664 58.7541 178.301 61.8149ZM191.511 57.5947C194.088 53.5996 199.028 49.9159 201.176 48.5734C201.66 50.0233 202.497 55.2427 201.982 58.078C201.466 60.9132 199.834 65.2735 199.082 67.9047C198.814 67.6362 198.083 66.9703 197.31 66.4548C196.537 65.9393 194.947 66.24 194.249 66.4548L196.021 63.394C195.645 63.233 194.475 62.9108 192.799 62.9108C191.124 62.9108 188.987 63.233 188.128 63.394C188.181 63.1256 188.933 61.5898 191.511 57.5947Z" fill="#FF5E5E"/>
<path d="M137.061 58.5612C134.483 54.5661 129.543 50.8824 127.395 49.54C126.912 50.9898 126.074 56.2093 126.59 59.0445C127.105 61.8798 128.738 66.24 129.49 68.8712C129.758 68.6027 130.488 67.9369 131.262 67.4214C132.035 66.9059 133.624 67.2066 134.322 67.4214L132.55 64.3606C132.926 64.1995 134.097 63.8773 135.772 63.8773C137.448 63.8773 139.585 64.1995 140.444 64.3606C140.39 64.0921 139.638 62.5564 137.061 58.5612Z" fill="#FCEDD8"/>
<path fill-rule="evenodd" clip-rule="evenodd" d="M150.109 62.929C145.277 66.9381 140.125 70.1433 135.643 78.0536C134.147 80.6931 133.163 83.3078 132.22 85.3028L126.59 79.5034C125.462 78.0536 122.434 74.7995 120.629 65.005C118.825 55.2105 122.348 45.5663 124.335 41.9686C125.892 41.9149 130.359 42.9029 135.772 47.2847C141.185 51.6664 147.747 59.8683 150.109 62.929ZM137.061 58.5612C134.483 54.5661 129.543 50.8824 127.395 49.54C126.912 50.9898 126.074 56.2093 126.59 59.0445C127.105 61.8798 128.738 66.24 129.49 68.8712C129.758 68.6027 130.488 67.9369 131.262 67.4214C132.035 66.9059 133.624 67.2066 134.322 67.4214L132.55 64.3606C132.926 64.1995 134.097 63.8773 135.772 63.8773C137.448 63.8773 139.585 64.1995 140.444 64.3606C140.39 64.0921 139.638 62.5564 137.061 58.5612Z" fill="#FF5E5E"/>
<path fill-rule="evenodd" clip-rule="evenodd" d="M148.555 94.3533C149.001 94.0021 149.538 93.8407 150.109 93.8407C150.665 93.8407 151.214 93.9943 151.662 94.3792C152.091 94.7484 152.296 95.2185 152.399 95.6048C152.561 96.2115 152.541 96.9405 152.528 97.3974C152.527 97.4636 152.525 97.5241 152.524 97.5777C152.514 98.1938 152.235 98.75 151.906 99.1363C151.587 99.5119 151.014 99.9602 150.245 99.9602H149.557C148.81 99.9602 148.245 99.5406 147.92 99.1407C147.593 98.7376 147.343 98.1581 147.393 97.5219C147.396 97.4796 147.399 97.434 147.403 97.3857L147.403 97.3857L147.403 97.3857C147.438 96.9047 147.493 96.1446 147.738 95.5057C147.883 95.1243 148.128 94.6902 148.555 94.3533ZM179.485 94.3533C179.931 94.0021 180.468 93.8407 181.039 93.8407C181.595 93.8407 182.144 93.9943 182.592 94.3792C183.021 94.7484 183.226 95.2185 183.329 95.6048C183.491 96.2114 183.471 96.9405 183.458 97.3974V97.3974C183.457 97.4636 183.455 97.5241 183.454 97.5777C183.444 98.1938 183.165 98.75 182.836 99.1363C182.517 99.5119 181.944 99.9602 181.175 99.9602H180.487C179.74 99.9602 179.175 99.5406 178.85 99.1407C178.523 98.7376 178.273 98.1581 178.323 97.5219C178.326 97.4797 178.329 97.4344 178.333 97.3863L178.333 97.3858L178.333 97.3857C178.368 96.9047 178.423 96.1446 178.668 95.5057C178.813 95.1243 179.058 94.6902 179.485 94.3533ZM163.182 106.235C163.263 106.324 163.348 106.406 163.438 106.481C163.266 107.116 163.009 107.785 162.659 108.36C162.106 109.267 161.45 109.75 160.674 109.791C159.538 109.851 159.009 109.462 158.712 109.106C158.359 108.681 158.209 108.136 158.142 107.779C158.011 107.08 157.338 106.619 156.638 106.75C155.938 106.881 155.478 107.555 155.609 108.254C155.703 108.757 155.956 109.823 156.73 110.754C157.561 111.753 158.884 112.466 160.809 112.365C162.763 112.262 164.068 111 164.859 109.701C164.971 109.518 165.075 109.33 165.172 109.14C165.268 109.33 165.372 109.518 165.484 109.701C166.276 111 167.58 112.262 169.534 112.365C171.459 112.466 172.782 111.753 173.613 110.754C174.388 109.823 174.641 108.757 174.735 108.254C174.866 107.555 174.405 106.881 173.706 106.75C173.006 106.619 172.333 107.08 172.201 107.779C172.135 108.136 171.985 108.681 171.632 109.106C171.335 109.462 170.805 109.851 169.67 109.791C168.894 109.75 168.238 109.267 167.685 108.36C167.313 107.75 167.046 107.033 166.875 106.364C166.918 106.323 166.96 106.28 167 106.235L168.855 104.191C170.357 102.535 169.182 99.8817 166.946 99.8817H163.237C161 99.8817 159.825 102.535 161.328 104.191L163.182 106.235Z" fill="#B0183D"/>
<ellipse opacity="0.5" cx="212.276" cy="161.82" rx="19.6534" ry="13.5319" fill="#D74646"/>
<path d="M229.917 174.847C229.735 172.415 232.956 170.428 233.843 169.929C233.99 169.846 234.154 169.804 234.323 169.796L253.926 168.918V178.107V178.404L233.177 179.886C233.177 179.886 230.084 177.088 229.917 174.847Z" fill="#FCEDD8"/>
<path d="M233.177 179.886L253.926 178.404L254.815 178.7C254.956 178.982 254.765 179.316 254.45 179.338L233.177 180.775V179.886Z" fill="#FF5E5E"/>
<path d="M254.815 178.7L253.926 178.404V178.107L254.815 178.7Z" fill="#FF5E5E"/>
<path d="M222.803 165.954L253.897 168.027C254.436 168.063 254.462 168.847 253.926 168.918L211.331 168.236L204.565 168.127C205.572 167.309 206.719 166.808 207.567 166.578C207.646 166.557 207.727 166.546 207.808 166.542L222.803 165.954Z" fill="#C73030"/>
<path fill-rule="evenodd" clip-rule="evenodd" d="M234.323 169.796C234.154 169.804 233.99 169.846 233.843 169.929C232.956 170.428 229.735 172.415 229.917 174.847C230.084 177.088 233.177 179.886 233.177 179.886V180.775L208.278 178.7C207.309 177.416 205.532 174.26 206.176 171.915C206.821 169.569 209.881 168.485 211.331 168.236L253.926 168.918L234.323 169.796Z" fill="#FF5E5E"/>
<path d="M208.278 178.7C206.5 178.7 202.824 177.633 202.35 173.365C202.082 170.95 203.192 169.243 204.565 168.127L211.331 168.236C209.881 168.485 206.821 169.569 206.176 171.915C205.532 174.26 207.309 177.416 208.278 178.7Z" fill="#C73030"/>
<path d="M216.049 158.842C216.218 158.849 216.382 158.892 216.529 158.975C217.416 159.474 220.638 161.461 220.456 163.892C220.288 166.134 217.195 168.931 217.195 168.931V169.821L242.094 167.746C243.872 167.746 247.548 166.679 248.022 162.41C248.487 158.225 244.81 156.167 242.804 155.623C242.725 155.602 242.645 155.591 242.564 155.588L227.569 155L196.476 157.073C195.936 157.109 195.91 157.893 196.446 157.964L216.049 158.842Z" fill="#B0183D"/>
<path d="M220.456 163.892C220.638 161.461 217.416 159.474 216.529 158.975C216.382 158.892 216.218 158.849 216.049 158.842L196.446 157.964V167.153V167.449L217.195 168.931C217.195 168.931 220.288 166.134 220.456 163.892Z" fill="#FCEDD8"/>
<path d="M217.195 168.931L196.446 167.449L195.557 167.746C195.416 168.028 195.607 168.362 195.922 168.383L217.195 169.821V168.931Z" fill="#B0183D"/>
<path d="M195.557 167.746L196.446 167.449V167.153L195.557 167.746Z" fill="#B0183D"/>
<path d="M89 89.927C89 93.7527 92.1013 96.854 95.927 96.854C98.4932 96.854 100.733 95.4586 101.93 93.3852C100.545 94.0797 96.943 95.1916 93.618 94.0832C90.293 92.9749 89.1539 90.8506 89 89.927Z" fill="#DDB64E"/>
<path d="M95.927 83C92.1013 83 89 86.1013 89 89.927C89.1539 90.8506 90.293 92.9749 93.618 94.0832C96.943 95.1916 100.545 94.0797 101.93 93.3852C102.518 92.3675 102.854 91.1865 102.854 89.927C102.854 86.1013 99.7527 83 95.927 83Z" fill="#FFD464"/>
<path d="M253.834 103.769C251.716 106.956 252.583 111.255 255.769 113.373C257.907 114.793 260.545 114.87 262.689 113.806C261.151 113.618 257.536 112.55 255.38 109.787C253.224 107.024 253.451 104.624 253.834 103.769Z" fill="#B0183D"/>
<path d="M263.437 101.834C260.251 99.7164 255.951 100.583 253.834 103.769C253.451 104.624 253.224 107.024 255.38 109.787C257.536 112.55 261.151 113.618 262.689 113.806C263.742 113.284 264.675 112.486 265.373 111.437C267.49 108.251 266.623 103.951 263.437 101.834Z" fill="#FF5E5E"/>
<circle cx="225.438" cy="86.4376" r="11.4376" fill="#FFD464"/>
<circle cx="225.438" cy="86.4376" r="9.18233" fill="#DDB64E"/>
<circle cx="225.599" cy="86.5987" r="7.73249" fill="#FFD464"/>
<path d="M229.768 88.748C229.796 89.293 229.674 89.8026 229.401 90.277C229.138 90.7412 228.731 91.1267 228.182 91.4333C227.642 91.7394 226.98 91.9272 226.198 91.9967L226.258 93.144L225.354 93.1911L225.293 92.0151C224.236 91.9742 223.359 91.6988 222.662 91.1886C221.974 90.678 221.586 89.9552 221.499 89.0203L224.496 88.8643C224.56 89.3499 224.787 89.6592 225.177 89.7923L225.082 87.9566C224.267 87.7785 223.626 87.6106 223.157 87.4528C222.688 87.2855 222.261 87.001 221.876 86.5992C221.501 86.197 221.294 85.6325 221.256 84.9059C221.225 84.3036 221.355 83.7744 221.648 83.3181C221.95 82.8519 222.371 82.4848 222.914 82.2169C223.455 81.9395 224.069 81.7637 224.755 81.6896L224.695 80.528L225.598 80.481L225.659 81.6426C226.724 81.6638 227.581 81.926 228.231 82.429C228.89 82.9316 229.277 83.6496 229.393 84.583L226.367 84.7405C226.306 84.3028 226.109 84.0206 225.776 83.8941L225.871 85.7154L226.235 85.8115C226.934 85.9669 227.513 86.138 227.973 86.325C228.443 86.5018 228.851 86.7874 229.197 87.1816C229.543 87.5662 229.733 88.0883 229.768 88.748ZM224.247 84.6208C224.265 84.965 224.499 85.2356 224.95 85.4326L224.868 83.8551C224.432 83.9545 224.225 84.2097 224.247 84.6208ZM226.084 89.8169C226.311 89.7572 226.488 89.6569 226.615 89.5161C226.742 89.3657 226.799 89.1853 226.788 88.975C226.771 88.6404 226.508 88.3809 226 88.1964L226.084 89.8169Z" fill="#DDB64E"/>
<circle cx="94.0779" cy="162.078" r="7.76258" transform="rotate(-21.6368 94.0779 162.078)" fill="#FFD464"/>
<circle cx="94.0779" cy="162.078" r="6.23193" transform="rotate(-21.6368 94.0779 162.078)" fill="#DDB64E"/>
<circle cx="94.2198" cy="162.139" r="5.24794" transform="rotate(-21.6368 94.2198 162.139)" fill="#FFD464"/>
<path d="M97.4464 162.58C97.6007 162.917 97.6512 163.269 97.598 163.636C97.548 163.995 97.388 164.34 97.118 164.671C96.8538 164.999 96.4837 165.283 96.0074 165.523L96.3322 166.232L95.774 166.487L95.4411 165.761C94.7643 166 94.142 166.045 93.5742 165.898C93.0124 165.748 92.587 165.389 92.2981 164.821L94.15 163.972C94.3116 164.263 94.5322 164.401 94.8118 164.388L94.2922 163.253C93.7337 163.345 93.2871 163.399 92.9521 163.417C92.6144 163.429 92.2738 163.356 91.9303 163.199C91.5926 163.039 91.321 162.735 91.1153 162.286C90.9448 161.914 90.8947 161.547 90.9652 161.186C91.0388 160.817 91.2131 160.48 91.488 160.175C91.7602 159.864 92.1036 159.6 92.5181 159.381L92.1892 158.664L92.7474 158.408L93.0763 159.126C93.7536 158.872 94.36 158.823 94.8955 158.978C95.4369 159.13 95.8609 159.486 96.1675 160.046L94.298 160.903C94.1499 160.642 93.9551 160.513 93.7137 160.517L94.2292 161.642L94.4832 161.611C94.9627 161.535 95.371 161.498 95.7081 161.5C96.0485 161.495 96.3773 161.573 96.6945 161.735C97.009 161.891 97.2596 162.172 97.4464 162.58ZM92.9306 161.358C93.028 161.571 93.2437 161.683 93.5777 161.694L93.1311 160.719C92.881 160.891 92.8142 161.104 92.9306 161.358ZM95.3903 164.176C95.5186 164.082 95.6051 163.974 95.6499 163.853C95.692 163.727 95.6833 163.599 95.6237 163.469C95.529 163.262 95.2983 163.164 94.9316 163.175L95.3903 164.176Z" fill="#DDB64E"/>
<circle cx="147.208" cy="23.208" r="14.0249" transform="rotate(-21.6368 147.208 23.208)" fill="#FFD464"/>
<circle cx="147.208" cy="23.208" r="11.2594" transform="rotate(-21.6368 147.208 23.208)" fill="#DDB64E"/>
<circle cx="147.464" cy="23.3188" r="9.48163" transform="rotate(-21.6368 147.464 23.3188)" fill="#FFD464"/>
<path d="M152.93 23.3207C153.209 23.929 153.3 24.5651 153.204 25.229C153.113 25.8773 152.824 26.5004 152.337 27.0984C151.859 27.6915 151.191 28.2046 150.33 28.6376L150.917 29.9182L149.908 30.3803L149.307 29.0676C148.084 29.4988 146.96 29.5814 145.934 29.3154C144.919 29.0444 144.15 28.3958 143.628 27.3695L146.974 25.8365C147.266 26.3612 147.665 26.6112 148.17 26.5863L147.231 24.5373C146.222 24.7026 145.415 24.8012 144.81 24.8331C144.2 24.8544 143.584 24.7232 142.964 24.4394C142.354 24.1507 141.863 23.6009 141.491 22.7898C141.183 22.1174 141.093 21.4551 141.22 20.8028C141.353 20.135 141.668 19.5258 142.165 18.9754C142.657 18.4143 143.277 17.9364 144.026 17.5416L143.432 16.2449L144.44 15.7828L145.034 17.0795C146.258 16.6221 147.354 16.5333 148.321 16.8131C149.299 17.088 150.065 17.7313 150.619 18.743L147.242 20.2906C146.974 19.8193 146.622 19.5867 146.186 19.5928L147.117 21.6259L147.576 21.5706C148.442 21.432 149.18 21.3651 149.789 21.3701C150.404 21.3595 150.998 21.5005 151.571 21.7932C152.14 22.0751 152.593 22.5843 152.93 23.3207ZM144.771 21.1127C144.947 21.4969 145.337 21.6993 145.94 21.7198L145.133 19.9589C144.682 20.2692 144.561 20.6538 144.771 21.1127ZM149.215 26.2043C149.447 26.0336 149.603 25.8393 149.684 25.6214C149.76 25.3929 149.744 25.1612 149.637 24.9264C149.466 24.5529 149.049 24.3759 148.386 24.3953L149.215 26.2043Z" fill="#DDB64E"/>
<g opacity="0.5">
<path d="M208.662 136.963L213.36 108.83C213.717 106.697 215.705 105.233 217.848 105.526L246.99 109.512C249.197 109.814 250.732 111.86 250.404 114.064L246.097 142.993C245.768 145.198 243.701 146.709 241.501 146.352L211.968 141.57C209.78 141.216 208.297 139.149 208.662 136.963Z" fill="#FCEDD8"/>
<path d="M208.662 136.963L213.36 108.83C213.717 106.697 215.705 105.233 217.848 105.526L246.99 109.512C249.197 109.814 250.732 111.86 250.404 114.064L246.097 142.993C245.768 145.198 243.701 146.709 241.501 146.352L211.968 141.57C209.78 141.216 208.297 139.149 208.662 136.963Z" fill="black" fill-opacity="0.3"/>
<path d="M208.662 136.963L213.36 108.83C213.717 106.697 215.705 105.233 217.848 105.526L246.99 109.512C249.197 109.814 250.732 111.86 250.404 114.064L246.097 142.993C245.768 145.198 243.701 146.709 241.501 146.352L211.968 141.57C209.78 141.216 208.297 139.149 208.662 136.963Z" stroke="black"/>
</g>
<path d="M247.288 145.122C249.05 145.398 250.702 144.193 250.977 142.431L257.711 99.3631C257.987 97.6012 256.782 95.9496 255.02 95.6741L235.281 92.5876L233.628 103.155C233.353 104.917 231.701 106.122 229.939 105.847L216.581 103.758L211.499 136.258C211.223 138.02 212.428 139.671 214.19 139.947L247.288 145.122Z" fill="#FFF4D8"/>
<path d="M235.281 92.5876L216.581 103.758L229.939 105.847C231.701 106.122 233.353 104.917 233.628 103.155L235.281 92.5876Z" fill="#FCEDD8"/>
<path d="M235.281 92.5876L216.581 103.758L229.939 105.847C231.701 106.122 233.353 104.917 233.628 103.155L235.281 92.5876Z" fill="black" fill-opacity="0.2"/>
<rect x="220.312" y="108.631" width="31.0786" height="2.01809" rx="1.00905" transform="rotate(8.88692 220.312 108.631)" fill="#FCEDD8"/>
<rect x="220.312" y="108.631" width="31.0786" height="2.01809" rx="1.00905" transform="rotate(8.88692 220.312 108.631)" fill="black" fill-opacity="0.2"/>
<rect x="219.564" y="113.416" width="31.0786" height="2.01809" rx="1.00905" transform="rotate(8.88692 219.564 113.416)" fill="#FCEDD8"/>
<rect x="219.564" y="113.416" width="31.0786" height="2.01809" rx="1.00905" transform="rotate(8.88692 219.564 113.416)" fill="black" fill-opacity="0.2"/>
<rect x="218.816" y="118.201" width="31.0786" height="2.01809" rx="1.00905" transform="rotate(8.88692 218.816 118.201)" fill="#FCEDD8"/>
<rect x="218.816" y="118.201" width="31.0786" height="2.01809" rx="1.00905" transform="rotate(8.88692 218.816 118.201)" fill="black" fill-opacity="0.2"/>
<rect x="218.068" y="122.987" width="18.9701" height="2.01809" rx="1.00905" transform="rotate(8.88692 218.068 122.987)" fill="#FCEDD8"/>
<rect x="218.068" y="122.987" width="18.9701" height="2.01809" rx="1.00905" transform="rotate(8.88692 218.068 122.987)" fill="black" fill-opacity="0.2"/>
<path d="M208.729 47.9978L203.018 47.0841L210.335 65.7817C210.702 66.7193 211.628 67.314 212.631 67.2255C214.964 67.0197 219.444 66.5208 224.276 65.4331L218.975 49.9016L218.95 49.8283L216.978 44.0503L208.729 47.9978Z" fill="#B0183D"/>
<path d="M260.446 19.1247L208.729 42.9213V47.9978L216.978 44.0503L241.218 32.4508L259.119 23.8846C259.93 23.4965 260.446 22.6772 260.446 21.7781V19.1247Z" fill="#D24545"/>
<path d="M208.729 42.9213L177 38.7965V40.93C177 42.0772 177.833 43.0546 178.966 43.2359L203.018 47.0841L208.729 47.9978V42.9213Z" fill="#B43737"/>
<path fill-rule="evenodd" clip-rule="evenodd" d="M177 38.7965L225.881 15.2959C226.283 15.1027 226.732 15.0286 227.175 15.0824L260.446 19.1247C247.015 24.8359 217.486 36.4486 206.825 37.2101C196.164 37.9716 182.5 38.585 177 38.7965Z" fill="#E64B4B"/>
<path d="M177 38.7965L208.729 42.9213L260.446 19.1247C247.015 24.8359 217.486 36.4486 206.825 37.2101C196.164 37.9716 182.5 38.585 177 38.7965Z" fill="#E64B4B"/>
<path fill-rule="evenodd" clip-rule="evenodd" d="M218.95 49.8283L218.975 49.9016L224.276 65.4331C229.337 64.2938 234.784 62.5085 238.554 59.7375C241.401 57.6441 244.775 53.8978 246.3 52.1362C246.817 51.5381 246.977 50.7155 246.739 49.9611L241.218 32.4508C239.061 34.0372 233.096 38.3523 226.497 42.9213C220.219 47.2672 218.859 49.2783 218.95 49.8283Z" fill="#E64B4B"/>
<path d="M241.218 32.4508L216.978 44.0503L218.95 49.8283C218.859 49.2783 220.219 47.2672 226.497 42.9213C233.096 38.3523 239.061 34.0372 241.218 32.4508Z" fill="#B0183D"/>
<path d="M239.665 46.5743L237.919 46.7287L241.437 56.5646C241.437 56.5646 242.927 57.3059 243.63 56.5646C244.012 56.1626 244.265 55.2954 244.265 55.2954L241.092 45.7768L239.665 46.5743Z" fill="#FCEDD8"/>
<path d="M239.357 45.7768L239.665 46.5743L241.092 45.7768C241.092 45.7768 240.006 45.5811 239.357 45.7768Z" fill="#B0183D"/>
<path d="M239.665 46.5743L239.357 45.7768C238.713 45.9715 237.919 46.7287 237.919 46.7287L239.665 46.5743Z" fill="#B0183D"/>
<path d="M216.661 28.9606L233.477 30.5471L239.665 46.5743M239.665 46.5743L237.919 46.7287M239.665 46.5743L241.092 45.7768M239.665 46.5743L239.357 45.7768M237.919 46.7287L241.437 56.5646C241.437 56.5646 242.927 57.3059 243.63 56.5646C244.012 56.1626 244.265 55.2954 244.265 55.2954L241.092 45.7768M237.919 46.7287C237.919 46.7287 238.713 45.9715 239.357 45.7768M241.092 45.7768C241.092 45.7768 240.006 45.5811 239.357 45.7768" stroke="#B0183D" stroke-width="0.634574"/>
</g>
</svg>
